STARTFONT 2.1
COMMENT
COMMENT Converted from OpenType font "NimbusSans-Regular.otf" by "otf2bdf 3.0".
COMMENT
FONT -FreeType-Nimbus Sans-Medium-R-Normal--25-180-100-100-P-132-ISO10646-1
SIZE 18 100 100
FONTBOUNDINGBOX 31 34 -5 -7
STARTPROPERTIES 19
FOUNDRY "FreeType"
FAMILY_NAME "Nimbus Sans"
WEIGHT_NAME "Medium"
SLANT "R"
SETWIDTH_NAME "Normal"
ADD_STYLE_NAME ""
PIXEL_SIZE 25
POINT_SIZE 180
RESOLUTION_X 100
RESOLUTION_Y 100
SPACING "P"
AVERAGE_WIDTH 132
CHARSET_REGISTRY "ISO10646"
CHARSET_ENCODING "1"
FONT_ASCENT 18
FONT_DESCENT 6
COPYRIGHT "(URW)++,Copyright 2014 by (URW)++ Design & Development"
_OTF_FONTFILE "NimbusSans-Regular.otf"
_OTF_PSNAME "NimbusSans-Regular"
ENDPROPERTIES
CHARS 854
STARTCHAR 0020
ENCODING 32
SWIDTH 280 0
DWIDTH 7 0
BBX 0 0 0 0
BITMAP
ENDCHAR
STARTCHAR 0021
ENCODING 33
SWIDTH 280 0
DWIDTH 7 0
BBX 2 18 3 0
BITMAP
C0
C0
C0
C0
C0
C0
C0
C0
C0
C0
C0
C0
40
40
00
C0
C0
C0
ENDCHAR
STARTCHAR 0022
ENCODING 34
SWIDTH 360 0
DWIDTH 9 0
BBX 7 6 1 12
BITMAP
EE
EE
EE
EE
44
44
ENDCHAR
STARTCHAR 0023
ENCODING 35
SWIDTH 560 0
DWIDTH 14 0
BBX 14 18 0 0
BITMAP
0630
0630
0630
0420
0C60
7FFC
7FFC
0C60
0C60
18C0
18C0
FFF8
FFF8
18C0
1080
3180
3180
3180
ENDCHAR
STARTCHAR 0024
ENCODING 36
SWIDTH 560 0
DWIDTH 14 0
BBX 12 22 1 -3
BITMAP
0600
0F00
3FC0
76E0
6660
C630
C600
6600
7600
3F00
0FC0
07E0
0670
0630
C630
C630
E670
76E0
3FC0
0600
0600
0600
ENDCHAR
STARTCHAR 0025
ENCODING 37
SWIDTH 880 0
DWIDTH 22 0
BBX 20 18 1 0
BITMAP
180200
7E0600
C70400
C30C00
810800
C31800
C31000
7E3000
3C6000
006000
00C3C0
0087F0
018C30
010C10
030C10
020C30
0607F0
0403C0
ENDCHAR
STARTCHAR 0026
ENCODING 38
SWIDTH 680 0
DWIDTH 17 0
BBX 15 18 1 0
BITMAP
0780
1FC0
18C0
3060
3060
18C0
1DC0
0F00
1F00
3B18
6198
61D8
C0F8
C070
E070
70F8
3FDC
1F0E
ENDCHAR
STARTCHAR 0027
ENCODING 39
SWIDTH 200 0
DWIDTH 5 0
BBX 3 6 1 12
BITMAP
E0
E0
E0
C0
C0
40
ENDCHAR
STARTCHAR 0028
ENCODING 40
SWIDTH 320 0
DWIDTH 8 0
BBX 5 24 2 -6
BITMAP
08
10
30
30
60
60
60
C0
C0
C0
C0
C0
C0
C0
C0
C0
C0
60
60
20
30
10
18
08
ENDCHAR
STARTCHAR 0029
ENCODING 41
SWIDTH 320 0
DWIDTH 8 0
BBX 5 24 1 -6
BITMAP
C0
40
60
20
30
30
18
18
18
18
18
18
18
18
18
18
18
10
30
30
20
60
40
80
ENDCHAR
STARTCHAR 002A
ENCODING 42
SWIDTH 400 0
DWIDTH 10 0
BBX 7 7 1 11
BITMAP
18
10
D6
7E
38
2C
64
ENDCHAR
STARTCHAR 002B
ENCODING 43
SWIDTH 600 0
DWIDTH 15 0
BBX 12 12 1 0
BITMAP
0600
0600
0600
0600
0600
FFF0
FFF0
0600
0600
0600
0600
0600
ENDCHAR
STARTCHAR 002C
ENCODING 44
SWIDTH 280 0
DWIDTH 7 0
BBX 3 7 2 -4
BITMAP
E0
E0
E0
20
20
40
80
ENDCHAR
STARTCHAR 002D
ENCODING 45
SWIDTH 320 0
DWIDTH 8 0
BBX 6 2 1 6
BITMAP
FC
FC
ENDCHAR
STARTCHAR 002E
ENCODING 46
SWIDTH 280 0
DWIDTH 7 0
BBX 3 3 2 0
BITMAP
E0
E0
E0
ENDCHAR
STARTCHAR 002F
ENCODING 47
SWIDTH 280 0
DWIDTH 7 0
BBX 7 18 0 0
BITMAP
02
06
04
04
0C
08
08
18
10
10
30
20
20
60
40
40
C0
80
ENDCHAR
STARTCHAR 0030
ENCODING 48
SWIDTH 560 0
DWIDTH 14 0
BBX 12 18 1 0
BITMAP
0F00
3FC0
70C0
60E0
6060
E060
C070
C070
C070
C070
C070
C070
E060
6060
6060
70C0
3FC0
0F00
ENDCHAR
STARTCHAR 0031
ENCODING 49
SWIDTH 560 0
DWIDTH 14 0
BBX 6 18 3 0
BITMAP
0C
0C
1C
FC
FC
1C
1C
1C
1C
1C
1C
1C
1C
1C
1C
1C
1C
1C
ENDCHAR
STARTCHAR 0032
ENCODING 50
SWIDTH 560 0
DWIDTH 14 0
BBX 12 18 1 0
BITMAP
0F80
3FC0
70E0
6070
E070
E030
0070
0060
00E0
03C0
0F00
1E00
3800
7000
6000
C000
FFF0
FFF0
ENDCHAR
STARTCHAR 0033
ENCODING 51
SWIDTH 560 0
DWIDTH 14 0
BBX 12 18 1 0
BITMAP
1F00
3FC0
70E0
6060
C060
C060
00E0
03C0
0780
03E0
0060
0070
C070
C070
E060
70E0
7FC0
1F00
ENDCHAR
STARTCHAR 0034
ENCODING 52
SWIDTH 560 0
DWIDTH 14 0
BBX 12 18 1 0
BITMAP
0080
0180
0380
0780
0780
0D80
1980
1980
3180
6180
6180
C180
FFF0
FFF0
0180
0180
0180
0180
ENDCHAR
STARTCHAR 0035
ENCODING 53
SWIDTH 560 0
DWIDTH 14 0
BBX 12 18 1 0
BITMAP
3FE0
3FE0
6000
6000
6000
6000
6F80
7FC0
70E0
C060
0070
0030
0030
C070
E060
70E0
7FC0
1F00
ENDCHAR
STARTCHAR 0036
ENCODING 54
SWIDTH 560 0
DWIDTH 14 0
BBX 12 18 1 0
BITMAP
0F80
1FC0
30E0
7060
6060
6000
E000
CF80
DFC0
F0E0
E070
E070
C030
E070
6060
70E0
3FC0
0F00
ENDCHAR
STARTCHAR 0037
ENCODING 55
SWIDTH 560 0
DWIDTH 14 0
BBX 12 18 1 0
BITMAP
FFF0
FFF0
0030
0060
00C0
00C0
0180
0300
0300
0600
0600
0E00
0C00
0C00
1C00
1800
1800
1800
ENDCHAR
STARTCHAR 0038
ENCODING 56
SWIDTH 560 0
DWIDTH 14 0
BBX 12 18 1 0
BITMAP
1F00
3FC0
70E0
6060
6060
6060
70E0
3FC0
3FC0
70E0
E060
C070
C030
C070
E060
70E0
3FC0
1F00
ENDCHAR
STARTCHAR 0039
ENCODING 57
SWIDTH 560 0
DWIDTH 14 0
BBX 12 18 1 0
BITMAP
1F00
3FC0
70C0
E060
C060
C070
C070
E070
70F0
7FF0
1F70
0060
0060
E060
60E0
71C0
3F80
1F00
ENDCHAR
STARTCHAR 003A
ENCODING 58
SWIDTH 280 0
DWIDTH 7 0
BBX 2 13 3 0
BITMAP
C0
C0
C0
00
00
00
00
00
00
00
C0
C0
C0
ENDCHAR
STARTCHAR 003B
ENCODING 59
SWIDTH 280 0
DWIDTH 7 0
BBX 2 17 3 -4
BITMAP
C0
C0
C0
00
00
00
00
00
00
00
C0
C0
C0
40
40
40
80
ENDCHAR
STARTCHAR 003C
ENCODING 60
SWIDTH 600 0
DWIDTH 15 0
BBX 12 12 1 0
BITMAP
0010
0070
03E0
0F00
3C00
F000
F000
3C00
0F80
03E0
0070
0010
ENDCHAR
STARTCHAR 003D
ENCODING 61
SWIDTH 600 0
DWIDTH 15 0
BBX 12 6 1 3
BITMAP
FFF0
FFF0
0000
0000
FFF0
FFF0
ENDCHAR
STARTCHAR 003E
ENCODING 62
SWIDTH 600 0
DWIDTH 15 0
BBX 12 12 1 0
BITMAP
C000
F000
3C00
0F80
03E0
0070
0070
03E0
0F80
3C00
F000
8000
ENDCHAR
STARTCHAR 003F
ENCODING 63
SWIDTH 560 0
DWIDTH 14 0
BBX 11 18 2 0
BITMAP
1F00
7FC0
61C0
C0E0
C0E0
C0E0
00C0
01C0
0380
0700
0E00
0C00
0C00
0000
0000
0C00
0C00
0C00
ENDCHAR
STARTCHAR 0040
ENCODING 64
SWIDTH 1000 0
DWIDTH 25 0
BBX 23 22 1 -4
BITMAP
007F00
03FFC0
0781E0
0E0078
180038
30181C
707DCC
60C78E
E18386
C38386
C30306
C3030C
C3070C
C30618
E38E38
61F7F0
7041C0
380000
1C0000
0F0100
07FF80
00FE00
ENDCHAR
STARTCHAR 0041
ENCODING 65
SWIDTH 680 0
DWIDTH 17 0
BBX 15 18 1 0
BITMAP
0380
0780
07C0
06C0
0EE0
0CE0
0C60
1C70
1870
3830
3838
3FF8
7FF8
701C
601C
E00C
C00E
C006
ENDCHAR
STARTCHAR 0042
ENCODING 66
SWIDTH 680 0
DWIDTH 17 0
BBX 14 18 2 0
BITMAP
FFC0
FFF0
C070
C038
C038
C038
C030
C070
FFE0
FFF0
C038
C018
C01C
C01C
C018
C038
FFF0
FFE0
ENDCHAR
STARTCHAR 0043
ENCODING 67
SWIDTH 720 0
DWIDTH 18 0
BBX 16 18 1 0
BITMAP
03F0
0FF8
1C1C
300E
7006
6007
6000
E000
E000
E000
E000
E007
6007
7006
380E
3C1C
1FF8
07F0
ENDCHAR
STARTCHAR 0044
ENCODING 68
SWIDTH 720 0
DWIDTH 18 0
BBX 15 18 2 0
BITMAP
FFC0
FFF0
E078
E018
E01C
E00C
E00C
E00E
E00E
E00E
E00E
E00C
E00C
E01C
E018
E078
FFF0
FFC0
ENDCHAR
STARTCHAR 0045
ENCODING 69
SWIDTH 680 0
DWIDTH 17 0
BBX 13 18 2 0
BITMAP
FFF8
FFF8
E000
E000
E000
E000
E000
E000
FFF0
FFF0
E000
E000
E000
E000
E000
E000
FFF8
FFF8
ENDCHAR
STARTCHAR 0046
ENCODING 70
SWIDTH 600 0
DWIDTH 15 0
BBX 12 18 2 0
BITMAP
FFF0
FFF0
E000
E000
E000
E000
E000
E000
FFE0
FFE0
E000
E000
E000
E000
E000
E000
E000
E000
ENDCHAR
STARTCHAR 0047
ENCODING 71
SWIDTH 760 0
DWIDTH 19 0
BBX 17 18 1 0
BITMAP
03F000
0FFC00
1C1E00
380700
700300
600000
E00000
E00000
C07F80
C07F80
E00180
E00180
600380
700380
380780
1E1D80
0FF980
03E180
ENDCHAR
STARTCHAR 0048
ENCODING 72
SWIDTH 720 0
DWIDTH 18 0
BBX 14 18 2 0
BITMAP
C00C
C00C
C00C
C00C
C00C
C00C
C00C
C00C
FFFC
FFFC
C00C
C00C
C00C
C00C
C00C
C00C
C00C
C00C
ENDCHAR
STARTCHAR 0049
ENCODING 73
SWIDTH 280 0
DWIDTH 7 0
BBX 3 18 2 0
BITMAP
E0
E0
E0
E0
E0
E0
E0
E0
E0
E0
E0
E0
E0
E0
E0
E0
E0
E0
ENDCHAR
STARTCHAR 004A
ENCODING 74
SWIDTH 520 0
DWIDTH 13 0
BBX 11 18 0 0
BITMAP
00E0
00E0
00E0
00E0
00E0
00E0
00E0
00E0
00E0
00E0
00E0
00E0
E0E0
E0E0
60C0
71C0
3F80
1F00
ENDCHAR
STARTCHAR 004B
ENCODING 75
SWIDTH 680 0
DWIDTH 17 0
BBX 14 18 2 0
BITMAP
C01C
C038
C070
C0E0
C1C0
C380
C700
CE00
DF00
FB00
F380
E1C0
C0E0
C060
C070
C038
C018
C01C
ENDCHAR
STARTCHAR 004C
ENCODING 76
SWIDTH 560 0
DWIDTH 14 0
BBX 11 18 2 0
BITMAP
C000
C000
C000
C000
C000
C000
C000
C000
C000
C000
C000
C000
C000
C000
C000
C000
FFE0
FFE0
ENDCHAR
STARTCHAR 004D
ENCODING 77
SWIDTH 840 0
DWIDTH 21 0
BBX 17 18 2 0
BITMAP
E00380
F00780
F00780
F00780
D80D80
D80D80
D80D80
CC1980
CC1980
CC1980
C63180
C63180
C63180
C36180
C36180
C36180
C1C180
C1C180
ENDCHAR
STARTCHAR 004E
ENCODING 78
SWIDTH 720 0
DWIDTH 18 0
BBX 14 18 2 0
BITMAP
E00C
E00C
F00C
F80C
D80C
DC0C
CE0C
C60C
C70C
C38C
C18C
C1CC
C0EC
C06C
C07C
C03C
C01C
C01C
ENDCHAR
STARTCHAR 004F
ENCODING 79
SWIDTH 760 0
DWIDTH 19 0
BBX 18 18 1 0
BITMAP
03F000
0FFC00
3C1E00
380700
700380
600380
E00180
C00180
C001C0
C001C0
C00180
E00180
600180
700380
380700
3C1E00
0FFC00
03F000
ENDCHAR
STARTCHAR 0050
ENCODING 80
SWIDTH 680 0
DWIDTH 17 0
BBX 13 18 2 0
BITMAP
FFE0
FFF0
E078
E018
E018
E018
E018
E038
FFF0
FFE0
E000
E000
E000
E000
E000
E000
E000
E000
ENDCHAR
STARTCHAR 0051
ENCODING 81
SWIDTH 760 0
DWIDTH 19 0
BBX 18 18 1 -1
BITMAP
03F000
0FFC00
3C1E00
380700
700380
600380
E00180
C00180
C001C0
C001C0
C00180
E00180
600180
703300
381F00
3C1E00
0FFF00
03F380
ENDCHAR
STARTCHAR 0052
ENCODING 82
SWIDTH 720 0
DWIDTH 18 0
BBX 15 18 2 0
BITMAP
FFF0
FFF8
E01C
E00C
E00C
E00C
E00C
E018
FFF0
FFF8
E038
E01C
E00C
E00C
E00C
E00C
E00C
E00E
ENDCHAR
STARTCHAR 0053
ENCODING 83
SWIDTH 680 0
DWIDTH 17 0
BBX 15 18 1 0
BITMAP
0FC0
3FF0
3838
601C
600C
6000
7000
3E00
1FE0
03F8
003C
000C
C00E
E00C
600C
783C
3FF8
0FE0
ENDCHAR
STARTCHAR 0054
ENCODING 84
SWIDTH 600 0
DWIDTH 15 0
BBX 14 18 1 0
BITMAP
FFFC
FFFC
0300
0300
0300
0300
0300
0300
0300
0300
0300
0300
0300
0300
0300
0300
0300
0300
ENDCHAR
STARTCHAR 0055
ENCODING 85
SWIDTH 720 0
DWIDTH 18 0
BBX 14 18 2 0
BITMAP
C00C
C00C
C00C
C00C
C00C
C00C
C00C
C00C
C00C
C00C
C00C
C00C
C00C
E00C
601C
7838
3FF0
0FC0
ENDCHAR
STARTCHAR 0056
ENCODING 86
SWIDTH 680 0
DWIDTH 17 0
BBX 15 18 1 0
BITMAP
C00E
E00E
600C
601C
701C
3018
3838
3830
1830
1C70
0C60
0C60
0EE0
06C0
06C0
07C0
0380
0380
ENDCHAR
STARTCHAR 0057
ENCODING 87
SWIDTH 960 0
DWIDTH 24 0
BBX 22 18 1 0
BITMAP
C0701C
E0781C
E0781C
E07818
60D818
60DC38
70CC38
70CC30
318E30
318670
398670
1B8660
1B0760
1B0360
1F03C0
0E03C0
0E01C0
0E01C0
ENDCHAR
STARTCHAR 0058
ENCODING 88
SWIDTH 680 0
DWIDTH 17 0
BBX 15 18 1 0
BITMAP
E00E
701C
3038
3830
1C70
0CE0
0EC0
07C0
0380
0780
07C0
0EE0
1C60
1870
3838
7018
601C
E00E
ENDCHAR
STARTCHAR 0059
ENCODING 89
SWIDTH 680 0
DWIDTH 17 0
BBX 15 18 1 0
BITMAP
E00E
E00E
701C
3018
3838
1C70
1C60
0EE0
06C0
07C0
0380
0380
0380
0380
0380
0380
0380
0380
ENDCHAR
STARTCHAR 005A
ENCODING 90
SWIDTH 600 0
DWIDTH 15 0
BBX 14 18 1 0
BITMAP
FFFC
FFFC
0038
0030
0070
00E0
01C0
0380
0300
0700
0E00
1C00
3800
3800
7000
E000
FFFC
FFFC
ENDCHAR
STARTCHAR 005B
ENCODING 91
SWIDTH 280 0
DWIDTH 7 0
BBX 4 23 2 -5
BITMAP
F0
F0
C0
C0
C0
C0
C0
C0
C0
C0
C0
C0
C0
C0
C0
C0
C0
C0
C0
C0
C0
F0
F0
ENDCHAR
STARTCHAR 005C
ENCODING 92
SWIDTH 280 0
DWIDTH 7 0
BBX 7 18 0 0
BITMAP
80
C0
40
40
60
20
20
30
10
10
18
08
08
0C
04
04
06
02
ENDCHAR
STARTCHAR 005D
ENCODING 93
SWIDTH 280 0
DWIDTH 7 0
BBX 4 23 1 -5
BITMAP
F0
F0
30
30
30
30
30
30
30
30
30
30
30
30
30
30
30
30
30
30
30
F0
F0
ENDCHAR
STARTCHAR 005E
ENCODING 94
SWIDTH 480 0
DWIDTH 12 0
BBX 10 10 1 8
BITMAP
0C00
1C00
1E00
1600
3200
3300
6100
6180
4180
C0C0
ENDCHAR
STARTCHAR 005F
ENCODING 95
SWIDTH 560 0
DWIDTH 14 0
BBX 15 1 -1 -4
BITMAP
FFFE
ENDCHAR
STARTCHAR 0060
ENCODING 96
SWIDTH 320 0
DWIDTH 8 0
BBX 5 4 1 14
BITMAP
E0
60
30
18
ENDCHAR
STARTCHAR 0061
ENCODING 97
SWIDTH 560 0
DWIDTH 14 0
BBX 12 13 1 0
BITMAP
1F80
3FC0
70E0
6060
0060
03E0
3FE0
7060
C060
C0E0
E1E0
7F70
3E70
ENDCHAR
STARTCHAR 0062
ENCODING 98
SWIDTH 560 0
DWIDTH 14 0
BBX 12 18 1 0
BITMAP
C000
C000
C000
C000
C000
CF80
DFC0
F0E0
E070
E030
E030
C030
E030
E030
E070
F0E0
FFC0
CF80
ENDCHAR
STARTCHAR 0063
ENCODING 99
SWIDTH 520 0
DWIDTH 13 0
BBX 11 13 1 0
BITMAP
1F00
3FC0
71C0
E0E0
C000
C000
C000
C000
C060
E0E0
70C0
3FC0
1F00
ENDCHAR
STARTCHAR 0064
ENCODING 100
SWIDTH 560 0
DWIDTH 14 0
BBX 11 18 1 0
BITMAP
0060
0060
0060
0060
0060
1F60
3FE0
71E0
E0E0
C060
C060
C060
C060
C060
E060
70E0
7FA0
1F20
ENDCHAR
STARTCHAR 0065
ENCODING 101
SWIDTH 560 0
DWIDTH 14 0
BBX 12 13 1 0
BITMAP
0F80
3FC0
70E0
6060
C070
FFF0
FFF0
C000
C000
6060
70E0
3FC0
1F00
ENDCHAR
STARTCHAR 0066
ENCODING 102
SWIDTH 280 0
DWIDTH 7 0
BBX 6 18 0 0
BITMAP
1C
1C
30
30
30
FC
FC
30
30
30
30
30
30
30
30
30
30
30
ENDCHAR
STARTCHAR 0067
ENCODING 103
SWIDTH 560 0
DWIDTH 14 0
BBX 11 18 1 -5
BITMAP
1E60
3FE0
71E0
E0E0
C060
C060
C060
C060
C060
E0E0
71E0
3F60
1E60
0060
E0E0
60C0
3F80
1E00
ENDCHAR
STARTCHAR 0068
ENCODING 104
SWIDTH 560 0
DWIDTH 14 0
BBX 10 18 2 0
BITMAP
C000
C000
C000
C000
C000
CF00
FFC0
E1C0
C0C0
C0C0
C0C0
C0C0
C0C0
C0C0
C0C0
C0C0
C0C0
C0C0
ENDCHAR
STARTCHAR 0069
ENCODING 105
SWIDTH 240 0
DWIDTH 6 0
BBX 2 18 2 0
BITMAP
C0
C0
C0
00
00
C0
C0
C0
C0
C0
C0
C0
C0
C0
C0
C0
C0
C0
ENDCHAR
STARTCHAR 006A
ENCODING 106
SWIDTH 240 0
DWIDTH 6 0
BBX 4 24 0 -6
BITMAP
30
30
30
00
00
30
30
30
30
30
30
30
30
30
30
30
30
30
30
30
30
30
E0
C0
ENDCHAR
STARTCHAR 006B
ENCODING 107
SWIDTH 520 0
DWIDTH 13 0
BBX 11 18 1 0
BITMAP
E000
E000
E000
E000
E000
E0C0
E180
E300
E600
EC00
FE00
F600
E700
E380
E180
E1C0
E0E0
E060
ENDCHAR
STARTCHAR 006C
ENCODING 108
SWIDTH 240 0
DWIDTH 6 0
BBX 2 18 2 0
BITMAP
C0
C0
C0
C0
C0
C0
C0
C0
C0
C0
C0
C0
C0
C0
C0
C0
C0
C0
ENDCHAR
STARTCHAR 006D
ENCODING 109
SWIDTH 840 0
DWIDTH 21 0
BBX 17 13 2 0
BITMAP
DF1F00
FFBF80
E1E380
C1C180
C1C180
C18180
C18180
C18180
C18180
C18180
C18180
C18180
C18180
ENDCHAR
STARTCHAR 006E
ENCODING 110
SWIDTH 560 0
DWIDTH 14 0
BBX 10 13 2 0
BITMAP
DF00
FFC0
E1C0
C0C0
C0C0
C0C0
C0C0
C0C0
C0C0
C0C0
C0C0
C0C0
C0C0
ENDCHAR
STARTCHAR 006F
ENCODING 111
SWIDTH 560 0
DWIDTH 14 0
BBX 12 13 1 0
BITMAP
1F00
3FC0
70E0
E060
C070
C070
C030
C030
C070
E060
70E0
3FC0
1F00
ENDCHAR
STARTCHAR 0070
ENCODING 112
SWIDTH 560 0
DWIDTH 14 0
BBX 12 18 1 -5
BITMAP
CF80
DFC0
F0E0
E070
E030
E030
C030
E030
E030
E070
F0E0
DFC0
CF80
C000
C000
C000
C000
C000
ENDCHAR
STARTCHAR 0071
ENCODING 113
SWIDTH 560 0
DWIDTH 14 0
BBX 11 18 1 -6
BITMAP
1F20
3FA0
71E0
E0E0
C060
C060
C060
C060
C060
E060
70E0
7FE0
1F60
0060
0060
0060
0060
0060
ENDCHAR
STARTCHAR 0072
ENCODING 114
SWIDTH 320 0
DWIDTH 8 0
BBX 6 13 2 0
BITMAP
CC
DC
E0
C0
C0
C0
C0
C0
C0
C0
C0
C0
C0
ENDCHAR
STARTCHAR 0073
ENCODING 115
SWIDTH 520 0
DWIDTH 13 0
BBX 10 13 1 0
BITMAP
1F00
7F80
E1C0
C0C0
E000
7800
3F80
03C0
00C0
C0C0
E0C0
7F80
3F00
ENDCHAR
STARTCHAR 0074
ENCODING 116
SWIDTH 280 0
DWIDTH 7 0
BBX 6 17 0 0
BITMAP
30
30
30
30
FC
FC
30
30
30
30
30
30
30
30
30
3C
1C
ENDCHAR
STARTCHAR 0075
ENCODING 117
SWIDTH 560 0
DWIDTH 14 0
BBX 10 13 2 -1
BITMAP
C0C0
C0C0
C0C0
C0C0
C0C0
C0C0
C0C0
C0C0
C0C0
C1C0
C1C0
FFC0
7EC0
ENDCHAR
STARTCHAR 0076
ENCODING 118
SWIDTH 520 0
DWIDTH 13 0
BBX 12 13 0 0
BITMAP
E030
6070
6060
7060
30C0
30C0
18C0
1980
1980
0F00
0F00
0F00
0600
ENDCHAR
STARTCHAR 0077
ENCODING 119
SWIDTH 720 0
DWIDTH 18 0
BBX 18 13 0 0
BITMAP
E1C1C0
61E180
61E180
61E380
736300
337300
333300
333600
1A3600
1E1E00
1E1E00
1E1C00
0C1C00
ENDCHAR
STARTCHAR 0078
ENCODING 120
SWIDTH 520 0
DWIDTH 13 0
BBX 10 13 1 0
BITMAP
C0C0
61C0
7180
3300
1F00
1E00
0C00
1E00
1F00
3300
6180
E1C0
C0C0
ENDCHAR
STARTCHAR 0079
ENCODING 121
SWIDTH 520 0
DWIDTH 13 0
BBX 11 18 1 -5
BITMAP
C0E0
C0C0
E0C0
61C0
6180
7180
3300
3300
3B00
1E00
1E00
1E00
0C00
0C00
1800
1800
F800
F000
ENDCHAR
STARTCHAR 007A
ENCODING 122
SWIDTH 520 0
DWIDTH 13 0
BBX 10 13 1 0
BITMAP
FFC0
FFC0
01C0
0380
0700
0600
0C00
1800
3800
7000
E000
FFC0
FFC0
ENDCHAR
STARTCHAR 007B
ENCODING 123
SWIDTH 320 0
DWIDTH 8 0
BBX 6 24 1 -6
BITMAP
1C
3C
30
30
30
30
30
30
30
30
60
C0
E0
30
30
30
30
30
30
30
30
30
1C
04
ENDCHAR
STARTCHAR 007C
ENCODING 124
SWIDTH 280 0
DWIDTH 7 0
BBX 2 24 2 -6
BITMAP
C0
C0
C0
C0
C0
C0
C0
C0
C0
C0
C0
C0
C0
C0
C0
C0
C0
C0
C0
C0
C0
C0
C0
C0
ENDCHAR
STARTCHAR 007D
ENCODING 125
SWIDTH 320 0
DWIDTH 8 0
BBX 6 24 1 -6
BITMAP
E0
E0
30
30
30
30
30
30
30
30
38
1C
1C
30
30
30
30
30
30
30
30
70
E0
80
ENDCHAR
STARTCHAR 007E
ENCODING 126
SWIDTH 600 0
DWIDTH 15 0
BBX 11 4 2 7
BITMAP
7000
FC60
87C0
03C0
ENDCHAR
STARTCHAR 00A0
ENCODING 160
SWIDTH 280 0
DWIDTH 7 0
BBX 0 0 0 0
BITMAP
ENDCHAR
STARTCHAR 00A1
ENCODING 161
SWIDTH 320 0
DWIDTH 8 0
BBX 2 18 3 -5
BITMAP
C0
C0
C0
00
40
C0
C0
C0
C0
C0
C0
C0
C0
C0
C0
C0
C0
C0
ENDCHAR
STARTCHAR 00A2
ENCODING 162
SWIDTH 560 0
DWIDTH 14 0
BBX 12 19 1 -3
BITMAP
0200
0200
0200
1FC0
3FE0
7260
6270
6200
E200
C200
E200
E200
6270
7260
3AE0
1FC0
0600
0200
0200
ENDCHAR
STARTCHAR 00A3
ENCODING 163
SWIDTH 560 0
DWIDTH 14 0
BBX 12 18 1 0
BITMAP
0F80
3FC0
70E0
6070
E070
E030
6000
6000
3000
FF00
1800
1800
1800
1000
3000
7F30
FFF0
43E0
ENDCHAR
STARTCHAR 00A4
ENCODING 164
SWIDTH 560 0
DWIDTH 14 0
BBX 10 9 2 4
BITMAP
DEC0
7FC0
6380
C180
C080
C180
6180
7F80
DEC0
ENDCHAR
STARTCHAR 00A5
ENCODING 165
SWIDTH 560 0
DWIDTH 14 0
BBX 13 18 0 0
BITMAP
E018
6018
3030
3030
1860
1860
0CC0
0780
0780
3FF0
0300
0300
3FF0
0300
0300
0300
0300
0300
ENDCHAR
STARTCHAR 00A6
ENCODING 166
SWIDTH 280 0
DWIDTH 7 0
BBX 2 24 2 -6
BITMAP
C0
C0
C0
C0
C0
C0
C0
C0
C0
C0
00
00
00
C0
C0
C0
C0
C0
C0
C0
C0
C0
C0
C0
ENDCHAR
STARTCHAR 00A7
ENCODING 167
SWIDTH 560 0
DWIDTH 14 0
BBX 12 23 1 -5
BITMAP
0F00
1FC0
38C0
30E0
3060
3800
1C00
7F00
43C0
C1E0
C0E0
E070
7030
3C20
1E60
07C0
0380
01C0
60C0
60C0
71C0
3F80
1F00
ENDCHAR
STARTCHAR 00A8
ENCODING 168
SWIDTH 320 0
DWIDTH 8 0
BBX 6 3 1 15
BITMAP
CC
CC
CC
ENDCHAR
STARTCHAR 00A9
ENCODING 169
SWIDTH 720 0
DWIDTH 18 0
BBX 19 18 0 0
BITMAP
03F000
0FFE00
180700
304380
63F1C0
C318C0
C60840
C40060
840060
840060
C40C60
C60840
C718C0
63F0C0
304180
180700
0FFC00
03F000
ENDCHAR
STARTCHAR 00AA
ENCODING 170
SWIDTH 360 0
DWIDTH 9 0
BBX 7 11 1 7
BITMAP
7C
EC
C4
1C
E4
84
CE
FE
00
00
FE
ENDCHAR
STARTCHAR 00AB
ENCODING 171
SWIDTH 560 0
DWIDTH 14 0
BBX 9 7 2 4
BITMAP
3080
7380
E300
C200
6300
3180
1080
ENDCHAR
STARTCHAR 00AC
ENCODING 172
SWIDTH 600 0
DWIDTH 15 0
BBX 13 7 1 2
BITMAP
FFF8
FFF8
0018
0018
0018
0018
0018
ENDCHAR
STARTCHAR 00AD
ENCODING 173
SWIDTH 320 0
DWIDTH 8 0
BBX 6 2 1 6
BITMAP
FC
FC
ENDCHAR
STARTCHAR 00AE
ENCODING 174
SWIDTH 720 0
DWIDTH 18 0
BBX 19 18 0 0
BITMAP
03F800
0FFE00
180700
37E180
67F8C0
C60CC0
C60C40
C60C60
87F860
87F860
C61860
C60840
C60CC0
660CC0
300180
180700
0FFC00
03F000
ENDCHAR
STARTCHAR 00AF
ENCODING 175
SWIDTH 320 0
DWIDTH 8 0
BBX 7 2 1 16
BITMAP
FE
FE
ENDCHAR
STARTCHAR 00B0
ENCODING 176
SWIDTH 400 0
DWIDTH 10 0
BBX 8 7 1 10
BITMAP
3C
7E
C3
C3
C3
66
7C
ENDCHAR
STARTCHAR 00B1
ENCODING 177
SWIDTH 600 0
DWIDTH 15 0
BBX 12 16 1 0
BITMAP
0600
0600
0600
0600
0600
FFF0
FFF0
0600
0600
0600
0600
0600
0000
0000
FFF0
FFF0
ENDCHAR
STARTCHAR 00B2
ENCODING 178
SWIDTH 320 0
DWIDTH 8 0
BBX 8 11 0 7
BITMAP
3C
76
43
43
03
06
1C
30
60
C0
FF
ENDCHAR
STARTCHAR 00B3
ENCODING 179
SWIDTH 320 0
DWIDTH 8 0
BBX 8 11 0 7
BITMAP
3C
6E
42
C2
0E
1E
03
C3
C3
66
3C
ENDCHAR
STARTCHAR 00B4
ENCODING 180
SWIDTH 320 0
DWIDTH 8 0
BBX 5 4 2 14
BITMAP
38
30
60
C0
ENDCHAR
STARTCHAR 00B5
ENCODING 181
SWIDTH 560 0
DWIDTH 14 0
BBX 12 18 2 -5
BITMAP
C0C0
C0C0
C0C0
C0C0
C0C0
C0C0
C0C0
C0C0
C0C0
C1C0
C1C0
FFF0
FC70
C000
C000
C000
C000
C000
ENDCHAR
STARTCHAR 00B6
ENCODING 182
SWIDTH 520 0
DWIDTH 13 0
BBX 12 23 1 -5
BITMAP
0FF0
3FF0
7E60
7E60
FE60
FE60
FE60
FE60
7E60
7E60
3E60
0E60
0660
0660
0660
0660
0660
0660
0660
0660
0660
0660
0660
ENDCHAR
STARTCHAR 00B7
ENCODING 183
SWIDTH 280 0
DWIDTH 7 0
BBX 2 3 3 5
BITMAP
C0
C0
C0
ENDCHAR
STARTCHAR 00B8
ENCODING 184
SWIDTH 320 0
DWIDTH 8 0
BBX 6 5 1 -5
BITMAP
10
38
0C
8C
78
ENDCHAR
STARTCHAR 00B9
ENCODING 185
SWIDTH 320 0
DWIDTH 8 0
BBX 4 11 1 7
BITMAP
10
10
F0
F0
10
10
10
10
10
10
10
ENDCHAR
STARTCHAR 00BA
ENCODING 186
SWIDTH 360 0
DWIDTH 9 0
BBX 7 11 1 7
BITMAP
3C
6E
C6
82
82
C6
C6
7C
00
00
FE
ENDCHAR
STARTCHAR 00BB
ENCODING 187
SWIDTH 560 0
DWIDTH 14 0
BBX 9 8 2 3
BITMAP
8400
C600
7380
3180
1080
7380
E700
C600
ENDCHAR
STARTCHAR 00BC
ENCODING 188
SWIDTH 840 0
DWIDTH 21 0
BBX 19 18 1 0
BITMAP
300200
700600
F00C00
300800
301800
301000
302000
3060C0
3041C0
30C1C0
0082C0
0106C0
030CC0
0218C0
061FE0
0C00C0
0800C0
1800C0
ENDCHAR
STARTCHAR 00BD
ENCODING 189
SWIDTH 840 0
DWIDTH 21 0
BBX 19 18 1 0
BITMAP
300600
300400
F00800
301800
301000
303000
306000
3047C0
30CEE0
308C60
310820
030060
0201C0
060300
0C0600
080C00
180FE0
100FE0
ENDCHAR
STARTCHAR 00BE
ENCODING 190
SWIDTH 840 0
DWIDTH 21 0
BBX 19 18 1 0
BITMAP
7C0100
EE0200
C60600
860400
1C0C00
1C1800
061000
8230C0
8221C0
C641C0
7CC2C0
0086C0
010CC0
0318C0
021FE0
0600C0
0400C0
0800C0
ENDCHAR
STARTCHAR 00BF
ENCODING 191
SWIDTH 600 0
DWIDTH 15 0
BBX 11 18 2 -5
BITMAP
0600
0600
0600
0000
0000
0600
0600
0E00
1C00
3800
7000
6000
E060
E060
E060
70E0
3FC0
1F00
ENDCHAR
STARTCHAR 00C0
ENCODING 192
SWIDTH 680 0
DWIDTH 17 0
BBX 15 23 1 0
BITMAP
0E00
0700
0300
0000
0000
0380
0780
07C0
06C0
0EE0
0CE0
0C60
1C70
1870
3830
3838
3FF8
7FF8
701C
601C
E00C
C00E
C006
ENDCHAR
STARTCHAR 00C1
ENCODING 193
SWIDTH 680 0
DWIDTH 17 0
BBX 15 23 1 0
BITMAP
00E0
0180
0300
0000
0000
0380
0780
07C0
06C0
0EE0
0CE0
0C60
1C70
1870
3830
3838
3FF8
7FF8
701C
601C
E00C
C00E
C006
ENDCHAR
STARTCHAR 00C2
ENCODING 194
SWIDTH 680 0
DWIDTH 17 0
BBX 15 23 1 0
BITMAP
0380
06C0
0C40
0000
0000
0380
0780
07C0
06C0
0EE0
0CE0
0C60
1C70
1870
3830
3838
3FF8
7FF8
701C
601C
E00C
C00E
C006
ENDCHAR
STARTCHAR 00C3
ENCODING 195
SWIDTH 680 0
DWIDTH 17 0
BBX 15 23 1 0
BITMAP
0420
0FE0
09C0
0000
0000
0380
0780
07C0
06C0
0EE0
0CE0
0C60
1C70
1870
3830
3838
3FF8
7FF8
701C
601C
E00C
C00E
C006
ENDCHAR
STARTCHAR 00C4
ENCODING 196
SWIDTH 680 0
DWIDTH 17 0
BBX 15 23 1 0
BITMAP
0EE0
0EE0
0EE0
0000
0000
0380
0780
07C0
06C0
0EE0
0CE0
0C60
1C70
1870
3830
3838
3FF8
7FF8
701C
601C
E00C
C00E
C006
ENDCHAR
STARTCHAR 00C5
ENCODING 197
SWIDTH 680 0
DWIDTH 17 0
BBX 15 24 1 0
BITMAP
0380
0680
04C0
0680
0380
0000
0380
0780
07C0
06C0
0EE0
0CE0
0C60
1C70
1870
3830
3838
3FF8
7FF8
701C
601C
E00C
C00E
C006
ENDCHAR
STARTCHAR 00C6
ENCODING 198
SWIDTH 1000 0
DWIDTH 25 0
BBX 24 18 0 0
BITMAP
00FFFE
01FFFE
018C00
038C00
030C00
070C00
060C00
060C00
0E0FFE
0C0FFE
1C0C00
1FFC00
1FFC00
380C00
300C00
700C00
600FFF
E00FFF
ENDCHAR
STARTCHAR 00C7
ENCODING 199
SWIDTH 720 0
DWIDTH 18 0
BBX 16 23 1 -5
BITMAP
03F0
0FF8
1C1C
380E
7006
6007
6000
E000
E000
E000
E000
E003
6007
7006
300E
3C1E
1FFC
07F0
0100
01C0
0060
0460
07C0
ENDCHAR
STARTCHAR 00C8
ENCODING 200
SWIDTH 680 0
DWIDTH 17 0
BBX 13 23 2 0
BITMAP
0C00
0600
0300
0000
0000
FFF8
FFF8
E000
E000
E000
E000
E000
E000
FFF0
FFF0
E000
E000
E000
E000
E000
E000
FFF8
FFF8
ENDCHAR
STARTCHAR 00C9
ENCODING 201
SWIDTH 680 0
DWIDTH 17 0
BBX 13 23 2 0
BITMAP
0180
0300
0600
0000
0000
FFF8
FFF8
E000
E000
E000
E000
E000
E000
FFF0
FFF0
E000
E000
E000
E000
E000
E000
FFF8
FFF8
ENDCHAR
STARTCHAR 00CA
ENCODING 202
SWIDTH 680 0
DWIDTH 17 0
BBX 13 23 2 0
BITMAP
0700
0D80
08C0
0000
0000
FFF8
FFF8
E000
E000
E000
E000
E000
E000
FFF0
FFF0
E000
E000
E000
E000
E000
E000
FFF8
FFF8
ENDCHAR
STARTCHAR 00CB
ENCODING 203
SWIDTH 680 0
DWIDTH 17 0
BBX 13 23 2 0
BITMAP
1DC0
1DC0
1DC0
0000
0000
FFF8
FFF8
E000
E000
E000
E000
E000
E000
FFF0
FFF0
E000
E000
E000
E000
E000
E000
FFF8
FFF8
ENDCHAR
STARTCHAR 00CC
ENCODING 204
SWIDTH 280 0
DWIDTH 7 0
BBX 4 23 1 0
BITMAP
C0
60
30
00
00
70
70
70
70
70
70
70
70
70
70
70
70
70
70
70
70
70
70
ENDCHAR
STARTCHAR 00CD
ENCODING 205
SWIDTH 280 0
DWIDTH 7 0
BBX 4 23 2 0
BITMAP
30
60
C0
00
00
E0
E0
E0
E0
E0
E0
E0
E0
E0
E0
E0
E0
E0
E0
E0
E0
E0
E0
ENDCHAR
STARTCHAR 00CE
ENCODING 206
SWIDTH 280 0
DWIDTH 7 0
BBX 7 23 0 0
BITMAP
38
6C
46
80
00
38
38
38
38
38
38
38
38
38
38
38
38
38
38
38
38
38
38
ENDCHAR
STARTCHAR 00CF
ENCODING 207
SWIDTH 280 0
DWIDTH 7 0
BBX 7 23 0 0
BITMAP
EE
EE
EE
00
00
38
38
38
38
38
38
38
38
38
38
38
38
38
38
38
38
38
38
ENDCHAR
STARTCHAR 00D0
ENCODING 208
SWIDTH 720 0
DWIDTH 18 0
BBX 17 18 0 0
BITMAP
3FF000
3FFC00
381E00
380600
380700
380300
380300
380380
FF8380
FF8380
380380
380300
380300
380700
380600
381E00
3FFC00
3FF000
ENDCHAR
STARTCHAR 00D1
ENCODING 209
SWIDTH 720 0
DWIDTH 18 0
BBX 14 23 2 0
BITMAP
0420
0FE0
19C0
0000
0000
E00C
E00C
F00C
F80C
D80C
DC0C
CE0C
C60C
C70C
C38C
C18C
C1CC
C0EC
C06C
C07C
C03C
C03C
C01C
ENDCHAR
STARTCHAR 00D2
ENCODING 210
SWIDTH 760 0
DWIDTH 19 0
BBX 18 23 1 0
BITMAP
030000
018000
00C000
004000
000000
03F000
0FFC00
3C1E00
380700
700380
600380
E00180
C00180
C001C0
C001C0
C00180
E00180
600180
700380
380700
3C1E00
0FFC00
03F000
ENDCHAR
STARTCHAR 00D3
ENCODING 211
SWIDTH 760 0
DWIDTH 19 0
BBX 18 23 1 0
BITMAP
007000
006000
00C000
018000
000000
03F000
0FFC00
3C1E00
380700
700380
600380
E00180
C00180
C001C0
C001C0
C00180
E00180
600180
700380
380700
3C1E00
0FFC00
03F000
ENDCHAR
STARTCHAR 00D4
ENCODING 212
SWIDTH 760 0
DWIDTH 19 0
BBX 18 23 1 0
BITMAP
01C000
01E000
033000
063000
000000
03F000
0FFC00
3C1E00
380700
700380
600380
E00180
C00180
C001C0
C001C0
C00180
E00180
600180
700380
380700
3C1E00
0FFC00
03F000
ENDCHAR
STARTCHAR 00D5
ENCODING 213
SWIDTH 760 0
DWIDTH 19 0
BBX 18 23 1 0
BITMAP
031800
07F000
067000
000000
000000
03F000
0FFC00
3C1E00
380700
700380
600380
E00180
C00180
C001C0
C001C0
C00180
E00180
600180
700380
380700
3C1E00
0FFC00
03F000
ENDCHAR
STARTCHAR 00D6
ENCODING 214
SWIDTH 760 0
DWIDTH 19 0
BBX 18 23 1 0
BITMAP
077000
077000
077000
000000
000000
03F000
0FFC00
3C1E00
380700
700380
600380
E00180
C00180
C001C0
C001C0
C00180
E00180
600180
700380
380700
3C1E00
0FFC00
03F000
ENDCHAR
STARTCHAR 00D7
ENCODING 215
SWIDTH 600 0
DWIDTH 15 0
BBX 10 10 2 1
BITMAP
4000
E0C0
7180
3B00
1E00
0E00
1F00
3380
61C0
40C0
ENDCHAR
STARTCHAR 00D8
ENCODING 216
SWIDTH 760 0
DWIDTH 19 0
BBX 18 18 1 0
BITMAP
03F0C0
0FFD80
3C1F00
300700
700F00
E01B80
E03180
C06180
C0C180
C18180
C30180
E60180
EC0380
780300
300700
7C1E00
CFFC00
87F000
ENDCHAR
STARTCHAR 00D9
ENCODING 217
SWIDTH 720 0
DWIDTH 18 0
BBX 14 23 2 0
BITMAP
0E00
0600
0300
0000
0000
C00C
C00C
C00C
C00C
C00C
C00C
C00C
C00C
C00C
C00C
C00C
C00C
C00C
E00C
601C
7838
3FF0
0FC0
ENDCHAR
STARTCHAR 00DA
ENCODING 218
SWIDTH 720 0
DWIDTH 18 0
BBX 14 23 2 0
BITMAP
01C0
0180
0300
0000
0000
C00C
C00C
C00C
C00C
C00C
C00C
C00C
C00C
C00C
C00C
C00C
C00C
C00C
E00C
601C
7838
3FF0
0FC0
ENDCHAR
STARTCHAR 00DB
ENCODING 219
SWIDTH 720 0
DWIDTH 18 0
BBX 14 23 2 0
BITMAP
0780
0780
0CC0
0000
0000
C00C
C00C
C00C
C00C
C00C
C00C
C00C
C00C
C00C
C00C
C00C
C00C
C00C
E00C
601C
7838
3FF0
0FC0
ENDCHAR
STARTCHAR 00DC
ENCODING 220
SWIDTH 720 0
DWIDTH 18 0
BBX 14 23 2 0
BITMAP
0CC0
0CC0
0CC0
0000
0000
C00C
C00C
C00C
C00C
C00C
C00C
C00C
C00C
C00C
C00C
C00C
C00C
C00C
E00C
601C
7838
3FF0
0FC0
ENDCHAR
STARTCHAR 00DD
ENCODING 221
SWIDTH 680 0
DWIDTH 17 0
BBX 15 23 1 0
BITMAP
00C0
0180
0300
0000
0000
E00E
E00E
701C
3018
3838
1C70
1C60
0EE0
06C0
07C0
0380
0380
0380
0380
0380
0380
0380
0380
ENDCHAR
STARTCHAR 00DE
ENCODING 222
SWIDTH 680 0
DWIDTH 17 0
BBX 13 18 2 0
BITMAP
E000
E000
E000
FFE0
FFF0
E038
E018
E018
E018
E018
E038
FFF0
FFE0
E000
E000
E000
E000
E000
ENDCHAR
STARTCHAR 00DF
ENCODING 223
SWIDTH 600 0
DWIDTH 15 0
BBX 12 18 2 0
BITMAP
1F00
7FC0
E0E0
C060
C060
C060
C0C0
C780
C7C0
C0E0
C070
C030
C030
C030
C060
C0E0
CFC0
CF00
ENDCHAR
STARTCHAR 00E0
ENCODING 224
SWIDTH 560 0
DWIDTH 14 0
BBX 12 18 1 0
BITMAP
1C00
0C00
0600
0300
0000
1F80
3FC0
70E0
6060
0060
03E0
3FE0
7060
C060
C0E0
E1E0
7F70
3E70
ENDCHAR
STARTCHAR 00E1
ENCODING 225
SWIDTH 560 0
DWIDTH 14 0
BBX 12 18 1 0
BITMAP
0380
0300
0600
0C00
0000
1F80
3FC0
70E0
6060
0060
03E0
3FE0
7060
C060
C0E0
E1E0
7F70
3E70
ENDCHAR
STARTCHAR 00E2
ENCODING 226
SWIDTH 560 0
DWIDTH 14 0
BBX 12 18 1 0
BITMAP
0E00
0F00
1980
3080
0000
1F80
3FC0
70E0
6060
0060
03E0
3FE0
7060
C060
C0E0
E1E0
7F70
3E70
ENDCHAR
STARTCHAR 00E3
ENCODING 227
SWIDTH 560 0
DWIDTH 14 0
BBX 12 18 1 0
BITMAP
1CC0
3F80
2100
0000
0000
1F80
3FC0
70E0
6060
0060
03E0
3FE0
7060
C060
C0E0
E1E0
7F70
3E70
ENDCHAR
STARTCHAR 00E4
ENCODING 228
SWIDTH 560 0
DWIDTH 14 0
BBX 12 18 1 0
BITMAP
3980
3980
3980
0000
0000
1F80
3FC0
70E0
6060
0060
03E0
3FE0
7060
C060
C0E0
E1E0
7F70
3E70
ENDCHAR
STARTCHAR 00E5
ENCODING 229
SWIDTH 560 0
DWIDTH 14 0
BBX 12 18 1 0
BITMAP
0E00
0900
0900
0E00
0000
1F80
3FC0
70E0
6060
0060
03E0
3FE0
7060
C060
C0E0
E1E0
7F70
3E70
ENDCHAR
STARTCHAR 00E6
ENCODING 230
SWIDTH 880 0
DWIDTH 22 0
BBX 20 13 1 0
BITMAP
1F0F80
7FFFC0
60F0E0
E0E070
00E030
07FFF0
7F7FF0
F06000
C06010
C0E070
E1B0E0
7F3FC0
3C0F80
ENDCHAR
STARTCHAR 00E7
ENCODING 231
SWIDTH 520 0
DWIDTH 13 0
BBX 11 18 1 -5
BITMAP
1F00
3FC0
71C0
E0E0
C060
C000
C000
C000
C060
E060
60C0
7FC0
1F80
0800
0E00
0300
2300
3E00
ENDCHAR
STARTCHAR 00E8
ENCODING 232
SWIDTH 560 0
DWIDTH 14 0
BBX 12 18 1 0
BITMAP
1C00
0C00
0600
0300
0000
0F80
3FC0
70E0
6060
C070
FFF0
FFF0
C000
C000
6060
70E0
3FC0
1F00
ENDCHAR
STARTCHAR 00E9
ENCODING 233
SWIDTH 560 0
DWIDTH 14 0
BBX 12 18 1 0
BITMAP
0380
0300
0600
0C00
0000
0F80
3FC0
70E0
6060
C070
FFF0
FFF0
C000
C000
6060
70E0
3FC0
1F00
ENDCHAR
STARTCHAR 00EA
ENCODING 234
SWIDTH 560 0
DWIDTH 14 0
BBX 12 18 1 0
BITMAP
0700
0F00
1980
10C0
0000
0F80
3FC0
70E0
6060
C070
FFF0
FFF0
C000
C000
6060
70E0
3FC0
1F00
ENDCHAR
STARTCHAR 00EB
ENCODING 235
SWIDTH 560 0
DWIDTH 14 0
BBX 12 18 1 0
BITMAP
1980
1980
1980
0000
0000
0F80
3FC0
70E0
6060
C070
FFF0
FFF0
C000
C000
6060
70E0
3FC0
1F00
ENDCHAR
STARTCHAR 00EC
ENCODING 236
SWIDTH 280 0
DWIDTH 7 0
BBX 5 18 0 0
BITMAP
E0
70
10
08
00
30
30
30
30
30
30
30
30
30
30
30
30
30
ENDCHAR
STARTCHAR 00ED
ENCODING 237
SWIDTH 280 0
DWIDTH 7 0
BBX 4 18 2 0
BITMAP
30
60
C0
00
00
C0
C0
C0
C0
C0
C0
C0
C0
C0
C0
C0
C0
C0
ENDCHAR
STARTCHAR 00EE
ENCODING 238
SWIDTH 280 0
DWIDTH 7 0
BBX 6 18 0 0
BITMAP
38
6C
C4
00
00
30
30
30
30
30
30
30
30
30
30
30
30
30
ENDCHAR
STARTCHAR 00EF
ENCODING 239
SWIDTH 280 0
DWIDTH 7 0
BBX 7 18 0 0
BITMAP
EE
EE
EE
00
00
30
30
30
30
30
30
30
30
30
30
30
30
30
ENDCHAR
STARTCHAR 00F0
ENCODING 240
SWIDTH 560 0
DWIDTH 14 0
BBX 12 18 1 0
BITMAP
2100
3F00
1E00
7700
0380
1FC0
3FC0
70E0
E060
C070
C070
C030
C030
C070
E060
70E0
3FC0
1F00
ENDCHAR
STARTCHAR 00F1
ENCODING 241
SWIDTH 560 0
DWIDTH 14 0
BBX 10 18 2 0
BITMAP
3980
7F00
6200
0000
0000
DF00
FFC0
E1C0
C0C0
C0C0
C0C0
C0C0
C0C0
C0C0
C0C0
C0C0
C0C0
C0C0
ENDCHAR
STARTCHAR 00F2
ENCODING 242
SWIDTH 560 0
DWIDTH 14 0
BBX 12 18 1 0
BITMAP
1800
0C00
0600
0200
0000
1F00
3FC0
70E0
E060
C070
C070
C030
C030
C070
E060
70E0
3FC0
1F00
ENDCHAR
STARTCHAR 00F3
ENCODING 243
SWIDTH 560 0
DWIDTH 14 0
BBX 12 18 1 0
BITMAP
0380
0700
0600
0C00
0000
1F00
3FC0
70E0
E060
C070
C070
C030
C030
C070
E060
70E0
3FC0
1F00
ENDCHAR
STARTCHAR 00F4
ENCODING 244
SWIDTH 560 0
DWIDTH 14 0
BBX 12 18 1 0
BITMAP
0E00
0F00
1980
3080
0000
1F00
3FC0
70E0
E060
C070
C070
C030
C030
C070
E060
70E0
3FC0
1F00
ENDCHAR
STARTCHAR 00F5
ENCODING 245
SWIDTH 560 0
DWIDTH 14 0
BBX 12 18 1 0
BITMAP
1CC0
3F80
2100
0000
0000
1F00
3FC0
70E0
E060
C070
C070
C030
C030
C070
E060
70E0
3FC0
1F00
ENDCHAR
STARTCHAR 00F6
ENCODING 246
SWIDTH 560 0
DWIDTH 14 0
BBX 12 18 1 0
BITMAP
3980
3980
3980
0000
0000
1F00
3FC0
70E0
E060
C070
C070
C030
C030
C070
E060
70E0
3FC0
1F00
ENDCHAR
STARTCHAR 00F7
ENCODING 247
SWIDTH 600 0
DWIDTH 15 0
BBX 12 12 1 0
BITMAP
0700
0700
0700
0000
0000
FFF0
FFF0
0000
0000
0700
0700
0700
ENDCHAR
STARTCHAR 00F8
ENCODING 248
SWIDTH 600 0
DWIDTH 15 0
BBX 13 13 0 0
BITMAP
0F88
1FF0
3870
7070
60F8
6198
6318
6618
6C38
7830
3870
7FE0
CF80
ENDCHAR
STARTCHAR 00F9
ENCODING 249
SWIDTH 560 0
DWIDTH 14 0
BBX 10 18 2 -1
BITMAP
3000
1800
0C00
0400
0000
C0C0
C0C0
C0C0
C0C0
C0C0
C0C0
C0C0
C0C0
C0C0
C1C0
C1C0
FFC0
7EC0
ENDCHAR
STARTCHAR 00FA
ENCODING 250
SWIDTH 560 0
DWIDTH 14 0
BBX 10 18 2 -1
BITMAP
0700
0E00
0C00
1800
0000
C0C0
C0C0
C0C0
C0C0
C0C0
C0C0
C0C0
C0C0
C0C0
C1C0
C1C0
FFC0
7EC0
ENDCHAR
STARTCHAR 00FB
ENCODING 251
SWIDTH 560 0
DWIDTH 14 0
BBX 10 18 2 -1
BITMAP
1C00
1E00
3300
6100
0000
C0C0
C0C0
C0C0
C0C0
C0C0
C0C0
C0C0
C0C0
C0C0
C1C0
C1C0
FFC0
7EC0
ENDCHAR
STARTCHAR 00FC
ENCODING 252
SWIDTH 560 0
DWIDTH 14 0
BBX 10 18 2 -1
BITMAP
3300
3300
3300
0000
0000
C0C0
C0C0
C0C0
C0C0
C0C0
C0C0
C0C0
C0C0
C0C0
C1C0
C1C0
FFC0
7EC0
ENDCHAR
STARTCHAR 00FD
ENCODING 253
SWIDTH 520 0
DWIDTH 13 0
BBX 11 23 1 -5
BITMAP
0700
0600
0C00
0000
0000
C0E0
C0C0
E0C0
61C0
6180
7180
3300
3300
3B00
1E00
1E00
1E00
0C00
0C00
1800
1800
F800
F000
ENDCHAR
STARTCHAR 00FE
ENCODING 254
SWIDTH 560 0
DWIDTH 14 0
BBX 12 22 1 -5
BITMAP
C000
C000
C000
C000
CF80
DFC0
F0E0
E070
E030
E030
C030
E030
E030
E070
F0E0
DFC0
CF80
C000
C000
C000
C000
C000
ENDCHAR
STARTCHAR 00FF
ENCODING 255
SWIDTH 520 0
DWIDTH 13 0
BBX 11 23 1 -5
BITMAP
3300
3300
3300
0000
0000
C0E0
C0C0
E0C0
61C0
6180
7180
3300
3300
3B00
1E00
1E00
1E00
0C00
0C00
1800
1800
F800
F000
ENDCHAR
STARTCHAR 0100
ENCODING 256
SWIDTH 680 0
DWIDTH 17 0
BBX 15 22 1 0
BITMAP
0FE0
0FE0
0000
0000
0380
0780
07C0
06C0
0EE0
0CE0
0C60
1C70
1870
3830
3838
3FF8
7FF8
701C
601C
E00C
C00E
C006
ENDCHAR
STARTCHAR 0101
ENCODING 257
SWIDTH 560 0
DWIDTH 14 0
BBX 12 17 1 0
BITMAP
3F80
3F80
0000
0000
1F80
3FC0
70E0
6060
0060
03E0
3FE0
7060
C060
C0E0
E1E0
7F70
3E70
ENDCHAR
STARTCHAR 0102
ENCODING 258
SWIDTH 680 0
DWIDTH 17 0
BBX 15 23 1 0
BITMAP
0860
0FE0
07C0
0000
0000
0380
0780
07C0
06C0
0EE0
0CE0
0C60
1C70
1870
3830
3838
3FF8
7FF8
701C
601C
E00C
C00E
C006
ENDCHAR
STARTCHAR 0103
ENCODING 259
SWIDTH 560 0
DWIDTH 14 0
BBX 12 18 1 0
BITMAP
30C0
3180
1F80
0600
0000
1F80
3FC0
70E0
6060
0060
03E0
3FE0
7060
C060
C0E0
E1E0
7F70
3E70
ENDCHAR
STARTCHAR 0104
ENCODING 260
SWIDTH 680 0
DWIDTH 17 0
BBX 16 23 1 -5
BITMAP
0380
0780
07C0
06C0
0EE0
0CE0
0C60
1C70
1870
3830
3838
3FF8
7FF8
701C
601C
E00C
C00E
C006
0004
0008
0018
0018
000F
ENDCHAR
STARTCHAR 0105
ENCODING 261
SWIDTH 560 0
DWIDTH 14 0
BBX 14 17 1 -4
BITMAP
1F80
3FC0
70E0
6060
0060
03E0
3FE0
7060
C060
C0E0
E1E0
7F70
3E70
0020
0060
0060
003C
ENDCHAR
STARTCHAR 0106
ENCODING 262
SWIDTH 720 0
DWIDTH 18 0
BBX 16 23 1 0
BITMAP
0070
00E0
00C0
0180
0000
03F0
0FF8
1C1C
300E
7006
6007
6000
E000
E000
E000
E000
E007
6007
7006
380E
3C1C
1FF8
07F0
ENDCHAR
STARTCHAR 0107
ENCODING 263
SWIDTH 520 0
DWIDTH 13 0
BBX 11 18 1 0
BITMAP
0380
0700
0600
0C00
0000
1F00
3FC0
71C0
E0E0
C000
C000
C000
C000
C060
E0E0
70C0
3FC0
1F00
ENDCHAR
STARTCHAR 0108
ENCODING 264
SWIDTH 720 0
DWIDTH 18 0
BBX 16 23 1 0
BITMAP
01C0
03C0
0260
0630
0000
03F0
0FF8
1C1C
300E
7006
6007
6000
E000
E000
E000
E000
E007
6007
7006
380E
3C1C
1FF8
07F0
ENDCHAR
STARTCHAR 0109
ENCODING 265
SWIDTH 520 0
DWIDTH 13 0
BBX 11 18 1 0
BITMAP
0E00
0F00
1900
3180
0000
1F00
3FC0
71C0
E0E0
C000
C000
C000
C000
C060
E0E0
70C0
3FC0
1F00
ENDCHAR
STARTCHAR 010A
ENCODING 266
SWIDTH 720 0
DWIDTH 18 0
BBX 16 23 1 0
BITMAP
01C0
01C0
01C0
0000
0000
03F0
0FF8
1C1C
300E
7006
6007
6000
E000
E000
E000
E000
E007
6007
7006
380E
3C1C
1FF8
07F0
ENDCHAR
STARTCHAR 010B
ENCODING 267
SWIDTH 520 0
DWIDTH 13 0
BBX 11 18 1 0
BITMAP
0E00
0E00
0E00
0000
0000
1F00
3FC0
71C0
E0E0
C000
C000
C000
C000
C060
E0E0
70C0
3FC0
1F00
ENDCHAR
STARTCHAR 010C
ENCODING 268
SWIDTH 720 0
DWIDTH 18 0
BBX 16 23 1 0
BITMAP
0630
0360
03E0
01C0
0000
03F0
0FF8
1C1C
300E
7006
6007
6000
E000
E000
E000
E000
E007
6007
7006
380E
3C1C
1FF8
07F0
ENDCHAR
STARTCHAR 010D
ENCODING 269
SWIDTH 520 0
DWIDTH 13 0
BBX 11 18 1 0
BITMAP
3180
1B00
0F00
0E00
0000
1F00
3FC0
71C0
E0E0
C000
C000
C000
C000
C060
E0E0
70C0
3FC0
1F00
ENDCHAR
STARTCHAR 010E
ENCODING 270
SWIDTH 720 0
DWIDTH 18 0
BBX 15 23 2 0
BITMAP
18C0
0D80
0700
0000
0000
FFC0
FFF0
E078
E018
E01C
E00C
E00C
E00E
E00E
E00E
E00E
E00C
E00C
E01C
E018
E078
FFF0
FFC0
ENDCHAR
STARTCHAR 010F
ENCODING 271
SWIDTH 640 0
DWIDTH 16 0
BBX 15 18 1 0
BITMAP
0066
0066
0062
0062
0062
1F64
3FE0
71E0
E0E0
C060
C060
C060
C060
C060
E060
70E0
7FA0
1F20
ENDCHAR
STARTCHAR 0110
ENCODING 272
SWIDTH 720 0
DWIDTH 18 0
BBX 17 18 0 0
BITMAP
3FF000
3FFC00
381E00
380600
380700
380300
380300
380380
FF8380
FF8380
380380
380300
380300
380700
380600
381E00
3FFC00
3FF000
ENDCHAR
STARTCHAR 0111
ENCODING 273
SWIDTH 560 0
DWIDTH 14 0
BBX 13 18 1 0
BITMAP
0060
0060
03F8
0060
0060
1F60
7FE0
71E0
E0E0
C060
C060
C060
C060
C060
E060
71E0
3FE0
1F60
ENDCHAR
STARTCHAR 0112
ENCODING 274
SWIDTH 680 0
DWIDTH 17 0
BBX 13 22 2 0
BITMAP
1FC0
1FC0
0000
0000
FFF8
FFF8
E000
E000
E000
E000
E000
E000
FFF0
FFF0
E000
E000
E000
E000
E000
E000
FFF8
FFF8
ENDCHAR
STARTCHAR 0113
ENCODING 275
SWIDTH 560 0
DWIDTH 14 0
BBX 12 17 1 0
BITMAP
1FC0
1FC0
0000
0000
0F80
3FC0
70E0
6060
C070
FFF0
FFF0
C000
C000
6060
70E0
3FC0
1F00
ENDCHAR
STARTCHAR 0114
ENCODING 276
SWIDTH 680 0
DWIDTH 17 0
BBX 13 23 2 0
BITMAP
1840
1FC0
0F80
0000
0000
FFF8
FFF8
E000
E000
E000
E000
E000
E000
FFF0
FFF0
E000
E000
E000
E000
E000
E000
FFF8
FFF8
ENDCHAR
STARTCHAR 0115
ENCODING 277
SWIDTH 560 0
DWIDTH 14 0
BBX 12 18 1 0
BITMAP
30C0
18C0
1F80
0700
0000
0F80
3FC0
70E0
6060
C070
FFF0
FFF0
C000
C000
6060
70E0
3FC0
1F00
ENDCHAR
STARTCHAR 0116
ENCODING 278
SWIDTH 680 0
DWIDTH 17 0
BBX 13 23 2 0
BITMAP
0700
0700
0700
0000
0000
FFF8
FFF8
E000
E000
E000
E000
E000
E000
FFF0
FFF0
E000
E000
E000
E000
E000
E000
FFF8
FFF8
ENDCHAR
STARTCHAR 0117
ENCODING 279
SWIDTH 560 0
DWIDTH 14 0
BBX 12 18 1 0
BITMAP
0600
0600
0600
0000
0000
0F80
3FC0
70E0
6060
C070
FFF0
FFF0
C000
C000
6060
70E0
3FC0
1F00
ENDCHAR
STARTCHAR 0118
ENCODING 280
SWIDTH 680 0
DWIDTH 17 0
BBX 14 23 2 -5
BITMAP
FFF8
FFF8
E000
E000
E000
E000
E000
E000
FFF0
FFF0
E000
E000
E000
E000
E000
E000
FFF8
FFF8
0010
0020
0060
0060
003C
ENDCHAR
STARTCHAR 0119
ENCODING 281
SWIDTH 560 0
DWIDTH 14 0
BBX 12 17 1 -4
BITMAP
0F80
3FC0
70E0
6060
C070
FFF0
FFF0
C000
C000
6060
70E0
3FC0
1F80
0100
0300
0300
01E0
ENDCHAR
STARTCHAR 011A
ENCODING 282
SWIDTH 680 0
DWIDTH 17 0
BBX 13 23 2 0
BITMAP
08C0
0D80
0700
0000
0000
FFF8
FFF8
E000
E000
E000
E000
E000
E000
FFF0
FFF0
E000
E000
E000
E000
E000
E000
FFF8
FFF8
ENDCHAR
STARTCHAR 011B
ENCODING 283
SWIDTH 560 0
DWIDTH 14 0
BBX 12 18 1 0
BITMAP
1880
0980
0F00
0600
0000
0F80
3FC0
70E0
6060
C070
FFF0
FFF0
C000
C000
6060
70E0
3FC0
1F00
ENDCHAR
STARTCHAR 011C
ENCODING 284
SWIDTH 760 0
DWIDTH 19 0
BBX 17 23 1 0
BITMAP
01C000
01E000
032000
063000
000000
03F000
0FFC00
1C1E00
380700
700300
600000
E00000
E00000
C07F80
C07F80
E00180
E00180
600380
700380
380780
1E1D80
0FF980
03E180
ENDCHAR
STARTCHAR 011D
ENCODING 285
SWIDTH 560 0
DWIDTH 14 0
BBX 11 23 1 -5
BITMAP
0E00
0F00
1980
0000
0000
1E60
3FE0
71E0
E0E0
C060
C060
C060
C060
C060
E0E0
71E0
3F60
1E60
0060
E0E0
60C0
3F80
1E00
ENDCHAR
STARTCHAR 011E
ENCODING 286
SWIDTH 760 0
DWIDTH 19 0
BBX 17 23 1 0
BITMAP
061800
061800
03F000
00E000
000000
03F000
0FFC00
1C1E00
380700
700300
600000
E00000
E00000
C07F80
C07F80
E00180
E00180
600380
700380
380780
1E1D80
0FF980
03E180
ENDCHAR
STARTCHAR 011F
ENCODING 287
SWIDTH 560 0
DWIDTH 14 0
BBX 11 23 1 -5
BITMAP
3080
3180
1F80
0E00
0000
1E60
3FE0
71E0
E0E0
C060
C060
C060
C060
C060
E0E0
71E0
3F60
1E60
0060
E0E0
60C0
3F80
1E00
ENDCHAR
STARTCHAR 0120
ENCODING 288
SWIDTH 760 0
DWIDTH 19 0
BBX 17 23 1 0
BITMAP
01C000
01C000
01C000
000000
000000
03F000
0FFC00
1C1E00
380700
700300
600000
E00000
E00000
C07F80
C07F80
E00180
E00180
600380
700380
380780
1E1D80
0FF980
03E180
ENDCHAR
STARTCHAR 0121
ENCODING 289
SWIDTH 560 0
DWIDTH 14 0
BBX 11 23 1 -5
BITMAP
0E00
0E00
0E00
0000
0000
1E60
3FE0
71E0
E0E0
C060
C060
C060
C060
C060
E0E0
71E0
3F60
1E60
0060
E0E0
60C0
3F80
1E00
ENDCHAR
STARTCHAR 0122
ENCODING 290
SWIDTH 760 0
DWIDTH 19 0
BBX 17 25 1 -7
BITMAP
03F000
0FFC00
1C1E00
380700
700300
600000
E00000
E00000
C07F80
C07F80
E00180
E00180
600380
700380
380780
1E1D80
0FF980
03E180
000000
01C000
01C000
004000
004000
008000
010000
ENDCHAR
STARTCHAR 0123
ENCODING 291
SWIDTH 560 0
DWIDTH 14 0
BBX 11 25 1 -5
BITMAP
0600
0400
0C00
0E00
0E00
0E00
0000
1E60
3FE0
71E0
E0E0
C060
C060
C060
C060
C060
E0E0
71E0
3F60
1E60
0060
E0E0
60C0
3F80
1E00
ENDCHAR
STARTCHAR 0124
ENCODING 292
SWIDTH 720 0
DWIDTH 18 0
BBX 14 23 2 0
BITMAP
0380
06C0
0CC0
0000
0000
C00C
C00C
C00C
C00C
C00C
C00C
C00C
C00C
FFFC
FFFC
C00C
C00C
C00C
C00C
C00C
C00C
C00C
C00C
ENDCHAR
STARTCHAR 0125
ENCODING 293
SWIDTH 560 0
DWIDTH 14 0
BBX 12 23 0 0
BITMAP
7800
5800
CC00
0000
0000
3000
3000
3000
3000
3000
33C0
3FF0
3870
3030
3030
3030
3030
3030
3030
3030
3030
3030
3030
ENDCHAR
STARTCHAR 0126
ENCODING 294
SWIDTH 720 0
DWIDTH 18 0
BBX 18 18 0 0
BITMAP
300300
300300
300300
300300
FFFFC0
FFFFC0
300300
300300
3FFF00
3FFF00
300300
300300
300300
300300
300300
300300
300300
300300
ENDCHAR
STARTCHAR 0127
ENCODING 295
SWIDTH 560 0
DWIDTH 14 0
BBX 12 18 0 0
BITMAP
3000
3000
FF80
3000
3000
33C0
3FF0
3870
3030
3030
3030
3030
3030
3030
3030
3030
3030
3030
ENDCHAR
STARTCHAR 0128
ENCODING 296
SWIDTH 280 0
DWIDTH 7 0
BBX 7 23 0 0
BITMAP
42
FE
9C
00
00
38
38
38
38
38
38
38
38
38
38
38
38
38
38
38
38
38
38
ENDCHAR
STARTCHAR 0129
ENCODING 297
SWIDTH 280 0
DWIDTH 7 0
BBX 8 18 -1 0
BITMAP
71
7F
C6
00
00
18
18
18
18
18
18
18
18
18
18
18
18
18
ENDCHAR
STARTCHAR 012A
ENCODING 298
SWIDTH 280 0
DWIDTH 7 0
BBX 7 22 0 0
BITMAP
FE
FE
00
00
38
38
38
38
38
38
38
38
38
38
38
38
38
38
38
38
38
38
ENDCHAR
STARTCHAR 012B
ENCODING 299
SWIDTH 280 0
DWIDTH 7 0
BBX 7 18 0 0
BITMAP
FE
FE
00
00
00
30
30
30
30
30
30
30
30
30
30
30
30
30
ENDCHAR
STARTCHAR 012C
ENCODING 300
SWIDTH 280 0
DWIDTH 7 0
BBX 7 23 0 0
BITMAP
C6
FE
7C
00
00
38
38
38
38
38
38
38
38
38
38
38
38
38
38
38
38
38
38
ENDCHAR
STARTCHAR 012D
ENCODING 301
SWIDTH 280 0
DWIDTH 7 0
BBX 7 18 0 0
BITMAP
82
FE
7C
00
00
30
30
30
30
30
30
30
30
30
30
30
30
30
ENDCHAR
STARTCHAR 012E
ENCODING 302
SWIDTH 280 0
DWIDTH 7 0
BBX 4 23 2 -5
BITMAP
E0
E0
E0
E0
E0
E0
E0
E0
E0
E0
E0
E0
E0
E0
E0
E0
E0
E0
40
C0
80
C0
F0
ENDCHAR
STARTCHAR 012F
ENCODING 303
SWIDTH 240 0
DWIDTH 6 0
BBX 4 23 1 -5
BITMAP
60
60
60
00
00
60
60
60
60
60
60
60
60
60
60
60
60
60
40
C0
80
C0
F0
ENDCHAR
STARTCHAR 0130
ENCODING 304
SWIDTH 280 0
DWIDTH 7 0
BBX 3 23 2 0
BITMAP
E0
E0
E0
00
00
60
60
60
60
60
60
60
60
60
60
60
60
60
60
60
60
60
60
ENDCHAR
STARTCHAR 0131
ENCODING 305
SWIDTH 280 0
DWIDTH 7 0
BBX 2 13 2 0
BITMAP
C0
C0
C0
C0
C0
C0
C0
C0
C0
C0
C0
C0
C0
ENDCHAR
STARTCHAR 0132
ENCODING 306
SWIDTH 720 0
DWIDTH 18 0
BBX 13 18 3 0
BITMAP
C018
C018
C018
C018
C018
C018
C018
C018
C018
C018
C018
C018
DC18
DC18
DC18
CE18
CFF0
C3E0
ENDCHAR
STARTCHAR 0133
ENCODING 307
SWIDTH 440 0
DWIDTH 11 0
BBX 7 24 2 -6
BITMAP
C6
C6
C6
00
00
C6
C6
C6
C6
C6
C6
C6
C6
C6
C6
C6
C6
C6
06
06
06
06
1E
18
ENDCHAR
STARTCHAR 0134
ENCODING 308
SWIDTH 520 0
DWIDTH 13 0
BBX 12 23 0 0
BITMAP
01E0
01E0
0330
0000
0000
00E0
00E0
00E0
00E0
00E0
00E0
00E0
00E0
00E0
00E0
00E0
00E0
E0E0
E0E0
60C0
71C0
3F80
1F00
ENDCHAR
STARTCHAR 0135
ENCODING 309
SWIDTH 240 0
DWIDTH 6 0
BBX 6 24 0 -6
BITMAP
70
D8
CC
00
00
30
30
30
30
30
30
30
30
30
30
30
30
30
30
30
30
30
E0
C0
ENDCHAR
STARTCHAR 0136
ENCODING 310
SWIDTH 680 0
DWIDTH 17 0
BBX 14 25 2 -7
BITMAP
C01C
C038
C070
C0E0
C1C0
C380
C700
CE00
DF00
FB00
F380
E1C0
C0E0
C060
C070
C038
C018
C01C
0000
0000
0700
0700
0100
0100
0600
ENDCHAR
STARTCHAR 0137
ENCODING 311
SWIDTH 520 0
DWIDTH 13 0
BBX 11 25 1 -7
BITMAP
E000
E000
E000
E000
E000
E0C0
E180
E300
E600
EC00
FE00
F600
E700
E380
E180
E1C0
E0E0
E060
0000
0000
0E00
0E00
0200
0200
0C00
ENDCHAR
STARTCHAR 0138
ENCODING 312
SWIDTH 520 0
DWIDTH 13 0
BBX 10 13 1 0
BITMAP
C0C0
C180
C300
C600
CC00
D800
FC00
EC00
C600
C300
C300
C180
C0C0
ENDCHAR
STARTCHAR 0139
ENCODING 313
SWIDTH 560 0
DWIDTH 14 0
BBX 11 23 2 0
BITMAP
3000
6000
C000
0000
0000
C000
C000
C000
C000
C000
C000
C000
C000
C000
C000
C000
C000
C000
C000
C000
C000
FFE0
FFE0
ENDCHAR
STARTCHAR 013A
ENCODING 314
SWIDTH 240 0
DWIDTH 6 0
BBX 4 23 2 0
BITMAP
70
60
C0
00
00
C0
C0
C0
C0
C0
C0
C0
C0
C0
C0
C0
C0
C0
C0
C0
C0
C0
C0
ENDCHAR
STARTCHAR 013B
ENCODING 315
SWIDTH 560 0
DWIDTH 14 0
BBX 11 25 2 -7
BITMAP
C000
C000
C000
C000
C000
C000
C000
C000
C000
C000
C000
C000
C000
C000
C000
C000
FFE0
FFE0
0000
0000
0E00
0E00
0200
0200
0C00
ENDCHAR
STARTCHAR 013C
ENCODING 316
SWIDTH 240 0
DWIDTH 6 0
BBX 2 25 2 -7
BITMAP
C0
C0
C0
C0
C0
C0
C0
C0
C0
C0
C0
C0
C0
C0
C0
C0
C0
C0
00
00
C0
C0
40
40
80
ENDCHAR
STARTCHAR 013D
ENCODING 317
SWIDTH 560 0
DWIDTH 14 0
BBX 11 18 2 0
BITMAP
C600
C600
C200
C200
C600
C000
C000
C000
C000
C000
C000
C000
C000
C000
C000
C000
FFE0
FFE0
ENDCHAR
STARTCHAR 013E
ENCODING 318
SWIDTH 280 0
DWIDTH 7 0
BBX 6 18 2 0
BITMAP
DC
DC
CC
CC
C8
D0
C0
C0
C0
C0
C0
C0
C0
C0
C0
C0
C0
C0
ENDCHAR
STARTCHAR 013F
ENCODING 319
SWIDTH 560 0
DWIDTH 14 0
BBX 11 18 2 0
BITMAP
C000
C000
C000
C000
C000
C000
C000
C000
C180
C180
C180
C000
C000
C000
C000
C000
FFE0
FFE0
ENDCHAR
STARTCHAR 0140
ENCODING 320
SWIDTH 320 0
DWIDTH 8 0
BBX 6 18 2 0
BITMAP
C0
C0
C0
C0
C0
C0
C0
C0
CC
CC
CC
C0
C0
C0
C0
C0
C0
C0
ENDCHAR
STARTCHAR 0141
ENCODING 321
SWIDTH 560 0
DWIDTH 14 0
BBX 14 18 0 0
BITMAP
3000
3000
3000
3000
3000
3080
3380
3700
3C00
3800
F000
B000
3000
3000
3000
3000
3FFC
3FFC
ENDCHAR
STARTCHAR 0142
ENCODING 322
SWIDTH 240 0
DWIDTH 6 0
BBX 5 18 0 0
BITMAP
30
30
30
30
30
30
30
38
38
70
B0
30
30
30
30
30
30
30
ENDCHAR
STARTCHAR 0143
ENCODING 323
SWIDTH 720 0
DWIDTH 18 0
BBX 14 23 2 0
BITMAP
01C0
0180
0300
0000
0000
E00C
E00C
F00C
F80C
D80C
DC0C
CE0C
C60C
C70C
C38C
C18C
C1CC
C0EC
C06C
C07C
C03C
C01C
C01C
ENDCHAR
STARTCHAR 0144
ENCODING 324
SWIDTH 560 0
DWIDTH 14 0
BBX 10 18 2 0
BITMAP
0700
0600
0C00
0000
0000
DF00
FFC0
E1C0
C0C0
C0C0
C0C0
C0C0
C0C0
C0C0
C0C0
C0C0
C0C0
C0C0
ENDCHAR
STARTCHAR 0145
ENCODING 325
SWIDTH 720 0
DWIDTH 18 0
BBX 14 25 2 -7
BITMAP
E00C
E00C
F00C
F80C
D80C
DC0C
CE0C
C60C
C70C
C38C
C18C
C1CC
C0EC
C06C
C07C
C03C
C01C
C01C
0000
0000
0700
0700
0100
0100
0600
ENDCHAR
STARTCHAR 0146
ENCODING 326
SWIDTH 560 0
DWIDTH 14 0
BBX 10 20 2 -7
BITMAP
DF00
FFC0
E1C0
C0C0
C0C0
C0C0
C0C0
C0C0
C0C0
C0C0
C0C0
C0C0
C0C0
0000
0000
0C00
0C00
0400
0400
0800
ENDCHAR
STARTCHAR 0147
ENCODING 327
SWIDTH 720 0
DWIDTH 18 0
BBX 14 23 2 0
BITMAP
0CC0
0480
0780
0000
0000
E00C
E00C
F00C
F80C
D80C
DC0C
CE0C
C60C
C70C
C38C
C18C
C1CC
C0EC
C06C
C07C
C03C
C01C
C01C
ENDCHAR
STARTCHAR 0148
ENCODING 328
SWIDTH 560 0
DWIDTH 14 0
BBX 10 18 2 0
BITMAP
2300
3300
1E00
0000
0000
DF00
FFC0
E1C0
C0C0
C0C0
C0C0
C0C0
C0C0
C0C0
C0C0
C0C0
C0C0
C0C0
ENDCHAR
STARTCHAR 0149
ENCODING 329
SWIDTH 600 0
DWIDTH 15 0
BBX 13 18 0 0
BITMAP
E000
E000
2000
4000
C000
1BF0
1FF8
1C18
1C18
1818
1818
1818
1818
1818
1818
1818
1818
1818
ENDCHAR
STARTCHAR 014A
ENCODING 330
SWIDTH 720 0
DWIDTH 18 0
BBX 14 25 2 -7
BITMAP
03E0
CFF0
DC38
F01C
E01C
E00C
E00C
E00C
E00C
E00C
E00C
E00C
E00C
E00C
E00C
E00C
E00C
E00C
000C
000C
000C
000C
001C
00F8
00F0
ENDCHAR
STARTCHAR 014B
ENCODING 331
SWIDTH 560 0
DWIDTH 14 0
BBX 10 19 2 -6
BITMAP
CF00
DFC0
E1C0
C0C0
C0C0
C0C0
C0C0
C0C0
C0C0
C0C0
C0C0
C0C0
C0C0
00C0
00C0
00C0
00C0
03C0
0380
ENDCHAR
STARTCHAR 014C
ENCODING 332
SWIDTH 760 0
DWIDTH 19 0
BBX 18 22 1 0
BITMAP
07F000
07F000
000000
000000
03F000
0FFC00
3C1E00
380700
700380
600380
E00180
C00180
C001C0
C001C0
C00180
E00180
600180
700380
380700
3C1E00
0FFC00
03F000
ENDCHAR
STARTCHAR 014D
ENCODING 333
SWIDTH 560 0
DWIDTH 14 0
BBX 12 17 1 0
BITMAP
3F80
3F80
0000
0000
1F00
3FC0
70E0
E060
C070
C070
C030
C030
C070
E060
70E0
3FC0
1F00
ENDCHAR
STARTCHAR 014E
ENCODING 334
SWIDTH 760 0
DWIDTH 19 0
BBX 18 23 1 0
BITMAP
041000
063000
03F000
01C000
000000
03F000
0FFC00
3C1E00
380700
700380
600380
E00180
C00180
C001C0
C001C0
C00180
E00180
600180
700380
380700
3C1E00
0FFC00
03F000
ENDCHAR
STARTCHAR 014F
ENCODING 335
SWIDTH 560 0
DWIDTH 14 0
BBX 12 18 1 0
BITMAP
30C0
3180
1F80
0600
0000
1F00
3FC0
70E0
E060
C070
C070
C030
C030
C070
E060
70E0
3FC0
1F00
ENDCHAR
STARTCHAR 0150
ENCODING 336
SWIDTH 760 0
DWIDTH 19 0
BBX 18 23 1 0
BITMAP
00EE00
018C00
011800
033000
000000
03F000
0FFC00
3C1E00
380700
700380
600380
E00180
C00180
C001C0
C001C0
C00180
E00180
600180
700380
380700
3C1E00
0FFC00
03F000
ENDCHAR
STARTCHAR 0151
ENCODING 337
SWIDTH 560 0
DWIDTH 14 0
BBX 12 18 1 0
BITMAP
0670
0CE0
18C0
1180
0000
1F00
3FC0
70E0
E060
C070
C070
C030
C030
C070
E060
70E0
3FC0
1F00
ENDCHAR
STARTCHAR 0152
ENCODING 338
SWIDTH 1000 0
DWIDTH 25 0
BBX 23 18 1 0
BITMAP
07CFFE
1FFFFE
383C00
701C00
600C00
600C00
E00C00
C00C00
C00FFE
C00FFE
C00C00
E00C00
E00C00
600C00
701C00
383C00
1FEFFE
07CFFE
ENDCHAR
STARTCHAR 0153
ENCODING 339
SWIDTH 960 0
DWIDTH 24 0
BBX 21 13 1 0
BITMAP
1F07C0
3FCFF0
70F838
607018
C07018
C03FF8
C03FF8
C03000
E07000
607818
70FC38
3FCFF0
1F07C0
ENDCHAR
STARTCHAR 0154
ENCODING 340
SWIDTH 720 0
DWIDTH 18 0
BBX 15 23 2 0
BITMAP
01C0
0380
0300
0000
0000
FFF0
FFF8
E01C
E00C
E00C
E00C
E00C
E018
FFF0
FFF8
E038
E01C
E00C
E00C
E00C
E00C
E00C
E00E
ENDCHAR
STARTCHAR 0155
ENCODING 341
SWIDTH 320 0
DWIDTH 8 0
BBX 6 18 2 0
BITMAP
1C
38
30
00
00
CC
DC
E0
C0
C0
C0
C0
C0
C0
C0
C0
C0
C0
ENDCHAR
STARTCHAR 0156
ENCODING 342
SWIDTH 720 0
DWIDTH 18 0
BBX 15 25 2 -7
BITMAP
FFF0
FFF8
E01C
E00C
E00C
E00C
E00C
E018
FFF0
FFF8
E038
E01C
E00C
E00C
E00C
E00C
E00C
E00E
0000
0000
0300
0300
0100
0100
0300
ENDCHAR
STARTCHAR 0157
ENCODING 343
SWIDTH 320 0
DWIDTH 8 0
BBX 6 20 2 -7
BITMAP
CC
DC
E0
C0
C0
C0
C0
C0
C0
C0
C0
C0
C0
00
00
C0
C0
40
40
80
ENDCHAR
STARTCHAR 0158
ENCODING 344
SWIDTH 720 0
DWIDTH 18 0
BBX 15 23 2 0
BITMAP
0CC0
0D80
0780
0000
0000
FFF0
FFF8
E01C
E00C
E00C
E00C
E00C
E018
FFF0
FFF8
E038
E01C
E00C
E00C
E00C
E00C
E00C
E00E
ENDCHAR
STARTCHAR 0159
ENCODING 345
SWIDTH 320 0
DWIDTH 8 0
BBX 6 18 2 0
BITMAP
8C
D8
78
00
00
CC
DC
E0
C0
C0
C0
C0
C0
C0
C0
C0
C0
C0
ENDCHAR
STARTCHAR 015A
ENCODING 346
SWIDTH 680 0
DWIDTH 17 0
BBX 15 23 1 0
BITMAP
00C0
0180
0300
0200
0000
0FC0
3FF0
3838
601C
600C
6000
7000
3E00
1FE0
03F8
003C
000C
C00E
E00C
600C
783C
3FF8
0FE0
ENDCHAR
STARTCHAR 015B
ENCODING 347
SWIDTH 520 0
DWIDTH 13 0
BBX 10 18 1 0
BITMAP
0300
0600
0C00
0800
0000
1F00
7F80
E1C0
C0C0
E000
7800
3F80
03C0
00C0
C0C0
E0C0
7F80
3F00
ENDCHAR
STARTCHAR 015C
ENCODING 348
SWIDTH 680 0
DWIDTH 17 0
BBX 15 23 1 0
BITMAP
0380
0780
0CC0
0C60
0000
0FC0
3FF0
3838
601C
600C
6000
7000
3E00
1FE0
03F8
003C
000C
C00E
E00C
600C
783C
3FF8
0FE0
ENDCHAR
STARTCHAR 015D
ENCODING 349
SWIDTH 520 0
DWIDTH 13 0
BBX 10 18 1 0
BITMAP
0E00
1E00
3300
2180
0000
1F00
7F80
E1C0
C0C0
E000
7800
3F80
03C0
00C0
C0C0
E0C0
7F80
3F00
ENDCHAR
STARTCHAR 015E
ENCODING 350
SWIDTH 680 0
DWIDTH 17 0
BBX 15 23 1 -5
BITMAP
0FE0
3FF0
3838
701C
600C
6000
7000
7C00
1FC0
03F8
007C
000C
E00E
E00E
600C
701C
3FF8
1FF0
0200
0380
00C0
08C0
0F80
ENDCHAR
STARTCHAR 015F
ENCODING 351
SWIDTH 520 0
DWIDTH 13 0
BBX 10 18 1 -5
BITMAP
1F00
7F80
E1C0
C0C0
E000
7800
3F80
07C0
00C0
C0C0
E0C0
7FC0
3F80
0800
0E00
0600
0600
3C00
ENDCHAR
STARTCHAR 0160
ENCODING 352
SWIDTH 680 0
DWIDTH 17 0
BBX 15 23 1 0
BITMAP
0C60
06C0
0780
0380
0000
0FC0
3FF0
3838
601C
600C
6000
7000
3E00
1FE0
03F8
003C
000C
C00E
E00C
600C
783C
3FF8
0FE0
ENDCHAR
STARTCHAR 0161
ENCODING 353
SWIDTH 520 0
DWIDTH 13 0
BBX 10 18 1 0
BITMAP
3100
1300
1E00
0C00
0000
1F00
7F80
E1C0
C0C0
E000
7800
3F80
03C0
00C0
C0C0
E0C0
7F80
3F00
ENDCHAR
STARTCHAR 0162
ENCODING 354
SWIDTH 600 0
DWIDTH 15 0
BBX 14 23 1 -5
BITMAP
FFFC
FFFC
0300
0300
0300
0300
0300
0300
0300
0300
0300
0300
0300
0300
0300
0300
0300
0300
0200
0380
00C0
08C0
0F80
ENDCHAR
STARTCHAR 0163
ENCODING 355
SWIDTH 280 0
DWIDTH 7 0
BBX 6 22 0 -5
BITMAP
30
30
30
30
FC
FC
30
30
30
30
30
30
30
30
30
3C
1C
10
3C
0C
4C
78
ENDCHAR
STARTCHAR 0164
ENCODING 356
SWIDTH 600 0
DWIDTH 15 0
BBX 14 23 1 0
BITMAP
08C0
0D80
0700
0000
0000
FFFC
FFFC
0300
0300
0300
0300
0300
0300
0300
0300
0300
0300
0300
0300
0300
0300
0300
0300
ENDCHAR
STARTCHAR 0165
ENCODING 357
SWIDTH 320 0
DWIDTH 8 0
BBX 8 20 0 0
BITMAP
03
03
01
31
33
30
30
FC
FC
30
30
30
30
30
30
30
30
30
3C
1C
ENDCHAR
STARTCHAR 0166
ENCODING 358
SWIDTH 600 0
DWIDTH 15 0
BBX 14 18 1 0
BITMAP
FFFC
FFFC
0300
0300
0300
0300
3FF0
3FF0
0300
0300
0300
0300
0300
0300
0300
0300
0300
0300
ENDCHAR
STARTCHAR 0167
ENCODING 359
SWIDTH 280 0
DWIDTH 7 0
BBX 6 17 0 0
BITMAP
30
30
30
30
FC
FC
30
30
7C
30
30
30
30
30
30
3C
1C
ENDCHAR
STARTCHAR 0168
ENCODING 360
SWIDTH 720 0
DWIDTH 18 0
BBX 14 23 2 0
BITMAP
0C60
1FE0
19C0
0000
0000
C00C
C00C
C00C
C00C
C00C
C00C
C00C
C00C
C00C
C00C
C00C
C00C
C00C
E00C
601C
7838
3FF0
0FC0
ENDCHAR
STARTCHAR 0169
ENCODING 361
SWIDTH 560 0
DWIDTH 14 0
BBX 10 18 2 -1
BITMAP
3980
7F00
4200
0000
0000
C0C0
C0C0
C0C0
C0C0
C0C0
C0C0
C0C0
C0C0
C0C0
C1C0
C1C0
FFC0
7EC0
ENDCHAR
STARTCHAR 016A
ENCODING 362
SWIDTH 720 0
DWIDTH 18 0
BBX 14 22 2 0
BITMAP
0FE0
0FE0
0000
0000
C00C
C00C
C00C
C00C
C00C
C00C
C00C
C00C
C00C
C00C
C00C
C00C
C00C
E00C
601C
7838
3FF0
0FC0
ENDCHAR
STARTCHAR 016B
ENCODING 363
SWIDTH 560 0
DWIDTH 14 0
BBX 10 18 2 -1
BITMAP
7F00
7F00
0000
0000
0000
C0C0
C0C0
C0C0
C0C0
C0C0
C0C0
C0C0
C0C0
C0C0
C1C0
C1C0
FFC0
7EC0
ENDCHAR
STARTCHAR 016C
ENCODING 364
SWIDTH 720 0
DWIDTH 18 0
BBX 14 23 2 0
BITMAP
1860
0FC0
0780
0000
0000
C00C
C00C
C00C
C00C
C00C
C00C
C00C
C00C
C00C
C00C
C00C
C00C
C00C
E00C
601C
7838
3FF0
0FC0
ENDCHAR
STARTCHAR 016D
ENCODING 365
SWIDTH 560 0
DWIDTH 14 0
BBX 10 18 2 -1
BITMAP
6180
3F00
1E00
0000
0000
C0C0
C0C0
C0C0
C0C0
C0C0
C0C0
C0C0
C0C0
C0C0
C1C0
C1C0
FFC0
7EC0
ENDCHAR
STARTCHAR 016E
ENCODING 366
SWIDTH 720 0
DWIDTH 18 0
BBX 14 24 2 0
BITMAP
0380
0480
0480
0480
0300
0000
C00C
C00C
C00C
C00C
C00C
C00C
C00C
C00C
C00C
C00C
C00C
C00C
C00C
E00C
601C
7838
3FF0
0FC0
ENDCHAR
STARTCHAR 016F
ENCODING 367
SWIDTH 560 0
DWIDTH 14 0
BBX 10 19 2 -1
BITMAP
0C00
1200
1200
1200
1C00
0000
C0C0
C0C0
C0C0
C0C0
C0C0
C0C0
C0C0
C0C0
C0C0
C1C0
C1C0
FFC0
7EC0
ENDCHAR
STARTCHAR 0170
ENCODING 368
SWIDTH 720 0
DWIDTH 18 0
BBX 14 23 2 0
BITMAP
03B8
0670
0C60
08C0
0000
C00C
C00C
C00C
C00C
C00C
C00C
C00C
C00C
C00C
C00C
C00C
C00C
C00C
E00C
601C
7838
3FF0
0FC0
ENDCHAR
STARTCHAR 0171
ENCODING 369
SWIDTH 560 0
DWIDTH 14 0
BBX 11 18 2 -1
BITMAP
0CE0
19C0
3180
2300
0000
C0C0
C0C0
C0C0
C0C0
C0C0
C0C0
C0C0
C0C0
C0C0
C1C0
C1C0
FFC0
7EC0
ENDCHAR
STARTCHAR 0172
ENCODING 370
SWIDTH 720 0
DWIDTH 18 0
BBX 14 22 2 -4
BITMAP
C00C
C00C
C00C
C00C
C00C
C00C
C00C
C00C
C00C
C00C
C00C
C00C
C00C
E00C
601C
7838
3FF8
0FF0
0060
00C0
00C0
0078
ENDCHAR
STARTCHAR 0173
ENCODING 371
SWIDTH 560 0
DWIDTH 14 0
BBX 11 17 2 -4
BITMAP
C0C0
C0C0
C0C0
C0C0
C0C0
C0C0
C0C0
C0C0
C0C0
C1C0
C1C0
FEC0
7CC0
0080
0300
0300
01E0
ENDCHAR
STARTCHAR 0174
ENCODING 372
SWIDTH 960 0
DWIDTH 24 0
BBX 22 23 1 0
BITMAP
007000
00D800
00CC00
000000
000000
C0701C
E0781C
E0781C
E07818
60D818
60DC38
70CC38
70CC30
318E30
318670
398670
1B8660
1B0760
1B0360
1F03C0
0E03C0
0E01C0
0E01C0
ENDCHAR
STARTCHAR 0175
ENCODING 373
SWIDTH 720 0
DWIDTH 18 0
BBX 18 18 0 0
BITMAP
01C000
01E000
033000
000000
000000
E1C1C0
61E180
61E180
61E380
736300
337300
333300
333600
1A3600
1E1E00
1E1E00
1E1C00
0C1C00
ENDCHAR
STARTCHAR 0176
ENCODING 374
SWIDTH 680 0
DWIDTH 17 0
BBX 15 23 1 0
BITMAP
0380
06C0
0460
0000
0000
E00E
E00E
701C
3018
3838
1C70
1C60
0EE0
06C0
07C0
0380
0380
0380
0380
0380
0380
0380
0380
ENDCHAR
STARTCHAR 0177
ENCODING 375
SWIDTH 520 0
DWIDTH 13 0
BBX 11 23 1 -5
BITMAP
0E00
1E00
3300
0000
0000
C0E0
C0C0
E0C0
61C0
6180
7180
3300
3300
3B00
1E00
1E00
1E00
0C00
0C00
1800
1800
F800
F000
ENDCHAR
STARTCHAR 0178
ENCODING 376
SWIDTH 680 0
DWIDTH 17 0
BBX 15 23 1 0
BITMAP
0EE0
0EE0
0EE0
0000
0000
E00E
E00E
701C
3018
3838
1C70
1C60
0EE0
06C0
07C0
0380
0380
0380
0380
0380
0380
0380
0380
ENDCHAR
STARTCHAR 0179
ENCODING 377
SWIDTH 600 0
DWIDTH 15 0
BBX 14 23 1 0
BITMAP
01C0
0180
0300
0000
0000
FFFC
FFFC
0038
0030
0070
00E0
01C0
0380
0300
0700
0E00
1C00
3800
3800
7000
E000
FFFC
FFFC
ENDCHAR
STARTCHAR 017A
ENCODING 378
SWIDTH 520 0
DWIDTH 13 0
BBX 10 18 1 0
BITMAP
0300
0600
0C00
0000
0000
FFC0
FFC0
01C0
0380
0700
0600
0C00
1800
3800
7000
E000
FFC0
FFC0
ENDCHAR
STARTCHAR 017B
ENCODING 379
SWIDTH 600 0
DWIDTH 15 0
BBX 14 23 1 0
BITMAP
0300
0300
0300
0000
0000
FFFC
FFFC
0038
0030
0070
00E0
01C0
0380
0300
0700
0E00
1C00
3800
3800
7000
E000
FFFC
FFFC
ENDCHAR
STARTCHAR 017C
ENCODING 380
SWIDTH 520 0
DWIDTH 13 0
BBX 10 18 1 0
BITMAP
0E00
0E00
0E00
0000
0000
FFC0
FFC0
01C0
0380
0700
0600
0C00
1800
3800
7000
E000
FFC0
FFC0
ENDCHAR
STARTCHAR 017D
ENCODING 381
SWIDTH 600 0
DWIDTH 15 0
BBX 14 23 1 0
BITMAP
0CC0
0D80
0780
0000
0000
FFFC
FFFC
0038
0030
0070
00E0
01C0
0380
0300
0700
0E00
1C00
3800
3800
7000
E000
FFFC
FFFC
ENDCHAR
STARTCHAR 017E
ENCODING 382
SWIDTH 520 0
DWIDTH 13 0
BBX 10 18 1 0
BITMAP
3180
1B00
1E00
0000
0000
FFC0
FFC0
01C0
0380
0700
0600
0C00
1800
3800
7000
E000
FFC0
FFC0
ENDCHAR
STARTCHAR 017F
ENCODING 383
SWIDTH 240 0
DWIDTH 6 0
BBX 6 18 0 0
BITMAP
1C
3C
30
70
70
F0
F0
70
70
70
70
70
70
70
70
70
70
70
ENDCHAR
STARTCHAR 0192
ENCODING 402
SWIDTH 560 0
DWIDTH 14 0
BBX 14 23 0 -5
BITMAP
003C
00F8
00C0
01C0
0180
0180
0180
1FF0
1FF0
0300
0300
0300
0300
0700
0600
0600
0600
0600
0E00
0C00
1C00
7800
F000
ENDCHAR
STARTCHAR 01FA
ENCODING 506
SWIDTH 680 0
DWIDTH 17 0
BBX 15 27 1 0
BITMAP
0300
0600
0C00
0B80
0680
04C0
0680
0380
0000
0380
0780
07C0
06C0
0EE0
0CE0
0C60
1C70
1870
3830
3838
3FF8
7FF8
701C
601C
E00C
C00E
C006
ENDCHAR
STARTCHAR 01FB
ENCODING 507
SWIDTH 560 0
DWIDTH 14 0
BBX 12 22 1 0
BITMAP
0600
0C00
1800
1000
0F00
0900
0900
0600
0000
1F80
3FC0
70E0
6060
0060
03E0
3FE0
7060
C060
C0E0
E1E0
7F70
3E70
ENDCHAR
STARTCHAR 01FC
ENCODING 508
SWIDTH 1000 0
DWIDTH 25 0
BBX 24 23 0 0
BITMAP
0001C0
000300
000600
000000
000000
00FFFE
01FFFE
018C00
038C00
030C00
070C00
060C00
060C00
0E0FFE
0C0FFE
1C0C00
1FFC00
1FFC00
380C00
300C00
700C00
600FFF
E00FFF
ENDCHAR
STARTCHAR 01FD
ENCODING 509
SWIDTH 880 0
DWIDTH 22 0
BBX 20 18 1 0
BITMAP
003800
003000
006000
00C000
000000
1F0F80
7FFFC0
60F0E0
E0E070
00E030
07FFF0
7F7FF0
F06000
C06010
C0E070
E1B0E0
7F3FC0
3C0F80
ENDCHAR
STARTCHAR 01FE
ENCODING 510
SWIDTH 760 0
DWIDTH 19 0
BBX 18 23 1 0
BITMAP
006000
00C000
018000
010000
000000
03F0C0
0FFD80
3C1F00
300700
700F00
E01B80
E03180
C06180
C0C180
C18180
C30180
E60180
EC0380
780300
300700
7C1E00
CFFC00
87F000
ENDCHAR
STARTCHAR 01FF
ENCODING 511
SWIDTH 600 0
DWIDTH 15 0
BBX 13 18 0 0
BITMAP
01C0
0300
0600
0000
0000
0F88
1FF0
3870
7070
60F8
6198
6318
6618
6C38
7830
3870
7FE0
CF80
ENDCHAR
STARTCHAR 0218
ENCODING 536
SWIDTH 680 0
DWIDTH 17 0
BBX 15 25 1 -7
BITMAP
0FC0
3FF0
3838
601C
600C
6000
7000
3E00
1FE0
03F8
003C
000C
C00E
E00C
600C
783C
3FF8
0FE0
0000
0380
0380
0080
0080
0100
0200
ENDCHAR
STARTCHAR 0219
ENCODING 537
SWIDTH 520 0
DWIDTH 13 0
BBX 10 19 1 -7
BITMAP
1F00
7F80
E1C0
C0C0
E000
7800
3F80
03C0
00C0
C0C0
E0C0
7F80
3F00
0000
0C00
0C00
0400
0400
0400
ENDCHAR
STARTCHAR 021A
ENCODING 538
SWIDTH 600 0
DWIDTH 15 0
BBX 14 25 1 -7
BITMAP
FFFC
FFFC
0300
0300
0300
0300
0300
0300
0300
0300
0300
0300
0300
0300
0300
0300
0300
0300
0000
0000
0700
0700
0100
0100
0600
ENDCHAR
STARTCHAR 021B
ENCODING 539
SWIDTH 280 0
DWIDTH 7 0
BBX 6 23 0 -7
BITMAP
30
30
30
30
FC
FC
30
30
30
30
30
30
30
30
30
3C
1C
00
18
18
08
08
18
ENDCHAR
STARTCHAR 02C6
ENCODING 710
SWIDTH 320 0
DWIDTH 8 0
BBX 7 4 1 14
BITMAP
38
78
CC
86
ENDCHAR
STARTCHAR 02C7
ENCODING 711
SWIDTH 320 0
DWIDTH 8 0
BBX 6 4 1 14
BITMAP
84
CC
78
30
ENDCHAR
STARTCHAR 02C9
ENCODING 713
SWIDTH 320 0
DWIDTH 8 0
BBX 7 2 1 16
BITMAP
FE
FE
ENDCHAR
STARTCHAR 02D8
ENCODING 728
SWIDTH 320 0
DWIDTH 8 0
BBX 8 3 0 15
BITMAP
C3
7E
3C
ENDCHAR
STARTCHAR 02D9
ENCODING 729
SWIDTH 320 0
DWIDTH 8 0
BBX 2 3 3 15
BITMAP
C0
C0
C0
ENDCHAR
STARTCHAR 02DA
ENCODING 730
SWIDTH 320 0
DWIDTH 8 0
BBX 4 4 2 15
BITMAP
70
90
90
70
ENDCHAR
STARTCHAR 02DB
ENCODING 731
SWIDTH 320 0
DWIDTH 8 0
BBX 6 5 1 -5
BITMAP
30
60
C0
60
7C
ENDCHAR
STARTCHAR 02DC
ENCODING 732
SWIDTH 320 0
DWIDTH 8 0
BBX 8 3 0 15
BITMAP
73
FF
C4
ENDCHAR
STARTCHAR 02DD
ENCODING 733
SWIDTH 320 0
DWIDTH 8 0
BBX 9 4 -1 14
BITMAP
3980
3300
6600
C400
ENDCHAR
STARTCHAR 0384
ENCODING 900
SWIDTH 320 0
DWIDTH 8 0
BBX 2 4 3 15
BITMAP
C0
C0
C0
40
ENDCHAR
STARTCHAR 0385
ENCODING 901
SWIDTH 320 0
DWIDTH 8 0
BBX 6 7 1 15
BITMAP
30
30
30
30
DC
CC
CC
ENDCHAR
STARTCHAR 0386
ENCODING 902
SWIDTH 680 0
DWIDTH 17 0
BBX 15 18 1 0
BITMAP
C380
C780
C7C0
46C0
4EE0
0CE0
0C60
1C70
1870
3830
3838
3FF8
7FF8
701C
601C
E00C
C00E
C006
ENDCHAR
STARTCHAR 0387
ENCODING 903
SWIDTH 280 0
DWIDTH 7 0
BBX 2 3 3 5
BITMAP
C0
C0
C0
ENDCHAR
STARTCHAR 0388
ENCODING 904
SWIDTH 800 0
DWIDTH 20 0
BBX 16 18 1 0
BITMAP
DFFF
DFFF
D800
9800
9800
1800
1800
1800
1FFE
1FFE
1800
1800
1800
1800
1800
1800
1FFF
1FFF
ENDCHAR
STARTCHAR 0389
ENCODING 905
SWIDTH 840 0
DWIDTH 21 0
BBX 18 18 0 0
BITMAP
EC00C0
EC00C0
6C00C0
4C00C0
4C00C0
0C00C0
0C00C0
0C00C0
0FFFC0
0FFFC0
0C00C0
0C00C0
0C00C0
0C00C0
0C00C0
0C00C0
0C00C0
0C00C0
ENDCHAR
STARTCHAR 038A
ENCODING 906
SWIDTH 400 0
DWIDTH 10 0
BBX 5 18 1 0
BITMAP
D8
D8
D8
98
98
18
18
18
18
18
18
18
18
18
18
18
18
18
ENDCHAR
STARTCHAR 038C
ENCODING 908
SWIDTH 760 0
DWIDTH 19 0
BBX 19 18 -1 0
BITMAP
C0FC00
C3FF00
CF0780
4C01C0
5C00E0
3800E0
380060
300060
300060
300060
300060
380060
3800E0
1C00C0
1E01C0
0F0780
07FF00
00FC00
ENDCHAR
STARTCHAR 038E
ENCODING 910
SWIDTH 840 0
DWIDTH 21 0
BBX 19 18 1 0
BITMAP
DC00E0
CC01C0
CE0180
C70380
870700
038600
018E00
01CC00
00FC00
007800
007000
003000
003000
003000
003000
003000
003000
003000
ENDCHAR
STARTCHAR 038F
ENCODING 911
SWIDTH 760 0
DWIDTH 19 0
BBX 19 18 -1 0
BITMAP
C0F800
C7FE00
CF0780
5C0380
5801C0
1800C0
3800E0
3000E0
3000E0
3800E0
3800C0
1800C0
1801C0
0C0180
0E0300
030600
3F8FE0
3F8FE0
ENDCHAR
STARTCHAR 0390
ENCODING 912
SWIDTH 240 0
DWIDTH 6 0
BBX 7 22 -1 0
BITMAP
18
18
18
18
F6
E6
E6
00
00
18
18
18
18
18
18
18
18
18
18
18
18
18
ENDCHAR
STARTCHAR 0391
ENCODING 913
SWIDTH 680 0
DWIDTH 17 0
BBX 15 18 1 0
BITMAP
0380
0780
07C0
06C0
0EE0
0CE0
0C60
1C70
1870
3830
3838
3FF8
7FF8
701C
601C
E00C
C00E
C006
ENDCHAR
STARTCHAR 0392
ENCODING 914
SWIDTH 680 0
DWIDTH 17 0
BBX 14 18 2 0
BITMAP
FFC0
FFF0
C070
C038
C038
C038
C030
C070
FFE0
FFF0
C038
C018
C01C
C01C
C018
C038
FFF0
FFE0
ENDCHAR
STARTCHAR 0393
ENCODING 915
SWIDTH 560 0
DWIDTH 14 0
BBX 12 18 2 0
BITMAP
FFF0
FFF0
C000
C000
C000
C000
C000
C000
C000
C000
C000
C000
C000
C000
C000
C000
C000
C000
ENDCHAR
STARTCHAR 0394
ENCODING 916
SWIDTH 680 0
DWIDTH 17 0
BBX 17 18 0 0
BITMAP
01C000
03C000
03E000
036000
076000
067000
0E3000
0C3800
0C1800
1C1800
181C00
380C00
300E00
300600
700700
600700
FFFF00
FFFF80
ENDCHAR
STARTCHAR 0395
ENCODING 917
SWIDTH 680 0
DWIDTH 17 0
BBX 13 18 2 0
BITMAP
FFF8
FFF8
E000
E000
E000
E000
E000
E000
FFF0
FFF0
E000
E000
E000
E000
E000
E000
FFF8
FFF8
ENDCHAR
STARTCHAR 0396
ENCODING 918
SWIDTH 600 0
DWIDTH 15 0
BBX 14 18 1 0
BITMAP
FFFC
FFFC
0038
0030
0070
00E0
01C0
0380
0300
0700
0E00
1C00
3800
3800
7000
E000
FFFC
FFFC
ENDCHAR
STARTCHAR 0397
ENCODING 919
SWIDTH 720 0
DWIDTH 18 0
BBX 14 18 2 0
BITMAP
C00C
C00C
C00C
C00C
C00C
C00C
C00C
C00C
FFFC
FFFC
C00C
C00C
C00C
C00C
C00C
C00C
C00C
C00C
ENDCHAR
STARTCHAR 0398
ENCODING 920
SWIDTH 760 0
DWIDTH 19 0
BBX 18 18 1 0
BITMAP
03F000
0FFC00
3C1E00
300700
700380
600380
E00180
C00180
C7F1C0
C7F1C0
C00180
E00180
600380
700300
380700
3C1E00
0FFC00
03F000
ENDCHAR
STARTCHAR 0399
ENCODING 921
SWIDTH 280 0
DWIDTH 7 0
BBX 3 18 2 0
BITMAP
E0
E0
E0
E0
E0
E0
E0
E0
E0
E0
E0
E0
E0
E0
E0
E0
E0
E0
ENDCHAR
STARTCHAR 039A
ENCODING 922
SWIDTH 680 0
DWIDTH 17 0
BBX 14 18 2 0
BITMAP
C01C
C038
C070
C0E0
C1C0
C380
C700
CE00
DF00
FB00
F380
E1C0
C0E0
C060
C070
C038
C018
C01C
ENDCHAR
STARTCHAR 039B
ENCODING 923
SWIDTH 680 0
DWIDTH 17 0
BBX 15 18 1 0
BITMAP
0380
0780
07C0
06C0
0EE0
0CE0
1C60
1C70
1870
3830
3838
3038
7018
701C
601C
E00C
E00E
C00E
ENDCHAR
STARTCHAR 039C
ENCODING 924
SWIDTH 840 0
DWIDTH 21 0
BBX 17 18 2 0
BITMAP
E00380
F00780
F00780
F00780
D80D80
D80D80
D80D80
CC1980
CC1980
CC1980
C63180
C63180
C63180
C36180
C36180
C36180
C1C180
C1C180
ENDCHAR
STARTCHAR 039D
ENCODING 925
SWIDTH 720 0
DWIDTH 18 0
BBX 14 18 2 0
BITMAP
E00C
E00C
F00C
F80C
D80C
DC0C
CE0C
C60C
C70C
C38C
C18C
C1CC
C0EC
C06C
C07C
C03C
C01C
C01C
ENDCHAR
STARTCHAR 039E
ENCODING 926
SWIDTH 640 0
DWIDTH 16 0
BBX 13 18 2 0
BITMAP
FFF8
FFF8
0000
0000
0000
0000
0000
0000
FFF0
FFF0
0000
0000
0000
0000
0000
0000
FFF8
FFF8
ENDCHAR
STARTCHAR 039F
ENCODING 927
SWIDTH 760 0
DWIDTH 19 0
BBX 18 18 1 0
BITMAP
03F000
0FFC00
3C1E00
380700
700380
600380
E00180
C00180
C001C0
C001C0
C00180
E00180
600180
700380
380700
3C1E00
0FFC00
03F000
ENDCHAR
STARTCHAR 03A0
ENCODING 928
SWIDTH 720 0
DWIDTH 18 0
BBX 14 18 2 0
BITMAP
FFFC
FFFC
C00C
C00C
C00C
C00C
C00C
C00C
C00C
C00C
C00C
C00C
C00C
C00C
C00C
C00C
C00C
C00C
ENDCHAR
STARTCHAR 03A1
ENCODING 929
SWIDTH 680 0
DWIDTH 17 0
BBX 13 18 2 0
BITMAP
FFE0
FFF0
E078
E018
E018
E018
E018
E038
FFF0
FFE0
E000
E000
E000
E000
E000
E000
E000
E000
ENDCHAR
STARTCHAR 03A3
ENCODING 931
SWIDTH 600 0
DWIDTH 15 0
BBX 13 18 1 0
BITMAP
FFF8
FFF8
7000
3800
1C00
0E00
0700
0380
01C0
0380
0300
0600
0C00
1800
3000
7000
FFF8
FFF8
ENDCHAR
STARTCHAR 03A4
ENCODING 932
SWIDTH 600 0
DWIDTH 15 0
BBX 14 18 1 0
BITMAP
FFFC
FFFC
0300
0300
0300
0300
0300
0300
0300
0300
0300
0300
0300
0300
0300
0300
0300
0300
ENDCHAR
STARTCHAR 03A5
ENCODING 933
SWIDTH 680 0
DWIDTH 17 0
BBX 15 18 1 0
BITMAP
E00E
E00E
701C
3018
3838
1C70
1C60
0EE0
06C0
07C0
0380
0380
0380
0380
0380
0380
0380
0380
ENDCHAR
STARTCHAR 03A6
ENCODING 934
SWIDTH 800 0
DWIDTH 20 0
BBX 16 18 2 0
BITMAP
0180
0180
07E0
1FF8
399E
718E
E187
C187
C183
C183
C183
E187
718E
399C
1FF8
07E0
0180
0180
ENDCHAR
STARTCHAR 03A7
ENCODING 935
SWIDTH 680 0
DWIDTH 17 0
BBX 15 18 1 0
BITMAP
E00E
701C
3038
3830
1C70
0CE0
0EC0
07C0
0380
0780
07C0
0EE0
1C60
1870
3838
7018
601C
E00E
ENDCHAR
STARTCHAR 03A8
ENCODING 936
SWIDTH 840 0
DWIDTH 21 0
BBX 17 18 2 0
BITMAP
C1C180
C1C180
C1C180
C1C180
C1C180
C1C180
C1C180
C1C180
C1C180
C1C180
E1C380
71C700
7FFE00
1FFC00
03C000
01C000
01C000
01C000
ENDCHAR
STARTCHAR 03A9
ENCODING 937
SWIDTH 760 0
DWIDTH 19 0
BBX 17 18 1 0
BITMAP
03E000
1FF800
3C1E00
700E00
600700
E00300
E00380
C00380
C00380
C00380
E00300
600300
600700
300600
380C00
0C1800
FE3F80
FE3F80
ENDCHAR
STARTCHAR 03AA
ENCODING 938
SWIDTH 280 0
DWIDTH 7 0
BBX 7 23 0 0
BITMAP
EE
EE
EE
00
00
38
38
38
38
38
38
38
38
38
38
38
38
38
38
38
38
38
38
ENDCHAR
STARTCHAR 03AB
ENCODING 939
SWIDTH 680 0
DWIDTH 17 0
BBX 15 23 1 0
BITMAP
0EE0
0EE0
0EE0
0000
0000
E00E
E00E
701C
3018
3838
1C70
1C60
0EE0
06C0
07C0
0380
0380
0380
0380
0380
0380
0380
0380
ENDCHAR
STARTCHAR 03AC
ENCODING 940
SWIDTH 560 0
DWIDTH 14 0
BBX 15 19 0 0
BITMAP
0600
0600
0600
0600
0200
0000
0F0C
3FCC
70EC
6078
E078
C038
C030
C038
E078
607C
70CC
3F8C
0F0E
ENDCHAR
STARTCHAR 03AD
ENCODING 941
SWIDTH 440 0
DWIDTH 11 0
BBX 10 19 1 0
BITMAP
0C00
0C00
0C00
0800
0800
0000
3E00
7F80
E180
C0C0
C000
7C00
7C00
E000
C000
C0C0
E180
7F80
3E00
ENDCHAR
STARTCHAR 03AE
ENCODING 942
SWIDTH 560 0
DWIDTH 14 0
BBX 10 24 2 -5
BITMAP
0C00
0C00
0400
0400
0400
0000
DF00
FFC0
E1C0
C0C0
C0C0
C0C0
C0C0
C0C0
C0C0
C0C0
C0C0
C0C0
C0C0
00C0
00C0
00C0
00C0
00C0
ENDCHAR
STARTCHAR 03AF
ENCODING 943
SWIDTH 240 0
DWIDTH 6 0
BBX 2 19 2 0
BITMAP
C0
C0
C0
80
80
00
C0
C0
C0
C0
C0
C0
C0
C0
C0
C0
C0
C0
C0
ENDCHAR
STARTCHAR 03B0
ENCODING 944
SWIDTH 560 0
DWIDTH 14 0
BBX 10 22 2 0
BITMAP
0C00
0C00
0C00
0C00
3B00
3300
3300
0000
0000
C0C0
C0C0
C0C0
C0C0
C0C0
C0C0
C0C0
C0C0
C0C0
C0C0
E1C0
7F80
3F00
ENDCHAR
STARTCHAR 03B1
ENCODING 945
SWIDTH 560 0
DWIDTH 14 0
BBX 14 13 1 0
BITMAP
1E1C
3F98
61D8
E0F0
C0F0
C070
C060
C070
C0F0
E0F8
7198
3F18
1E1C
ENDCHAR
STARTCHAR 03B2
ENCODING 946
SWIDTH 560 0
DWIDTH 14 0
BBX 11 23 2 -5
BITMAP
1F00
7F80
E1C0
C0C0
C0C0
C0C0
C180
CF00
CF80
C0C0
C0E0
C060
C060
C060
C0E0
E1C0
FF80
DF00
C000
C000
C000
C000
C000
ENDCHAR
STARTCHAR 03B3
ENCODING 947
SWIDTH 520 0
DWIDTH 13 0
BBX 12 19 0 -6
BITMAP
E030
6070
7060
3060
30C0
38C0
19C0
1D80
0D80
0F80
0F00
0700
0600
0600
0600
0600
0600
0600
0600
ENDCHAR
STARTCHAR 03B4
ENCODING 948
SWIDTH 560 0
DWIDTH 14 0
BBX 12 18 1 0
BITMAP
7FE0
7FE0
3800
0E00
0700
1F80
3FC0
6060
E070
C030
C030
C030
C030
E070
6060
70E0
3FC0
1F80
ENDCHAR
STARTCHAR 03B5
ENCODING 949
SWIDTH 440 0
DWIDTH 11 0
BBX 10 13 1 0
BITMAP
3E00
7F80
E180
C0C0
C000
7C00
7C00
E000
C000
C0C0
E180
7F80
3E00
ENDCHAR
STARTCHAR 03B6
ENCODING 950
SWIDTH 440 0
DWIDTH 11 0
BBX 10 24 1 -6
BITMAP
7FC0
7FC0
0380
0600
0C00
1800
3000
7000
6000
6000
C000
C000
C000
C000
C000
E000
7F00
3FC0
01C0
00C0
00C0
00C0
01C0
0180
ENDCHAR
STARTCHAR 03B7
ENCODING 951
SWIDTH 560 0
DWIDTH 14 0
BBX 10 18 2 -5
BITMAP
DF00
FFC0
E1C0
C0C0
C0C0
C0C0
C0C0
C0C0
C0C0
C0C0
C0C0
C0C0
C0C0
00C0
00C0
00C0
00C0
00C0
ENDCHAR
STARTCHAR 03B8
ENCODING 952
SWIDTH 560 0
DWIDTH 14 0
BBX 12 19 1 0
BITMAP
0F00
3FC0
70E0
6060
6060
E070
C030
C030
FFF0
FFF0
C030
C030
C070
E060
6060
6060
70C0
3FC0
0F00
ENDCHAR
STARTCHAR 03B9
ENCODING 953
SWIDTH 240 0
DWIDTH 6 0
BBX 2 13 2 0
BITMAP
C0
C0
C0
C0
C0
C0
C0
C0
C0
C0
C0
C0
C0
ENDCHAR
STARTCHAR 03BA
ENCODING 954
SWIDTH 520 0
DWIDTH 13 0
BBX 11 13 1 0
BITMAP
E0C0
E180
E300
E600
EC00
FE00
F600
E700
E380
E180
E1C0
E0E0
E060
ENDCHAR
STARTCHAR 03BB
ENCODING 955
SWIDTH 520 0
DWIDTH 13 0
BBX 11 18 1 0
BITMAP
3000
1800
1800
1C00
0C00
0C00
0E00
1E00
1E00
1B00
3300
3380
3180
6180
61C0
E0C0
C0C0
C0E0
ENDCHAR
STARTCHAR 03BC
ENCODING 956
SWIDTH 560 0
DWIDTH 14 0
BBX 10 18 2 -5
BITMAP
C0C0
C0C0
C0C0
C0C0
C0C0
C0C0
C0C0
C0C0
C0C0
C0C0
E1C0
FF40
FC40
C000
C000
C000
C000
C000
ENDCHAR
STARTCHAR 03BD
ENCODING 957
SWIDTH 520 0
DWIDTH 13 0
BBX 12 13 0 0
BITMAP
E030
6070
7060
3060
30C0
38C0
19C0
1980
1D80
0F80
0F00
0F00
0600
ENDCHAR
STARTCHAR 03BE
ENCODING 958
SWIDTH 440 0
DWIDTH 11 0
BBX 11 24 1 -6
BITMAP
FF80
FF80
3000
6000
6000
6000
7000
3800
1F80
3F80
7000
E000
C000
C000
C000
E000
7C00
3FC0
03C0
00E0
00C0
00C0
00C0
0180
ENDCHAR
STARTCHAR 03BF
ENCODING 959
SWIDTH 560 0
DWIDTH 14 0
BBX 12 13 1 0
BITMAP
1F80
3FC0
70E0
6060
C070
C030
C030
C030
E070
6060
70E0
3FC0
1F80
ENDCHAR
STARTCHAR 03C0
ENCODING 960
SWIDTH 680 0
DWIDTH 17 0
BBX 14 13 2 0
BITMAP
FFFC
FFFC
3030
3030
3030
3030
3030
3030
3030
3030
3030
3030
3030
ENDCHAR
STARTCHAR 03C1
ENCODING 961
SWIDTH 560 0
DWIDTH 14 0
BBX 12 18 1 -5
BITMAP
0F80
3FC0
30E0
6070
6030
6030
E030
E030
E030
E070
F0E0
FFC0
EF80
E000
E000
E000
E000
E000
ENDCHAR
STARTCHAR 03C2
ENCODING 962
SWIDTH 480 0
DWIDTH 12 0
BBX 11 19 1 -6
BITMAP
1F00
3FC0
70E0
E060
C060
C000
C000
C000
C000
E000
7000
3E00
1F80
03C0
00E0
00E0
00C0
00C0
01C0
ENDCHAR
STARTCHAR 03C3
ENCODING 963
SWIDTH 600 0
DWIDTH 15 0
BBX 14 13 1 0
BITMAP
0FFC
3FFC
30E0
6070
6030
6030
E030
6030
6030
6070
30E0
3FE0
0F80
ENDCHAR
STARTCHAR 03C4
ENCODING 964
SWIDTH 400 0
DWIDTH 10 0
BBX 10 13 0 0
BITMAP
FFC0
FFC0
0C00
0C00
0C00
0C00
0C00
0C00
0C00
0C00
0C00
0C00
0C00
ENDCHAR
STARTCHAR 03C5
ENCODING 965
SWIDTH 560 0
DWIDTH 14 0
BBX 10 13 2 0
BITMAP
C0C0
C0C0
C0C0
C0C0
C0C0
C0C0
C0C0
C0C0
C0C0
C0C0
E1C0
7F80
3F00
ENDCHAR
STARTCHAR 03C6
ENCODING 966
SWIDTH 640 0
DWIDTH 16 0
BBX 14 19 1 -6
BITMAP
03C0
33F0
7338
6318
C30C
C30C
C30C
C30C
C30C
E31C
E318
7338
3FF0
0FC0
0300
0300
0300
0300
0300
ENDCHAR
STARTCHAR 03C7
ENCODING 967
SWIDTH 520 0
DWIDTH 13 0
BBX 11 19 1 -6
BITMAP
E0E0
60C0
71C0
3180
3980
1B00
1B00
0E00
0E00
0E00
0E00
1B00
1B00
3180
3180
60C0
60C0
C0E0
C060
ENDCHAR
STARTCHAR 03C8
ENCODING 968
SWIDTH 720 0
DWIDTH 18 0
BBX 14 18 2 -5
BITMAP
C30C
C30C
C30C
C30C
C30C
C30C
C30C
C30C
C30C
E30C
6318
7FF8
1FF0
0300
0300
0300
0300
0300
ENDCHAR
STARTCHAR 03C9
ENCODING 969
SWIDTH 800 0
DWIDTH 20 0
BBX 15 13 2 0
BITMAP
3818
301C
600C
618E
E186
C186
C186
C186
E186
6186
638E
7EFC
1C78
ENDCHAR
STARTCHAR 03CA
ENCODING 970
SWIDTH 240 0
DWIDTH 6 0
BBX 7 18 -1 0
BITMAP
EE
EE
EE
00
00
18
18
18
18
18
18
18
18
18
18
18
18
18
ENDCHAR
STARTCHAR 03CB
ENCODING 971
SWIDTH 560 0
DWIDTH 14 0
BBX 10 18 2 0
BITMAP
3300
3300
3300
0000
0000
C0C0
C0C0
C0C0
C0C0
C0C0
C0C0
C0C0
C0C0
C0C0
C0C0
E1C0
7F80
3F00
ENDCHAR
STARTCHAR 03CC
ENCODING 972
SWIDTH 560 0
DWIDTH 14 0
BBX 12 19 1 0
BITMAP
0600
0600
0600
0600
0400
0000
1F80
3FC0
70E0
6060
C070
C030
C030
C030
E070
6060
70E0
3FC0
1F80
ENDCHAR
STARTCHAR 03CD
ENCODING 973
SWIDTH 560 0
DWIDTH 14 0
BBX 10 19 2 0
BITMAP
0C00
0C00
0C00
0800
0800
0000
C0C0
C0C0
C0C0
C0C0
C0C0
C0C0
C0C0
C0C0
C0C0
C0C0
E1C0
7F80
3F00
ENDCHAR
STARTCHAR 03CE
ENCODING 974
SWIDTH 800 0
DWIDTH 20 0
BBX 15 19 2 0
BITMAP
0180
0180
0180
0100
0100
0000
3818
301C
600C
618E
E186
C186
C186
C186
E186
6186
638E
7EFC
1C78
ENDCHAR
STARTCHAR 03D1
ENCODING 977
SWIDTH 560 0
DWIDTH 14 0
BBX 13 19 0 0
BITMAP
0F80
1FC0
38E0
3060
3030
3030
3830
1C30
0FF8
03F8
0030
E030
E030
6030
6030
3060
38E0
1FC0
0F80
ENDCHAR
STARTCHAR 03D5
ENCODING 981
SWIDTH 560 0
DWIDTH 14 0
BBX 14 22 0 -5
BITMAP
0300
0300
0300
0300
1FE0
3FF0
7338
6318
631C
E31C
C31C
E31C
E31C
6318
7338
3B70
1FE0
0300
0300
0300
0300
0300
ENDCHAR
STARTCHAR 03D6
ENCODING 982
SWIDTH 800 0
DWIDTH 20 0
BBX 15 13 2 0
BITMAP
FFC0
FFF8
701C
600C
E006
C186
C186
C186
C186
E386
63CE
7EFC
1C78
ENDCHAR
STARTCHAR 0400
ENCODING 1024
SWIDTH 680 0
DWIDTH 17 0
BBX 13 23 2 0
BITMAP
0E00
0600
0300
0000
0000
FFF8
FFF8
E000
E000
E000
E000
E000
E000
FFF0
FFF0
E000
E000
E000
E000
E000
E000
FFF8
FFF8
ENDCHAR
STARTCHAR 0401
ENCODING 1025
SWIDTH 680 0
DWIDTH 17 0
BBX 13 23 2 0
BITMAP
1DC0
1DC0
1DC0
0000
0000
FFF8
FFF8
C000
C000
C000
C000
C000
C000
FFF0
FFF0
C000
C000
C000
C000
C000
C000
FFF8
FFF8
ENDCHAR
STARTCHAR 0402
ENCODING 1026
SWIDTH 880 0
DWIDTH 22 0
BBX 18 18 1 0
BITMAP
FFF000
FFF000
070000
070000
070000
070000
073F00
07FF80
0781C0
0700C0
0700C0
0700C0
0700C0
0700C0
0700C0
0700C0
071FC0
071F00
ENDCHAR
STARTCHAR 0403
ENCODING 1027
SWIDTH 560 0
DWIDTH 14 0
BBX 11 23 2 0
BITMAP
0700
0E00
0C00
0000
0000
FFE0
FFE0
C000
C000
C000
C000
C000
C000
C000
C000
C000
C000
C000
C000
C000
C000
C000
C000
ENDCHAR
STARTCHAR 0404
ENCODING 1028
SWIDTH 720 0
DWIDTH 18 0
BBX 17 18 0 0
BITMAP
03F000
0FFC00
1E0F00
380700
700380
600100
600000
600000
FFE000
FFE000
E00000
600000
600180
700380
380700
1E0E00
0FFC00
03F000
ENDCHAR
STARTCHAR 0405
ENCODING 1029
SWIDTH 680 0
DWIDTH 17 0
BBX 15 18 1 0
BITMAP
0FC0
3FF0
3838
601C
600C
6000
7000
3E00
1FE0
03F8
003C
000C
C00E
E00C
600C
783C
3FF8
0FE0
ENDCHAR
STARTCHAR 0406
ENCODING 1030
SWIDTH 280 0
DWIDTH 7 0
BBX 3 18 2 0
BITMAP
E0
E0
E0
E0
E0
E0
E0
E0
E0
E0
E0
E0
E0
E0
E0
E0
E0
E0
ENDCHAR
STARTCHAR 0407
ENCODING 1031
SWIDTH 280 0
DWIDTH 7 0
BBX 7 23 0 0
BITMAP
EE
EE
EE
00
00
38
38
38
38
38
38
38
38
38
38
38
38
38
38
38
38
38
38
ENDCHAR
STARTCHAR 0408
ENCODING 1032
SWIDTH 520 0
DWIDTH 13 0
BBX 11 18 0 0
BITMAP
00E0
00E0
00E0
00E0
00E0
00E0
00E0
00E0
00E0
00E0
00E0
00E0
E0E0
E0E0
E0C0
71C0
3F80
1F00
ENDCHAR
STARTCHAR 0409
ENCODING 1033
SWIDTH 1040 0
DWIDTH 26 0
BBX 25 18 1 0
BITMAP
1FFC0000
1FFC0000
180C0000
180C0000
180C0000
180C0000
180C0000
180C0000
180FFC00
180FFF00
180C0700
180C0380
180C0380
380C0380
380C0380
700C0700
E00FFE00
C00FFC00
ENDCHAR
STARTCHAR 040A
ENCODING 1034
SWIDTH 1000 0
DWIDTH 25 0
BBX 24 18 1 0
BITMAP
E03000
E03000
E03000
E03000
E03000
E03000
E03000
E03000
FFFFF8
FFFFFC
E0300E
E03007
E03007
E03007
E03006
E0300E
E03FFC
E03FF8
ENDCHAR
STARTCHAR 040B
ENCODING 1035
SWIDTH 840 0
DWIDTH 21 0
BBX 19 18 0 0
BITMAP
FFFC00
FFFC00
038000
038000
038000
038000
03BF00
03FFC0
03C1C0
0380E0
0380E0
0380E0
0380E0
0380E0
0380E0
0380E0
0380E0
0380E0
ENDCHAR
STARTCHAR 040C
ENCODING 1036
SWIDTH 600 0
DWIDTH 15 0
BBX 11 23 2 0
BITMAP
0700
0600
0C00
0000
0000
C0C0
C1C0
C380
C300
C700
CE00
CC00
FC00
FC00
CC00
CE00
C700
C300
C380
C1C0
C0C0
C0E0
C060
ENDCHAR
STARTCHAR 040D
ENCODING 1037
SWIDTH 720 0
DWIDTH 18 0
BBX 14 23 2 0
BITMAP
0E00
0300
0100
0080
0000
C00C
C00C
C01C
C03C
C07C
C07C
C0EC
C1CC
C38C
C70C
CE0C
DC0C
F80C
F00C
F00C
E00C
C00C
C00C
ENDCHAR
STARTCHAR 040E
ENCODING 1038
SWIDTH 640 0
DWIDTH 16 0
BBX 14 23 1 0
BITMAP
1860
0FC0
0780
0000
0000
E00C
E01C
601C
7038
3038
3830
3870
1C60
1CE0
0CE0
0EC0
07C0
0780
0380
0300
0700
1E00
1C00
ENDCHAR
STARTCHAR 040F
ENCODING 1039
SWIDTH 720 0
DWIDTH 18 0
BBX 14 22 2 -4
BITMAP
C00C
C00C
C00C
C00C
C00C
C00C
C00C
C00C
C00C
C00C
C00C
C00C
C00C
C00C
C00C
C00C
FFFC
FFFC
0300
0300
0300
0300
ENDCHAR
STARTCHAR 0410
ENCODING 1040
SWIDTH 680 0
DWIDTH 17 0
BBX 15 18 1 0
BITMAP
0380
0780
07C0
06C0
0EE0
0CE0
0C60
1C70
1870
3830
3838
3FF8
7FF8
701C
601C
E00C
C00E
C00E
ENDCHAR
STARTCHAR 0411
ENCODING 1041
SWIDTH 640 0
DWIDTH 16 0
BBX 13 18 2 0
BITMAP
FFF0
FFF0
C000
C000
C000
C000
C000
C000
FFE0
FFF0
C038
C018
C018
C018
C018
C038
FFF0
FFE0
ENDCHAR
STARTCHAR 0412
ENCODING 1042
SWIDTH 680 0
DWIDTH 17 0
BBX 14 18 2 0
BITMAP
FFC0
FFF0
C070
C038
C038
C038
C038
C070
FFE0
FFF0
C038
C018
C01C
C01C
C018
C038
FFF0
FFE0
ENDCHAR
STARTCHAR 0413
ENCODING 1043
SWIDTH 560 0
DWIDTH 14 0
BBX 11 18 2 0
BITMAP
FFE0
FFE0
C000
C000
C000
C000
C000
C000
C000
C000
C000
C000
C000
C000
C000
C000
C000
C000
ENDCHAR
STARTCHAR 0414
ENCODING 1044
SWIDTH 680 0
DWIDTH 17 0
BBX 17 22 0 -4
BITMAP
07FE00
07FE00
060600
060600
060600
060600
060600
060600
060600
060600
060600
060600
0E0600
0C0600
1C0600
380600
FFFF80
FFFF80
E00380
E00380
E00380
E00380
ENDCHAR
STARTCHAR 0415
ENCODING 1045
SWIDTH 680 0
DWIDTH 17 0
BBX 13 18 2 0
BITMAP
FFF8
FFF8
C000
C000
C000
C000
C000
C000
FFF0
FFF0
C000
C000
C000
C000
C000
C000
FFF8
FFF8
ENDCHAR
STARTCHAR 0416
ENCODING 1046
SWIDTH 920 0
DWIDTH 23 0
BBX 23 18 0 0
BITMAP
70381C
303818
383838
1C3870
0C3860
0E38E0
0739C0
03FF80
03FF80
0739C0
0E38E0
0C3860
1C3870
183838
383818
70381C
60380C
E0380E
ENDCHAR
STARTCHAR 0417
ENCODING 1047
SWIDTH 600 0
DWIDTH 15 0
BBX 13 18 1 0
BITMAP
0F80
1FE0
38E0
7070
6030
6030
0070
00E0
0780
07E0
0070
0038
E038
6038
6030
7870
3FE0
0F80
ENDCHAR
STARTCHAR 0418
ENCODING 1048
SWIDTH 720 0
DWIDTH 18 0
BBX 14 18 2 0
BITMAP
C00C
C00C
C01C
C03C
C07C
C07C
C0EC
C1CC
C38C
C70C
CE0C
DC0C
F80C
F00C
F00C
E00C
C00C
C00C
ENDCHAR
STARTCHAR 0419
ENCODING 1049
SWIDTH 720 0
DWIDTH 18 0
BBX 14 23 2 0
BITMAP
1860
0FC0
0780
0000
0000
C00C
C00C
C01C
C03C
C07C
C07C
C0EC
C1CC
C38C
C70C
CE0C
DC0C
F80C
F00C
F00C
E00C
C00C
C00C
ENDCHAR
STARTCHAR 041A
ENCODING 1050
SWIDTH 600 0
DWIDTH 15 0
BBX 11 18 2 0
BITMAP
C0C0
C1C0
C380
C300
C700
CE00
CC00
FC00
FC00
CC00
CE00
C700
C300
C380
C1C0
C0C0
C0E0
C060
ENDCHAR
STARTCHAR 041B
ENCODING 1051
SWIDTH 640 0
DWIDTH 16 0
BBX 15 18 0 0
BITMAP
1FFE
1FFE
1806
1806
1806
1806
1806
1806
1806
1806
1806
1806
1806
1806
3806
3006
F006
E006
ENDCHAR
STARTCHAR 041C
ENCODING 1052
SWIDTH 840 0
DWIDTH 21 0
BBX 17 18 2 0
BITMAP
E00380
F00780
F00780
F00780
D80D80
D80D80
D80D80
CC1980
CC1980
CC1980
C63180
C63180
C63180
C36180
C36180
C36180
C1C180
C1C180
ENDCHAR
STARTCHAR 041D
ENCODING 1053
SWIDTH 720 0
DWIDTH 18 0
BBX 14 18 2 0
BITMAP
C00C
C00C
C00C
C00C
C00C
C00C
C00C
C00C
FFFC
FFFC
C00C
C00C
C00C
C00C
C00C
C00C
C00C
C00C
ENDCHAR
STARTCHAR 041E
ENCODING 1054
SWIDTH 760 0
DWIDTH 19 0
BBX 18 18 1 0
BITMAP
03F000
0FFC00
3C1E00
300700
700380
600380
E00180
C00180
C001C0
C001C0
C00180
E00180
600380
700300
380700
3C1E00
0FFC00
03F000
ENDCHAR
STARTCHAR 041F
ENCODING 1055
SWIDTH 720 0
DWIDTH 18 0
BBX 14 18 2 0
BITMAP
FFFC
FFFC
C00C
C00C
C00C
C00C
C00C
C00C
C00C
C00C
C00C
C00C
C00C
C00C
C00C
C00C
C00C
C00C
ENDCHAR
STARTCHAR 0420
ENCODING 1056
SWIDTH 680 0
DWIDTH 17 0
BBX 13 18 2 0
BITMAP
FFE0
FFF0
E078
E018
E018
E018
E018
E038
FFF0
FFE0
E000
E000
E000
E000
E000
E000
E000
E000
ENDCHAR
STARTCHAR 0421
ENCODING 1057
SWIDTH 720 0
DWIDTH 18 0
BBX 16 18 1 0
BITMAP
03F0
0FF8
3C1E
300E
7007
6007
E000
E000
C000
C000
E000
E003
6007
7007
380E
3C1C
1FF8
07E0
ENDCHAR
STARTCHAR 0422
ENCODING 1058
SWIDTH 600 0
DWIDTH 15 0
BBX 15 18 0 0
BITMAP
FFFE
FFFE
0380
0380
0380
0380
0380
0380
0380
0380
0380
0380
0380
0380
0380
0380
0380
0380
ENDCHAR
STARTCHAR 0423
ENCODING 1059
SWIDTH 640 0
DWIDTH 16 0
BBX 14 18 1 0
BITMAP
E00C
E01C
601C
7038
3038
3830
3870
1C60
1CE0
0CE0
0EC0
07C0
0780
0380
0300
0700
1E00
1C00
ENDCHAR
STARTCHAR 0424
ENCODING 1060
SWIDTH 760 0
DWIDTH 19 0
BBX 17 18 1 0
BITMAP
01C000
01C000
07F000
1FFC00
39CF00
71C700
E1C380
C1C180
C1C180
C1C180
C1C180
E1C380
71C700
7DCF00
1FFC00
07F000
01C000
01C000
ENDCHAR
STARTCHAR 0425
ENCODING 1061
SWIDTH 680 0
DWIDTH 17 0
BBX 15 18 1 0
BITMAP
E00E
701C
3038
3830
1C70
0CE0
0EC0
07C0
0380
0780
07C0
0EE0
1C60
1870
3838
7018
601C
E00E
ENDCHAR
STARTCHAR 0426
ENCODING 1062
SWIDTH 760 0
DWIDTH 19 0
BBX 15 22 2 -4
BITMAP
C00C
C00C
C00C
C00C
C00C
C00C
C00C
C00C
C00C
C00C
C00C
C00C
C00C
C00C
C00C
C00C
FFFE
FFFE
0006
0006
0006
0006
ENDCHAR
STARTCHAR 0427
ENCODING 1063
SWIDTH 680 0
DWIDTH 17 0
BBX 14 18 1 0
BITMAP
E00C
E00C
E00C
E00C
E00C
E00C
E00C
E00C
E00C
701C
7FFC
1FEC
000C
000C
000C
000C
000C
000C
ENDCHAR
STARTCHAR 0428
ENCODING 1064
SWIDTH 920 0
DWIDTH 23 0
BBX 21 18 1 0
BITMAP
E07038
E07038
E07038
E07038
E07038
E07038
E07038
E07038
E07038
E07038
E07038
E07038
E07038
E07038
E07038
E07038
FFFFF8
FFFFF8
ENDCHAR
STARTCHAR 0429
ENCODING 1065
SWIDTH 920 0
DWIDTH 23 0
BBX 22 22 1 -4
BITMAP
E07018
E07018
E07018
E07018
E07018
E07018
E07018
E07018
E07018
E07018
E07018
E07018
E07018
E07018
E07018
E07018
FFFFFC
FFFFFC
00000C
00000C
00000C
00000C
ENDCHAR
STARTCHAR 042A
ENCODING 1066
SWIDTH 800 0
DWIDTH 20 0
BBX 20 18 -1 0
BITMAP
FF8000
FF8000
018000
018000
018000
018000
018000
018000
01FF80
01FFE0
0180E0
018070
018030
018030
018070
0180E0
01FFE0
01FF80
ENDCHAR
STARTCHAR 042B
ENCODING 1067
SWIDTH 880 0
DWIDTH 22 0
BBX 18 18 2 0
BITMAP
C000C0
C000C0
C000C0
C000C0
C000C0
C000C0
C000C0
C000C0
FFE0C0
FFF0C0
C038C0
C01CC0
C01CC0
C01CC0
C01CC0
C038C0
FFF0C0
FFE0C0
ENDCHAR
STARTCHAR 042C
ENCODING 1068
SWIDTH 640 0
DWIDTH 16 0
BBX 14 18 2 0
BITMAP
C000
C000
C000
C000
C000
C000
C000
C000
FFE0
FFF0
C038
C018
C01C
C01C
C018
C038
FFF0
FFE0
ENDCHAR
STARTCHAR 042D
ENCODING 1069
SWIDTH 720 0
DWIDTH 18 0
BBX 17 18 1 0
BITMAP
07E000
1FF800
383C00
700E00
E00700
400300
000300
000380
03FF80
03FF80
000380
000300
C00300
E00700
700E00
783C00
1FF800
07E000
ENDCHAR
STARTCHAR 042E
ENCODING 1070
SWIDTH 1000 0
DWIDTH 25 0
BBX 22 18 2 0
BITMAP
C01F80
C07FE0
C0F0F0
C0C038
C1C018
C1801C
C3801C
C3000C
FF000C
FF000C
C3000C
C3000C
C3801C
C18018
C1C038
C0F070
C07FE0
C01F80
ENDCHAR
STARTCHAR 042F
ENCODING 1071
SWIDTH 720 0
DWIDTH 18 0
BBX 14 18 2 0
BITMAP
1FFC
7FFC
F01C
E01C
C01C
C01C
E01C
701C
3FFC
3FFC
701C
601C
E01C
E01C
E01C
E01C
C01C
C01C
ENDCHAR
STARTCHAR 0430
ENCODING 1072
SWIDTH 560 0
DWIDTH 14 0
BBX 12 13 1 0
BITMAP
1F80
3FC0
70E0
6060
0060
03E0
3FE0
7060
C060
C0E0
E1E0
7F70
3E70
ENDCHAR
STARTCHAR 0431
ENCODING 1073
SWIDTH 560 0
DWIDTH 14 0
BBX 12 19 1 0
BITMAP
00C0
00C0
03C0
1F80
3C00
7000
6F80
7FC0
70E0
E070
E030
E030
C030
E030
E030
6070
70E0
3FC0
0F80
ENDCHAR
STARTCHAR 0432
ENCODING 1074
SWIDTH 520 0
DWIDTH 13 0
BBX 12 13 1 0
BITMAP
FF80
FFE0
E060
E060
E060
FFC0
FFC0
E060
E070
E070
E060
FFE0
FFC0
ENDCHAR
STARTCHAR 0433
ENCODING 1075
SWIDTH 360 0
DWIDTH 9 0
BBX 8 13 1 0
BITMAP
FF
FF
E0
E0
E0
E0
E0
E0
E0
E0
E0
E0
E0
ENDCHAR
STARTCHAR 0434
ENCODING 1076
SWIDTH 600 0
DWIDTH 15 0
BBX 14 15 0 -2
BITMAP
0FF8
0FF8
0C38
0C38
0C38
0C38
0C38
1C38
1838
3838
3038
FFFC
FFFC
E01C
E01C
ENDCHAR
STARTCHAR 0435
ENCODING 1077
SWIDTH 560 0
DWIDTH 14 0
BBX 12 13 1 0
BITMAP
0F80
3FC0
70E0
6060
C030
FFF0
FFF0
C000
C000
6060
70E0
3FC0
1F80
ENDCHAR
STARTCHAR 0436
ENCODING 1078
SWIDTH 680 0
DWIDTH 17 0
BBX 17 13 0 0
BITMAP
618700
718600
318E00
398C00
199C00
0FF800
1FF800
199C00
398C00
318600
718700
E18300
C18380
ENDCHAR
STARTCHAR 0437
ENCODING 1079
SWIDTH 440 0
DWIDTH 11 0
BBX 9 13 1 0
BITMAP
1E00
7F00
6380
E180
0380
0F00
0F00
0380
0180
C180
E180
7F00
3E00
ENDCHAR
STARTCHAR 0438
ENCODING 1080
SWIDTH 560 0
DWIDTH 14 0
BBX 10 13 2 0
BITMAP
C0C0
C0C0
C1C0
C3C0
C7C0
C6C0
CCC0
D8C0
F8C0
F0C0
E0C0
C0C0
C0C0
ENDCHAR
STARTCHAR 0439
ENCODING 1081
SWIDTH 560 0
DWIDTH 14 0
BBX 10 18 2 0
BITMAP
6180
3F00
1E00
0000
0000
C0C0
C0C0
C1C0
C3C0
C7C0
C6C0
CCC0
D8C0
F8C0
F0C0
E0C0
C0C0
C0C0
ENDCHAR
STARTCHAR 043A
ENCODING 1082
SWIDTH 440 0
DWIDTH 11 0
BBX 10 13 1 0
BITMAP
C180
C380
C300
C700
C600
FE00
FE00
C600
C300
C380
C180
C1C0
C0C0
ENDCHAR
STARTCHAR 043B
ENCODING 1083
SWIDTH 600 0
DWIDTH 15 0
BBX 12 13 1 0
BITMAP
3FF0
3FF0
3070
3070
3070
3070
3070
3070
3070
3070
6070
E070
C070
ENDCHAR
STARTCHAR 043C
ENCODING 1084
SWIDTH 680 0
DWIDTH 17 0
BBX 15 13 1 0
BITMAP
E00E
F01E
F01E
D816
D836
C836
CC66
CC66
C646
C6C6
C2C6
C386
C386
ENDCHAR
STARTCHAR 043D
ENCODING 1085
SWIDTH 560 0
DWIDTH 14 0
BBX 10 13 2 0
BITMAP
C0C0
C0C0
C0C0
C0C0
C0C0
FFC0
FFC0
C0C0
C0C0
C0C0
C0C0
C0C0
C0C0
ENDCHAR
STARTCHAR 043E
ENCODING 1086
SWIDTH 560 0
DWIDTH 14 0
BBX 12 13 1 0
BITMAP
1F80
3FC0
70E0
6060
C070
C030
C030
C030
E070
6060
70E0
3FC0
1F80
ENDCHAR
STARTCHAR 043F
ENCODING 1087
SWIDTH 560 0
DWIDTH 14 0
BBX 10 13 2 0
BITMAP
FFC0
FFC0
C0C0
C0C0
C0C0
C0C0
C0C0
C0C0
C0C0
C0C0
C0C0
C0C0
C0C0
ENDCHAR
STARTCHAR 0440
ENCODING 1088
SWIDTH 560 0
DWIDTH 14 0
BBX 12 18 1 -5
BITMAP
CF80
DFC0
F0E0
E070
E030
E030
E030
E030
E030
E070
F0E0
DFC0
CF80
C000
C000
C000
C000
C000
ENDCHAR
STARTCHAR 0441
ENCODING 1089
SWIDTH 520 0
DWIDTH 13 0
BBX 11 13 1 0
BITMAP
1F00
3FC0
71C0
E0E0
C000
C000
C000
C000
C060
E0E0
70C0
3F80
1F00
ENDCHAR
STARTCHAR 0442
ENCODING 1090
SWIDTH 440 0
DWIDTH 11 0
BBX 10 13 1 0
BITMAP
FFC0
FFC0
0C00
0C00
0C00
0C00
0C00
0C00
0C00
0C00
0C00
0C00
0C00
ENDCHAR
STARTCHAR 0443
ENCODING 1091
SWIDTH 520 0
DWIDTH 13 0
BBX 11 18 1 -5
BITMAP
C060
C0C0
E0C0
61C0
6180
7180
3380
3300
3B00
1E00
1E00
1E00
0C00
0C00
1800
1800
F800
F000
ENDCHAR
STARTCHAR 0444
ENCODING 1092
SWIDTH 840 0
DWIDTH 21 0
BBX 17 22 2 -5
BITMAP
018000
018000
018000
018000
1FF800
3FBE00
718700
E18300
C18380
C18180
C18180
C18180
C18380
E18300
718700
3DBE00
1FF800
01C000
018000
018000
018000
018000
ENDCHAR
STARTCHAR 0445
ENCODING 1093
SWIDTH 520 0
DWIDTH 13 0
BBX 11 13 1 0
BITMAP
E0E0
61C0
7180
3300
1F00
0E00
0E00
1E00
1B00
3380
7180
61C0
C0E0
ENDCHAR
STARTCHAR 0446
ENCODING 1094
SWIDTH 560 0
DWIDTH 14 0
BBX 11 17 2 -4
BITMAP
C0C0
C0C0
C0C0
C0C0
C0C0
C0C0
C0C0
C0C0
C0C0
C0C0
C0C0
FFE0
FFE0
0060
0060
0060
0060
ENDCHAR
STARTCHAR 0447
ENCODING 1095
SWIDTH 520 0
DWIDTH 13 0
BBX 10 13 1 0
BITMAP
E0C0
E0C0
E0C0
E0C0
E0C0
E0C0
60C0
7FC0
3EC0
00C0
00C0
00C0
00C0
ENDCHAR
STARTCHAR 0448
ENCODING 1096
SWIDTH 800 0
DWIDTH 20 0
BBX 16 13 2 0
BITMAP
C183
C183
C183
C183
C183
C183
C183
C183
C183
C183
C183
FFFF
FFFF
ENDCHAR
STARTCHAR 0449
ENCODING 1097
SWIDTH 840 0
DWIDTH 21 0
BBX 18 17 2 -4
BITMAP
C18380
C18380
C18380
C18380
C18380
C18380
C18380
C18380
C18380
C18380
C18380
FFFFC0
FFFFC0
0000C0
0000C0
0000C0
0000C0
ENDCHAR
STARTCHAR 044A
ENCODING 1098
SWIDTH 640 0
DWIDTH 16 0
BBX 16 13 -1 0
BITMAP
FF00
FF00
0300
0300
0300
03FC
03FE
0307
0303
0303
0303
03FE
03FC
ENDCHAR
STARTCHAR 044B
ENCODING 1099
SWIDTH 720 0
DWIDTH 18 0
BBX 14 13 2 0
BITMAP
C00C
C00C
C00C
C00C
C00C
FF0C
FFCC
C0CC
C0CC
C0CC
C0CC
FFCC
FF8C
ENDCHAR
STARTCHAR 044C
ENCODING 1100
SWIDTH 520 0
DWIDTH 13 0
BBX 10 13 2 0
BITMAP
C000
C000
C000
C000
C000
FF00
FF80
C1C0
C0C0
C0C0
C0C0
FF80
FF00
ENDCHAR
STARTCHAR 044D
ENCODING 1101
SWIDTH 520 0
DWIDTH 13 0
BBX 11 13 1 0
BITMAP
1F00
7F80
E1C0
C0E0
0060
0FE0
0FE0
0060
C060
C0E0
E1C0
7F80
1F00
ENDCHAR
STARTCHAR 044E
ENCODING 1102
SWIDTH 760 0
DWIDTH 19 0
BBX 17 13 1 0
BITMAP
C07C00
C1FE00
C38700
C30380
C30180
FF0180
FE0180
C70180
C30180
C30380
C38700
C1FE00
C07C00
ENDCHAR
STARTCHAR 044F
ENCODING 1103
SWIDTH 560 0
DWIDTH 14 0
BBX 11 13 1 0
BITMAP
3FE0
7FE0
E060
C060
C060
E060
7FE0
3FE0
7060
6060
6060
6060
6060
ENDCHAR
STARTCHAR 0450
ENCODING 1104
SWIDTH 560 0
DWIDTH 14 0
BBX 12 18 1 0
BITMAP
1C00
0C00
0600
0300
0000
0F80
3FC0
70E0
6060
C070
FFF0
FFF0
C000
C000
6060
70E0
3FC0
1F00
ENDCHAR
STARTCHAR 0451
ENCODING 1105
SWIDTH 560 0
DWIDTH 14 0
BBX 12 18 1 0
BITMAP
1980
1980
1980
0000
0000
0F80
3FC0
70E0
6070
C030
FFF0
FFF0
C000
C000
6060
70E0
3FC0
1F80
ENDCHAR
STARTCHAR 0452
ENCODING 1106
SWIDTH 560 0
DWIDTH 14 0
BBX 13 21 -1 -3
BITMAP
1800
1800
FF00
FF00
1800
19E0
1BF8
1E38
1C18
1818
1818
1818
1818
1818
1818
1818
1818
1818
0038
03F0
03E0
ENDCHAR
STARTCHAR 0453
ENCODING 1107
SWIDTH 360 0
DWIDTH 9 0
BBX 8 18 2 0
BITMAP
0C
18
30
00
00
FF
FF
C0
C0
C0
C0
C0
C0
C0
C0
C0
C0
C0
ENDCHAR
STARTCHAR 0454
ENCODING 1108
SWIDTH 520 0
DWIDTH 13 0
BBX 11 13 1 0
BITMAP
1F00
7FC0
61C0
C060
C000
FC00
FC00
C000
C060
E0E0
70C0
7FC0
1F00
ENDCHAR
STARTCHAR 0455
ENCODING 1109
SWIDTH 520 0
DWIDTH 13 0
BBX 10 13 1 0
BITMAP
1F00
7F80
E1C0
C0C0
E000
7800
3F80
03C0
00C0
C0C0
E0C0
7F80
3F00
ENDCHAR
STARTCHAR 0456
ENCODING 1110
SWIDTH 240 0
DWIDTH 6 0
BBX 2 18 2 0
BITMAP
C0
C0
C0
00
00
C0
C0
C0
C0
C0
C0
C0
C0
C0
C0
C0
C0
C0
ENDCHAR
STARTCHAR 0457
ENCODING 1111
SWIDTH 280 0
DWIDTH 7 0
BBX 7 18 0 0
BITMAP
EE
EE
EE
00
00
38
38
38
38
38
38
38
38
38
38
38
38
38
ENDCHAR
STARTCHAR 0458
ENCODING 1112
SWIDTH 240 0
DWIDTH 6 0
BBX 4 24 0 -6
BITMAP
30
30
30
00
00
30
30
30
30
30
30
30
30
30
30
30
30
30
30
30
30
F0
E0
80
ENDCHAR
STARTCHAR 0459
ENCODING 1113
SWIDTH 920 0
DWIDTH 23 0
BBX 20 13 1 0
BITMAP
3FF000
3FF000
303000
303000
303000
303FC0
303FE0
303070
303030
303030
603030
E03FE0
C03FC0
ENDCHAR
STARTCHAR 045A
ENCODING 1114
SWIDTH 800 0
DWIDTH 20 0
BBX 19 13 1 0
BITMAP
C0E000
C0E000
C0E000
C0E000
C0E000
FFFF80
FFFFC0
C0E0E0
C0E060
C0E060
C0E0E0
C0FFC0
C0FF80
ENDCHAR
STARTCHAR 045B
ENCODING 1115
SWIDTH 560 0
DWIDTH 14 0
BBX 13 18 -1 0
BITMAP
1800
1800
FF00
FF00
1800
19E0
1BF8
1E38
1C18
1818
1818
1818
1818
1818
1818
1818
1818
1818
ENDCHAR
STARTCHAR 045C
ENCODING 1116
SWIDTH 440 0
DWIDTH 11 0
BBX 10 18 1 0
BITMAP
0600
0C00
1800
0000
0000
C180
C380
C300
C700
C600
FE00
FE00
C600
C300
C380
C180
C1C0
C0C0
ENDCHAR
STARTCHAR 045D
ENCODING 1117
SWIDTH 560 0
DWIDTH 14 0
BBX 10 18 2 0
BITMAP
3000
1800
0C00
0000
0000
C0C0
C0C0
C1C0
C3C0
C7C0
C6C0
CCC0
D8C0
F8C0
F0C0
E0C0
C0C0
C0C0
ENDCHAR
STARTCHAR 045E
ENCODING 1118
SWIDTH 520 0
DWIDTH 13 0
BBX 11 23 1 -5
BITMAP
2180
3F80
1E00
0000
0000
C060
C0C0
E0C0
61C0
6180
7180
3380
3300
3B00
1E00
1E00
1E00
0C00
0C00
1800
1800
F800
F000
ENDCHAR
STARTCHAR 045F
ENCODING 1119
SWIDTH 560 0
DWIDTH 14 0
BBX 10 17 2 -4
BITMAP
C0C0
C0C0
C0C0
C0C0
C0C0
C0C0
C0C0
C0C0
C0C0
C0C0
C0C0
FFC0
FFC0
0C00
0C00
0C00
0C00
ENDCHAR
STARTCHAR 0462
ENCODING 1122
SWIDTH 760 0
DWIDTH 19 0
BBX 18 18 0 0
BITMAP
060000
060000
FFF000
FFF000
060000
060000
060000
060000
07FF00
07FF80
0601C0
0600C0
0600C0
0600C0
0600C0
0601C0
07FF80
07FE00
ENDCHAR
STARTCHAR 0463
ENCODING 1123
SWIDTH 600 0
DWIDTH 15 0
BBX 13 17 1 0
BITMAP
3000
3000
3000
3000
FC00
FC00
3000
3000
3000
3FC0
3FF0
3030
3038
3038
3030
3FF0
3FE0
ENDCHAR
STARTCHAR 0472
ENCODING 1138
SWIDTH 760 0
DWIDTH 19 0
BBX 18 18 1 0
BITMAP
03F000
0FFC00
3C1E00
700700
700380
E00180
E00180
CF0180
FFC3C0
E0FFC0
C07980
E00180
600380
700300
380700
3C1E00
0FFC00
03F000
ENDCHAR
STARTCHAR 0473
ENCODING 1139
SWIDTH 560 0
DWIDTH 14 0
BBX 12 13 1 0
BITMAP
1F80
3FC0
70E0
6060
E070
DC30
FFF0
C3B0
C070
6060
70E0
3FC0
1F80
ENDCHAR
STARTCHAR 0474
ENCODING 1140
SWIDTH 800 0
DWIDTH 20 0
BBX 17 18 2 0
BITMAP
E00780
600F80
600C00
701C00
301800
381800
381800
183800
1C3000
0C3000
0C7000
0E6000
066000
066000
07C000
03C000
03C000
038000
ENDCHAR
STARTCHAR 0475
ENCODING 1141
SWIDTH 640 0
DWIDTH 16 0
BBX 12 13 2 0
BITMAP
C070
E0F0
60C0
60C0
3180
3180
3180
1900
1B00
1B00
0F00
0E00
0E00
ENDCHAR
STARTCHAR 0490
ENCODING 1168
SWIDTH 480 0
DWIDTH 12 0
BBX 15 22 1 0
BITMAP
000E
001C
0018
0030
FFE0
FFE0
E000
E000
E000
E000
E000
E000
E000
E000
E000
E000
E000
E000
E000
E000
E000
E000
ENDCHAR
STARTCHAR 0491
ENCODING 1169
SWIDTH 400 0
DWIDTH 10 0
BBX 12 17 2 0
BITMAP
0070
00E0
00C0
0180
FF00
FF00
C000
C000
C000
C000
C000
C000
C000
C000
C000
C000
C000
ENDCHAR
STARTCHAR 0492
ENCODING 1170
SWIDTH 520 0
DWIDTH 13 0
BBX 12 18 1 0
BITMAP
7FF0
7FF0
6000
6000
6000
6000
6000
6000
FFC0
FFC0
6000
6000
6000
6000
6000
6000
6000
6000
ENDCHAR
STARTCHAR 0493
ENCODING 1171
SWIDTH 400 0
DWIDTH 10 0
BBX 9 13 1 0
BITMAP
7F80
7F80
6000
6000
6000
FE00
FE00
6000
6000
6000
6000
6000
6000
ENDCHAR
STARTCHAR 0496
ENCODING 1174
SWIDTH 1040 0
DWIDTH 26 0
BBX 25 22 0 -4
BITMAP
70180E00
38180C00
18181C00
1C183800
0E183000
06187000
0718E000
03FFC000
03FFC000
0718E000
06187000
0E183000
1C183800
18181C00
38180C00
30180E00
70180780
E0180380
00000180
00000180
00000180
00000180
ENDCHAR
STARTCHAR 0497
ENCODING 1175
SWIDTH 800 0
DWIDTH 20 0
BBX 20 17 0 -4
BITMAP
7060C0
3061C0
386180
186380
1C6300
0FFF00
0FFF00
1C6300
186380
3861C0
3060C0
6060F0
E06070
000030
000030
000030
000030
ENDCHAR
STARTCHAR 0498
ENCODING 1176
SWIDTH 600 0
DWIDTH 15 0
BBX 13 23 1 -5
BITMAP
0F80
1FE0
38F0
7070
6030
6030
0070
00E0
07C0
07E0
0070
0038
E038
6038
6030
7070
3FE0
1FC0
0200
0780
0180
1180
0F00
ENDCHAR
STARTCHAR 0499
ENCODING 1177
SWIDTH 440 0
DWIDTH 11 0
BBX 9 18 1 -5
BITMAP
1E00
7F00
6380
E180
E180
0380
0F00
0F00
0180
C180
E180
7F80
3F00
0800
1E00
0600
0600
3C00
ENDCHAR
STARTCHAR 049A
ENCODING 1178
SWIDTH 680 0
DWIDTH 17 0
BBX 14 22 2 -4
BITMAP
C0E0
C0C0
C1C0
C380
C300
C700
CE00
FC00
FC00
CE00
C700
C300
C380
C1C0
C0C0
C0E0
C07C
C07C
001C
001C
001C
001C
ENDCHAR
STARTCHAR 049B
ENCODING 1179
SWIDTH 520 0
DWIDTH 13 0
BBX 11 17 2 -4
BITMAP
C180
C380
C300
C700
C600
FE00
FE00
C600
C700
C380
C180
C1E0
C0E0
0060
0060
0060
0060
ENDCHAR
STARTCHAR 049C
ENCODING 1180
SWIDTH 600 0
DWIDTH 15 0
BBX 13 18 2 0
BITMAP
C070
C060
C0E0
C9C0
C980
CB80
CF00
FE00
FE00
CF00
CB80
C980
C9C0
C8E0
C060
C070
C030
C038
ENDCHAR
STARTCHAR 049D
ENCODING 1181
SWIDTH 520 0
DWIDTH 13 0
BBX 10 13 2 0
BITMAP
C180
C380
D300
D700
D600
FE00
FE00
D600
D700
D380
C180
C1C0
C0C0
ENDCHAR
STARTCHAR 04A0
ENCODING 1184
SWIDTH 600 0
DWIDTH 15 0
BBX 18 18 -5 0
BITMAP
FF8180
FF8380
018700
018600
018E00
019C00
019800
01F800
01F800
019800
019C00
018E00
018600
018700
018380
018180
0181C0
0180C0
ENDCHAR
STARTCHAR 04A1
ENCODING 1185
SWIDTH 440 0
DWIDTH 11 0
BBX 15 13 -4 0
BITMAP
FE0C
FE1C
0618
0638
0630
07F0
07F0
0630
0618
061C
060C
060E
0606
ENDCHAR
STARTCHAR 04A2
ENCODING 1186
SWIDTH 720 0
DWIDTH 18 0
BBX 15 22 2 -4
BITMAP
C00C
C00C
C00C
C00C
C00C
C00C
C00C
C00C
FFFC
FFFC
C00C
C00C
C00C
C00C
C00C
C00C
C00E
C00E
0006
0006
0006
0006
ENDCHAR
STARTCHAR 04A3
ENCODING 1187
SWIDTH 560 0
DWIDTH 14 0
BBX 11 17 2 -4
BITMAP
C0C0
C0C0
C0C0
C0C0
C0C0
FFC0
FFC0
C0C0
C0C0
C0C0
C0C0
C0E0
C0E0
0060
0060
0060
0060
ENDCHAR
STARTCHAR 04AA
ENCODING 1194
SWIDTH 720 0
DWIDTH 18 0
BBX 16 23 1 -5
BITMAP
03F0
0FF8
1C1C
300E
7006
6007
6000
E000
E000
E000
E000
E003
6007
7006
300E
3C1E
1FFC
07F0
0080
01E0
0060
0460
03C0
ENDCHAR
STARTCHAR 04AB
ENCODING 1195
SWIDTH 520 0
DWIDTH 13 0
BBX 11 18 1 -5
BITMAP
1F00
3FC0
71C0
E0E0
C060
C000
C000
C000
C060
E060
60C0
7FC0
3F80
0400
0F00
0300
2300
1E00
ENDCHAR
STARTCHAR 04AE
ENCODING 1198
SWIDTH 680 0
DWIDTH 17 0
BBX 15 18 1 0
BITMAP
E00E
E00E
701C
3018
3838
1C70
1C60
0EE0
06C0
07C0
0380
0380
0380
0380
0380
0380
0380
0380
ENDCHAR
STARTCHAR 04AF
ENCODING 1199
SWIDTH 520 0
DWIDTH 13 0
BBX 11 18 1 -5
BITMAP
C060
C0C0
E0C0
60C0
6180
3180
3180
3300
1B00
1F00
1E00
0E00
0E00
0C00
0C00
0C00
0C00
0C00
ENDCHAR
STARTCHAR 04B0
ENCODING 1200
SWIDTH 680 0
DWIDTH 17 0
BBX 15 18 1 0
BITMAP
C00E
E00E
701C
7018
3838
1830
1C70
0EE0
06C0
07C0
0380
0380
0380
3FF0
3FF0
0380
0380
0380
ENDCHAR
STARTCHAR 04B1
ENCODING 1201
SWIDTH 520 0
DWIDTH 13 0
BBX 11 18 1 -5
BITMAP
C060
C0C0
E0C0
60C0
6180
3180
3180
3300
1B00
1F00
1E00
0E00
0E00
7F80
0C00
0C00
0C00
0C00
ENDCHAR
STARTCHAR 04B2
ENCODING 1202
SWIDTH 720 0
DWIDTH 18 0
BBX 16 22 1 -4
BITMAP
E00E
701C
3038
3830
1C70
0CE0
0EC0
07C0
0380
0780
07C0
0EE0
1C60
1870
3838
7018
601F
E00F
0003
0003
0003
0003
ENDCHAR
STARTCHAR 04B3
ENCODING 1203
SWIDTH 520 0
DWIDTH 13 0
BBX 12 17 1 -4
BITMAP
C0C0
61C0
7180
3300
1F00
1E00
0C00
1E00
1F00
3300
6180
61F0
C0F0
0030
0030
0030
0030
ENDCHAR
STARTCHAR 04B6
ENCODING 1206
SWIDTH 680 0
DWIDTH 17 0
BBX 15 22 2 -4
BITMAP
C018
C018
C018
C018
C018
C018
C018
C018
C018
F038
7FF8
1FD8
0018
0018
0018
0018
001E
001E
000E
000E
000E
000E
ENDCHAR
STARTCHAR 04B7
ENCODING 1207
SWIDTH 520 0
DWIDTH 13 0
BBX 11 17 1 -4
BITMAP
C0C0
C0C0
C0C0
C0C0
C0C0
C0C0
E0C0
7FC0
3EC0
00C0
00C0
00E0
00E0
0060
0060
0060
0060
ENDCHAR
STARTCHAR 04B8
ENCODING 1208
SWIDTH 680 0
DWIDTH 17 0
BBX 13 18 2 0
BITMAP
C018
C018
C018
C018
C218
C218
C218
C218
C218
F278
7FF8
1F98
0218
0218
0218
0018
0018
0018
ENDCHAR
STARTCHAR 04B9
ENCODING 1209
SWIDTH 520 0
DWIDTH 13 0
BBX 10 13 1 0
BITMAP
C0C0
C0C0
C0C0
C0C0
CCC0
ECC0
EDC0
7FC0
1EC0
0CC0
0CC0
00C0
00C0
ENDCHAR
STARTCHAR 04BA
ENCODING 1210
SWIDTH 680 0
DWIDTH 17 0
BBX 13 18 2 0
BITMAP
C000
C000
C000
C000
C000
C000
DFC0
FFF0
E078
C018
C018
C018
C018
C018
C018
C018
C018
C018
ENDCHAR
STARTCHAR 04BB
ENCODING 1211
SWIDTH 560 0
DWIDTH 14 0
BBX 10 18 2 0
BITMAP
C000
C000
C000
C000
C000
CF00
DFC0
F0C0
E0C0
C0C0
C0C0
C0C0
C0C0
C0C0
C0C0
C0C0
C0C0
C0C0
ENDCHAR
STARTCHAR 04C0
ENCODING 1216
SWIDTH 280 0
DWIDTH 7 0
BBX 3 18 2 0
BITMAP
E0
E0
E0
E0
E0
E0
E0
E0
E0
E0
E0
E0
E0
E0
E0
E0
E0
E0
ENDCHAR
STARTCHAR 04CB
ENCODING 1227
SWIDTH 680 0
DWIDTH 17 0
BBX 14 22 1 -4
BITMAP
E00C
E00C
E00C
E00C
E00C
E00C
E00C
E00C
E00C
701C
7FFC
1FEC
000C
000C
000C
000C
003C
003C
0038
0038
0038
0038
ENDCHAR
STARTCHAR 04CC
ENCODING 1228
SWIDTH 520 0
DWIDTH 13 0
BBX 10 17 1 -4
BITMAP
E0C0
E0C0
E0C0
E0C0
E0C0
E0C0
60C0
7FC0
3EC0
00C0
00C0
01C0
01C0
0180
0180
0180
0180
ENDCHAR
STARTCHAR 04CF
ENCODING 1231
SWIDTH 280 0
DWIDTH 7 0
BBX 3 18 2 0
BITMAP
E0
E0
E0
E0
E0
E0
E0
E0
E0
E0
E0
E0
E0
E0
E0
E0
E0
E0
ENDCHAR
STARTCHAR 04D8
ENCODING 1240
SWIDTH 760 0
DWIDTH 19 0
BBX 18 18 1 0
BITMAP
03F000
0FFC00
3C1E00
300700
700380
200380
000180
000180
FFFFC0
FFFFC0
C00180
E00180
600380
700380
380700
3C1E00
0FFC00
03F000
ENDCHAR
STARTCHAR 04D9
ENCODING 1241
SWIDTH 560 0
DWIDTH 14 0
BBX 12 13 1 0
BITMAP
1F80
3FC0
70E0
6060
0070
0030
FFF0
FFF0
C070
E060
70E0
3FC0
1F00
ENDCHAR
STARTCHAR 04E2
ENCODING 1250
SWIDTH 720 0
DWIDTH 18 0
BBX 14 21 2 0
BITMAP
0FE0
0FE0
0000
C00C
C00C
C01C
C03C
C07C
C07C
C0EC
C1CC
C38C
C70C
CE0C
DC0C
F80C
F00C
F00C
E00C
C00C
C00C
ENDCHAR
STARTCHAR 04E3
ENCODING 1251
SWIDTH 560 0
DWIDTH 14 0
BBX 10 16 2 0
BITMAP
7F00
7F00
0000
C0C0
C0C0
C1C0
C3C0
C7C0
C6C0
CCC0
D8C0
F8C0
F0C0
E0C0
C0C0
C0C0
ENDCHAR
STARTCHAR 04E8
ENCODING 1256
SWIDTH 760 0
DWIDTH 19 0
BBX 18 18 1 0
BITMAP
03F000
0FFC00
3C1E00
300700
700380
600380
E00180
C00180
FFFFC0
FFFFC0
C00180
E00180
600380
700380
380700
3C1E00
1FFC00
03F000
ENDCHAR
STARTCHAR 04E9
ENCODING 1257
SWIDTH 560 0
DWIDTH 14 0
BBX 12 13 1 0
BITMAP
1F80
3FC0
70E0
6060
C070
FFF0
FFF0
C030
E070
6060
70E0
3FC0
1F00
ENDCHAR
STARTCHAR 04EE
ENCODING 1262
SWIDTH 640 0
DWIDTH 16 0
BBX 14 22 1 0
BITMAP
0FE0
0FE0
0000
0000
E00C
E01C
601C
7038
3038
3830
3870
1C60
1CE0
0CE0
0EC0
07C0
0780
0380
0300
0700
1E00
1C00
ENDCHAR
STARTCHAR 04EF
ENCODING 1263
SWIDTH 520 0
DWIDTH 13 0
BBX 11 21 1 -5
BITMAP
3F80
3F80
0000
C060
C0C0
E0C0
61C0
6180
7180
3380
3300
3B00
1E00
1E00
1E00
0C00
0C00
1800
1800
F800
F000
ENDCHAR
STARTCHAR 1E80
ENCODING 7808
SWIDTH 960 0
DWIDTH 24 0
BBX 22 23 1 0
BITMAP
00E000
007000
003000
000000
000000
C0701C
E0781C
E0781C
E07818
60D818
60DC38
70CC38
70CC30
318E30
318670
398670
1B8660
1B0760
1B0360
1F03C0
0E03C0
0E01C0
0E01C0
ENDCHAR
STARTCHAR 1E81
ENCODING 7809
SWIDTH 720 0
DWIDTH 18 0
BBX 18 18 0 0
BITMAP
038000
018000
00C000
000000
000000
E1C1C0
61E180
61E180
61E380
736300
337300
333300
333600
1A3600
1E1E00
1E1E00
1E1C00
0C1C00
ENDCHAR
STARTCHAR 1E82
ENCODING 7810
SWIDTH 960 0
DWIDTH 24 0
BBX 22 23 1 0
BITMAP
000E00
000C00
001800
000000
000000
C0701C
E0781C
E0781C
E07818
60D818
60DC38
70CC38
70CC30
318E30
318670
398670
1B8660
1B0760
1B0360
1F03C0
0E03C0
0E01C0
0E01C0
ENDCHAR
STARTCHAR 1E83
ENCODING 7811
SWIDTH 720 0
DWIDTH 18 0
BBX 18 18 0 0
BITMAP
006000
00C000
018000
000000
000000
E1C1C0
61E180
61E180
61E380
736300
337300
333300
333600
1A3600
1E1E00
1E1E00
1E1C00
0C1C00
ENDCHAR
STARTCHAR 1E84
ENCODING 7812
SWIDTH 960 0
DWIDTH 24 0
BBX 22 23 1 0
BITMAP
01CC00
01CC00
01CC00
000000
000000
C0701C
E0781C
E0781C
E07818
60D818
60DC38
70CC38
70CC30
318E30
318670
398670
1B8660
1B0760
1B0360
1F03C0
0E03C0
0E01C0
0E01C0
ENDCHAR
STARTCHAR 1E85
ENCODING 7813
SWIDTH 720 0
DWIDTH 18 0
BBX 18 18 0 0
BITMAP
077000
077000
077000
000000
000000
E1C1C0
61E180
61E180
61E380
736300
337300
333300
333600
1A3600
1E1E00
1E1E00
1E1C00
0C1C00
ENDCHAR
STARTCHAR 1EF2
ENCODING 7922
SWIDTH 680 0
DWIDTH 17 0
BBX 15 23 1 0
BITMAP
0E00
0700
0300
0000
0000
E00E
E00E
701C
3018
3838
1C70
1C60
0EE0
06C0
07C0
0380
0380
0380
0380
0380
0380
0380
0380
ENDCHAR
STARTCHAR 1EF3
ENCODING 7923
SWIDTH 520 0
DWIDTH 13 0
BBX 11 23 1 -5
BITMAP
3800
1800
0C00
0000
0000
C0E0
C0C0
E0C0
61C0
6180
7180
3300
3300
3B00
1E00
1E00
1E00
0C00
0C00
1800
1800
F800
F000
ENDCHAR
STARTCHAR 2002
ENCODING 8194
SWIDTH 520 0
DWIDTH 13 0
BBX 0 0 0 0
BITMAP
ENDCHAR
STARTCHAR 2013
ENCODING 8211
SWIDTH 560 0
DWIDTH 14 0
BBX 14 2 0 6
BITMAP
FFFC
FFFC
ENDCHAR
STARTCHAR 2014
ENCODING 8212
SWIDTH 1000 0
DWIDTH 25 0
BBX 25 2 0 6
BITMAP
FFFFFF80
FFFFFF80
ENDCHAR
STARTCHAR 2015
ENCODING 8213
SWIDTH 1000 0
DWIDTH 25 0
BBX 25 2 0 6
BITMAP
FFFFFF80
FFFFFF80
ENDCHAR
STARTCHAR 2017
ENCODING 8215
SWIDTH 560 0
DWIDTH 14 0
BBX 15 4 -1 -6
BITMAP
FFFE
0000
0000
FFFE
ENDCHAR
STARTCHAR 2018
ENCODING 8216
SWIDTH 240 0
DWIDTH 6 0
BBX 2 6 2 12
BITMAP
40
80
80
C0
C0
C0
ENDCHAR
STARTCHAR 2019
ENCODING 8217
SWIDTH 240 0
DWIDTH 6 0
BBX 2 6 2 12
BITMAP
C0
C0
C0
40
C0
80
ENDCHAR
STARTCHAR 201A
ENCODING 8218
SWIDTH 240 0
DWIDTH 6 0
BBX 2 6 2 -3
BITMAP
C0
C0
C0
40
40
80
ENDCHAR
STARTCHAR 201B
ENCODING 8219
SWIDTH 240 0
DWIDTH 6 0
BBX 2 6 2 12
BITMAP
C0
C0
C0
80
80
40
ENDCHAR
STARTCHAR 201C
ENCODING 8220
SWIDTH 320 0
DWIDTH 8 0
BBX 6 6 1 12
BITMAP
24
44
88
EC
EC
EC
ENDCHAR
STARTCHAR 201D
ENCODING 8221
SWIDTH 320 0
DWIDTH 8 0
BBX 7 6 1 12
BITMAP
EE
EE
EE
44
44
88
ENDCHAR
STARTCHAR 201E
ENCODING 8222
SWIDTH 320 0
DWIDTH 8 0
BBX 6 6 1 -3
BITMAP
CC
CC
CC
44
44
CC
ENDCHAR
STARTCHAR 2020
ENCODING 8224
SWIDTH 560 0
DWIDTH 14 0
BBX 12 22 1 -4
BITMAP
0600
0600
0600
0600
0600
FFF0
FFF0
0600
0600
0600
0600
0600
0600
0600
0600
0600
0600
0600
0600
0600
0600
0600
ENDCHAR
STARTCHAR 2021
ENCODING 8225
SWIDTH 560 0
DWIDTH 14 0
BBX 12 22 1 -4
BITMAP
0600
0600
0600
0600
0600
FFF0
FFF0
0600
0600
0600
0600
0600
0600
0600
0600
FFF0
FFF0
0600
0600
0600
0600
0600
ENDCHAR
STARTCHAR 2022
ENCODING 8226
SWIDTH 360 0
DWIDTH 9 0
BBX 6 6 1 6
BITMAP
38
7C
FC
FC
7C
78
ENDCHAR
STARTCHAR 2026
ENCODING 8230
SWIDTH 1000 0
DWIDTH 25 0
BBX 19 3 3 0
BITMAP
C0E060
C0E060
C0E060
ENDCHAR
STARTCHAR 2030
ENCODING 8240
SWIDTH 1000 0
DWIDTH 25 0
BBX 25 18 0 0
BITMAP
3C0C0000
7E180000
C3180000
C3300000
C3200000
66600000
7C400000
00C00000
00800000
01800000
01000000
033E1F00
06663300
06C36180
0CC36180
08432180
187E3F00
103C1E00
ENDCHAR
STARTCHAR 2032
ENCODING 8242
SWIDTH 200 0
DWIDTH 5 0
BBX 3 7 1 10
BITMAP
60
60
40
C0
C0
C0
80
ENDCHAR
STARTCHAR 2033
ENCODING 8243
SWIDTH 360 0
DWIDTH 9 0
BBX 7 7 1 10
BITMAP
26
64
6C
6C
4C
C8
C8
ENDCHAR
STARTCHAR 2039
ENCODING 8249
SWIDTH 320 0
DWIDTH 8 0
BBX 4 7 2 4
BITMAP
30
70
C0
C0
E0
30
10
ENDCHAR
STARTCHAR 203A
ENCODING 8250
SWIDTH 320 0
DWIDTH 8 0
BBX 4 8 2 3
BITMAP
80
C0
60
30
30
70
C0
80
ENDCHAR
STARTCHAR 203C
ENCODING 8252
SWIDTH 520 0
DWIDTH 13 0
BBX 8 18 3 0
BITMAP
C3
C3
C3
C3
C3
C3
C3
C3
C3
C3
C3
C3
83
83
00
C3
C3
C3
ENDCHAR
STARTCHAR 203E
ENCODING 8254
SWIDTH 320 0
DWIDTH 8 0
BBX 15 1 -3 21
BITMAP
FFFE
ENDCHAR
STARTCHAR 2044
ENCODING 8260
SWIDTH 280 0
DWIDTH 7 0
BBX 12 18 -3 0
BITMAP
0010
0030
0020
0040
00C0
0080
0180
0100
0200
0600
0400
0C00
1800
1000
3000
2000
4000
C000
ENDCHAR
STARTCHAR 2070
ENCODING 8304
SWIDTH 320 0
DWIDTH 8 0
BBX 8 11 0 7
BITMAP
3C
66
42
43
C3
C3
C3
43
43
66
3C
ENDCHAR
STARTCHAR 2074
ENCODING 8308
SWIDTH 320 0
DWIDTH 8 0
BBX 8 11 0 7
BITMAP
04
0C
1C
14
24
64
C4
FF
04
04
04
ENDCHAR
STARTCHAR 2075
ENCODING 8309
SWIDTH 320 0
DWIDTH 8 0
BBX 8 11 0 7
BITMAP
7E
60
60
40
7E
47
03
03
C3
66
3C
ENDCHAR
STARTCHAR 2076
ENCODING 8310
SWIDTH 320 0
DWIDTH 8 0
BBX 8 11 0 7
BITMAP
1C
76
63
40
DC
E6
C3
C3
43
66
3C
ENDCHAR
STARTCHAR 2077
ENCODING 8311
SWIDTH 320 0
DWIDTH 8 0
BBX 8 11 0 7
BITMAP
FF
03
02
04
0C
08
18
10
10
30
30
ENDCHAR
STARTCHAR 2078
ENCODING 8312
SWIDTH 320 0
DWIDTH 8 0
BBX 8 11 0 7
BITMAP
3C
66
43
43
66
3C
66
C3
C3
63
7E
ENDCHAR
STARTCHAR 2079
ENCODING 8313
SWIDTH 320 0
DWIDTH 8 0
BBX 8 11 0 7
BITMAP
3C
66
C3
C3
C3
67
3F
03
42
66
3C
ENDCHAR
STARTCHAR 207F
ENCODING 8319
SWIDTH 360 0
DWIDTH 9 0
BBX 7 8 1 7
BITMAP
FC
E6
C6
C6
C6
C6
C6
C6
ENDCHAR
STARTCHAR 20A3
ENCODING 8355
SWIDTH 560 0
DWIDTH 14 0
BBX 13 18 1 0
BITMAP
FFF0
FFF0
C000
C000
C000
C338
C378
C340
FF80
FF80
C380
C380
C380
C380
C380
C380
C380
C380
ENDCHAR
STARTCHAR 20A4
ENCODING 8356
SWIDTH 560 0
DWIDTH 14 0
BBX 12 18 1 0
BITMAP
0F80
3FC0
70E0
6070
E070
E030
6000
7000
3000
FF00
1800
FF00
1800
3000
3000
7F30
FFF0
43E0
ENDCHAR
STARTCHAR 20A7
ENCODING 8359
SWIDTH 1080 0
DWIDTH 27 0
BBX 22 18 3 0
BITMAP
FC0000
FE0000
C70000
C38000
C38000
C38000
C38000
C70000
FE2000
FC2000
C07878
C0208C
C02080
C020F0
C0201C
C0218C
C0308C
C038F8
ENDCHAR
STARTCHAR 20AC
ENCODING 8364
SWIDTH 560 0
DWIDTH 14 0
BBX 13 18 0 0
BITMAP
03F0
07F8
0E18
1C00
1800
3800
3000
FFE0
3000
3000
FFC0
3800
3800
1800
1C00
0E18
07F8
03E0
ENDCHAR
STARTCHAR 20AF
ENCODING 8367
SWIDTH 920 0
DWIDTH 23 0
BBX 20 20 1 -4
BITMAP
0FC000
3EE000
663000
443000
4438E0
8C1B30
0C1A30
0C3630
083610
083630
183430
186430
186C20
10CC60
278EC0
FE0F80
000800
001800
001800
001800
ENDCHAR
STARTCHAR 20DD
ENCODING 8413
SWIDTH 1000 0
DWIDTH 25 0
BBX 17 18 4 0
BITMAP
03F000
0F7800
380E00
600300
400300
C00180
800080
800080
800080
800080
800080
800080
C00180
400100
600300
380E00
1F7800
07E000
ENDCHAR
STARTCHAR 2105
ENCODING 8453
SWIDTH 880 0
DWIDTH 22 0
BBX 20 19 1 0
BITMAP
080000
3E0200
630600
430400
C00C00
C01800
C01800
C33000
632000
3E67C0
084FE0
00CC60
009830
019830
011830
031830
020C60
060FE0
0C0780
ENDCHAR
STARTCHAR 210F
ENCODING 8463
SWIDTH 560 0
DWIDTH 14 0
BBX 12 18 1 0
BITMAP
0100
1E00
0620
06C0
0F00
0C00
3C70
5CF0
1930
1A30
3C60
3860
3060
70C0
60C0
60D0
E0E0
C0C0
ENDCHAR
STARTCHAR 2111
ENCODING 8465
SWIDTH 720 0
DWIDTH 18 0
BBX 14 20 2 -2
BITMAP
0400
3F80
6380
C1C4
80C4
80E8
8078
8000
4038
30EC
08C4
00C0
00E0
C0E0
6070
3070
3870
1C60
0FC0
0200
ENDCHAR
STARTCHAR 2112
ENCODING 8466
SWIDTH 840 0
DWIDTH 21 0
BBX 19 19 1 0
BITMAP
038380
0C0C40
180820
101820
101840
101840
103880
083900
043E00
03F800
003000
003000
003000
003000
006000
706040
8EC080
81C080
7E3F00
ENDCHAR
STARTCHAR 2113
ENCODING 8467
SWIDTH 320 0
DWIDTH 8 0
BBX 8 18 0 0
BITMAP
07
0D
09
19
11
12
32
34
38
30
60
60
E0
60
60
48
78
70
ENDCHAR
STARTCHAR 2116
ENCODING 8470
SWIDTH 1080 0
DWIDTH 27 0
BBX 25 18 1 0
BITMAP
E0307C00
E030FE00
F031C700
F0318300
D8330180
D8330180
CC330180
CE330180
C6330180
C7338300
C331C700
C1B0FE00
C1B07C00
C0F00000
C0F00000
C0700000
C073FF80
C033FF80
ENDCHAR
STARTCHAR 2118
ENCODING 8472
SWIDTH 640 0
DWIDTH 16 0
BBX 13 14 2 -4
BITMAP
0800
10F0
2310
4418
4818
5010
6230
6620
7440
B380
9000
9000
9000
E000
ENDCHAR
STARTCHAR 211C
ENCODING 8476
SWIDTH 760 0
DWIDTH 19 0
BBX 15 15 2 0
BITMAP
3C78
7EFC
C70C
870E
830C
C318
E3E0
7370
1338
1338
0318
0318
361C
7E1E
9C0C
ENDCHAR
STARTCHAR 211E
ENCODING 8478
SWIDTH 760 0
DWIDTH 19 0
BBX 12 17 4 0
BITMAP
FF80
FFE0
C0E0
C070
C030
C030
C070
C060
FFE0
FF80
C330
C3F0
C1E0
C0C0
C1E0
C1F0
C330
ENDCHAR
STARTCHAR 2120
ENCODING 8480
SWIDTH 600 0
DWIDTH 15 0
BBX 13 7 1 10
BITMAP
7318
8A98
82A8
72A8
8AA8
8A68
7268
ENDCHAR
STARTCHAR 2122
ENCODING 8482
SWIDTH 1000 0
DWIDTH 25 0
BBX 21 11 2 7
BITMAP
FFB818
183818
183C38
183C28
183428
183668
183648
1832C8
1833C8
183388
183188
ENDCHAR
STARTCHAR 2126
ENCODING 8486
SWIDTH 760 0
DWIDTH 19 0
BBX 17 18 1 0
BITMAP
03F000
0FFC00
3C1E00
380700
700300
E00380
E00180
C00180
C00180
C00180
C00180
E00380
600300
300700
180E00
0C1800
FE3F80
FE3F80
ENDCHAR
STARTCHAR 2128
ENCODING 8488
SWIDTH 600 0
DWIDTH 15 0
BBX 15 22 0 -5
BITMAP
03F0
0C38
0018
000C
000C
000C
060C
0618
0630
01C0
03F0
0C78
181C
000C
000E
0006
7006
8C0C
8E0C
8E08
0618
01E0
ENDCHAR
STARTCHAR 212D
ENCODING 8493
SWIDTH 680 0
DWIDTH 17 0
BBX 15 19 1 -2
BITMAP
0F3C
18FE
308C
2100
6100
6180
61C0
60E0
E0E0
E070
E430
6430
6430
7230
31E2
3802
1E0C
0FF8
03E0
ENDCHAR
STARTCHAR 212E
ENCODING 8494
SWIDTH 600 0
DWIDTH 15 0
BBX 12 13 1 0
BITMAP
0F80
3DE0
3060
6030
6030
E030
FFF0
E000
6000
6030
7020
3DE0
0F80
ENDCHAR
STARTCHAR 212F
ENCODING 8495
SWIDTH 480 0
DWIDTH 12 0
BBX 10 12 1 0
BITMAP
03C0
0CC0
18C0
30C0
3180
7600
7800
6000
E000
6080
7300
3C00
ENDCHAR
STARTCHAR 2135
ENCODING 8501
SWIDTH 520 0
DWIDTH 13 0
BBX 11 15 1 1
BITMAP
8400
87E0
C7E0
63E0
30A0
3900
5900
4D00
C700
E300
F380
7180
78C0
F860
F040
ENDCHAR
STARTCHAR 2136
ENCODING 8502
SWIDTH 440 0
DWIDTH 11 0
BBX 10 13 1 0
BITMAP
8000
FF00
FF80
7FC0
00C0
0040
0040
0040
0080
0080
7FC0
FFC0
FF80
ENDCHAR
STARTCHAR 2137
ENCODING 8503
SWIDTH 320 0
DWIDTH 8 0
BBX 6 13 2 0
BITMAP
40
F8
78
38
08
08
08
08
08
08
FC
F4
E0
ENDCHAR
STARTCHAR 215B
ENCODING 8539
SWIDTH 840 0
DWIDTH 21 0
BBX 19 18 1 0
BITMAP
100600
300400
F00800
101800
101000
103000
102000
1047C0
10CC40
108860
018C40
0307C0
020C40
060860
040820
080860
180C40
100780
ENDCHAR
STARTCHAR 215C
ENCODING 8540
SWIDTH 840 0
DWIDTH 21 0
BBX 19 18 1 0
BITMAP
3C0300
6E0200
C20400
C20C00
1E0800
1E1000
023000
832380
C266C0
E64C60
7C8C60
018440
010780
020C60
060820
040820
0C0C40
180780
ENDCHAR
STARTCHAR 215D
ENCODING 8541
SWIDTH 840 0
DWIDTH 21 0
BBX 19 18 1 0
BITMAP
7E0300
400600
400400
400C00
FC0800
C61000
023000
022380
C664C0
C4CC60
788C60
018440
010780
020C60
060820
040820
0C0C40
180780
ENDCHAR
STARTCHAR 215E
ENCODING 8542
SWIDTH 840 0
DWIDTH 21 0
BBX 19 18 1 0
BITMAP
FE0400
020800
041800
041000
082000
186000
104000
10C780
308CC0
210840
030840
0204C0
040780
0C0C40
080860
180860
100CC0
200780
ENDCHAR
STARTCHAR 2190
ENCODING 8592
SWIDTH 1000 0
DWIDTH 25 0
BBX 21 8 2 4
BITMAP
040000
080000
180000
700000
FFFFF8
380000
180000
0C0000
ENDCHAR
STARTCHAR 2191
ENCODING 8593
SWIDTH 520 0
DWIDTH 13 0
BBX 8 21 2 -3
BITMAP
18
18
3C
7E
FF
99
18
18
18
18
18
18
18
18
18
18
18
18
18
18
18
ENDCHAR
STARTCHAR 2192
ENCODING 8594
SWIDTH 1000 0
DWIDTH 25 0
BBX 21 8 2 4
BITMAP
000100
000180
0000C0
000070
FFFFF8
0000E0
0000C0
000180
ENDCHAR
STARTCHAR 2193
ENCODING 8595
SWIDTH 520 0
DWIDTH 13 0
BBX 8 20 2 -3
BITMAP
18
18
18
18
18
18
18
18
18
18
18
18
18
18
18
DB
7E
3C
3C
18
ENDCHAR
STARTCHAR 2194
ENCODING 8596
SWIDTH 1000 0
DWIDTH 25 0
BBX 19 8 3 4
BITMAP
040400
080200
180380
7001C0
FFFFE0
380380
180300
0C0600
ENDCHAR
STARTCHAR 2195
ENCODING 8597
SWIDTH 520 0
DWIDTH 13 0
BBX 8 19 2 -1
BITMAP
08
18
3C
3E
7F
99
18
18
18
18
18
18
18
99
7F
3E
3C
18
08
ENDCHAR
STARTCHAR 2196
ENCODING 8598
SWIDTH 720 0
DWIDTH 18 0
BBX 18 17 0 0
BITMAP
F00000
FC0000
F70000
590000
6C0000
260000
330000
118000
00C000
006000
003000
001800
000C00
000600
000300
000180
0000C0
ENDCHAR
STARTCHAR 2197
ENCODING 8599
SWIDTH 720 0
DWIDTH 18 0
BBX 18 18 0 -1
BITMAP
000080
0003C0
000FC0
007B80
004780
000D00
001B00
003200
006200
00C000
018000
030000
060000
0C0000
180000
300000
600000
C00000
ENDCHAR
STARTCHAR 2198
ENCODING 8600
SWIDTH 720 0
DWIDTH 18 0
BBX 18 17 0 0
BITMAP
C00000
600000
300000
180000
0C0000
060000
030000
018000
00C000
006200
003200
001900
000D00
006780
003B80
000FC0
000180
ENDCHAR
STARTCHAR 2199
ENCODING 8601
SWIDTH 720 0
DWIDTH 18 0
BBX 18 17 0 0
BITMAP
0000C0
000180
000300
000600
000C00
001800
003000
006000
00C000
118000
330000
260000
6C0000
590000
F70000
F80000
E00000
ENDCHAR
STARTCHAR 21A8
ENCODING 8616
SWIDTH 520 0
DWIDTH 13 0
BBX 8 22 2 -3
BITMAP
18
1C
3C
7E
DB
18
18
18
18
18
18
18
18
DB
7E
3C
1C
18
00
00
00
7F
ENDCHAR
STARTCHAR 21B5
ENCODING 8629
SWIDTH 1000 0
DWIDTH 25 0
BBX 18 9 4 4
BITMAP
0000C0
0200C0
0F00C0
3800C0
FFFFC0
FFFFC0
700000
1C0000
070000
ENDCHAR
STARTCHAR 21C4
ENCODING 8644
SWIDTH 1000 0
DWIDTH 25 0
BBX 19 15 3 1
BITMAP
000400
000300
000380
0001C0
FFFFE0
000180
040300
080600
380000
700000
FFFFE0
700000
180000
080000
040000
ENDCHAR
STARTCHAR 21C6
ENCODING 8646
SWIDTH 1000 0
DWIDTH 25 0
BBX 19 15 3 1
BITMAP
0C0000
180000
380000
700000
FFFFE0
700000
180400
080200
000380
0001C0
FFFFE0
000180
000300
000200
000400
ENDCHAR
STARTCHAR 21D0
ENCODING 8656
SWIDTH 720 0
DWIDTH 18 0
BBX 18 11 0 2
BITMAP
020000
060000
0C0000
1FFFC0
600000
C00000
600000
1FFFC0
0C0000
060000
020000
ENDCHAR
STARTCHAR 21D1
ENCODING 8657
SWIDTH 720 0
DWIDTH 18 0
BBX 10 16 4 0
BITMAP
0C00
0C00
1200
2100
6180
E1C0
2100
2100
2100
2100
2100
2100
2100
2100
2100
2100
ENDCHAR
STARTCHAR 21D2
ENCODING 8658
SWIDTH 720 0
DWIDTH 18 0
BBX 18 11 0 2
BITMAP
001000
001800
000C00
FFFE00
000180
0000C0
000180
FFFE00
000C00
001800
001000
ENDCHAR
STARTCHAR 21D3
ENCODING 8659
SWIDTH 720 0
DWIDTH 18 0
BBX 11 16 4 0
BITMAP
2100
2100
2100
2100
2100
2100
2100
2100
2100
A160
E1C0
6180
3100
1200
0C00
0800
ENDCHAR
STARTCHAR 21D4
ENCODING 8660
SWIDTH 720 0
DWIDTH 18 0
BBX 18 11 0 2
BITMAP
021000
061800
0C0C00
3FFF00
600180
C000C0
600180
3FFE00
0C0C00
061800
021000
ENDCHAR
STARTCHAR 21D5
ENCODING 8661
SWIDTH 720 0
DWIDTH 18 0
BBX 12 17 3 0
BITMAP
0600
0F00
39C0
79E0
9990
1980
1980
1980
1980
1980
1980
1980
D9B0
39C0
1980
0F00
0600
ENDCHAR
STARTCHAR 2200
ENCODING 8704
SWIDTH 600 0
DWIDTH 15 0
BBX 13 15 1 0
BITMAP
C018
C038
E030
6030
7070
3FE0
3FE0
38C0
18C0
1DC0
0D80
0F80
0F00
0700
0700
ENDCHAR
STARTCHAR 2202
ENCODING 8706
SWIDTH 480 0
DWIDTH 12 0
BBX 10 19 1 0
BITMAP
7E00
4300
0180
0080
00C0
00C0
00C0
00C0
3EC0
71C0
60C0
C0C0
C0C0
C0C0
C180
C180
C300
6300
3C00
ENDCHAR
STARTCHAR 2203
ENCODING 8707
SWIDTH 440 0
DWIDTH 11 0
BBX 8 14 1 0
BITMAP
FF
FF
03
03
03
03
FF
FF
03
03
03
03
FF
FF
ENDCHAR
STARTCHAR 2205
ENCODING 8709
SWIDTH 1000 0
DWIDTH 25 0
BBX 20 17 2 0
BITMAP
01FE10
070770
0C01E0
1801C0
180360
100660
301C20
303820
306020
30C020
338060
170060
1E00C0
1C00C0
360380
E3DE00
40F800
ENDCHAR
STARTCHAR 2206
ENCODING 8710
SWIDTH 600 0
DWIDTH 15 0
BBX 15 16 0 0
BITMAP
0380
0380
03C0
06C0
06C0
0E60
0C60
0C70
1830
1838
3818
3018
301C
600C
7FFE
FFFE
ENDCHAR
STARTCHAR 2207
ENCODING 8711
SWIDTH 760 0
DWIDTH 19 0
BBX 15 16 2 0
BITMAP
FFFE
FFFC
600C
6018
7018
3038
3030
1830
1860
1C60
0CE0
0CC0
06C0
0780
0380
0380
ENDCHAR
STARTCHAR 2208
ENCODING 8712
SWIDTH 1000 0
DWIDTH 25 0
BBX 13 13 6 0
BITMAP
03F8
3FF8
6000
C000
C000
C000
FFF8
FFF8
C000
C000
6000
7FF8
1FF8
ENDCHAR
STARTCHAR 2209
ENCODING 8713
SWIDTH 1000 0
DWIDTH 25 0
BBX 13 15 6 -1
BITMAP
0030
03F8
3FF8
6040
C080
C180
C100
FFF8
FFF8
C600
C400
6C00
7FF8
1FF8
3000
ENDCHAR
STARTCHAR 220B
ENCODING 8715
SWIDTH 1000 0
DWIDTH 25 0
BBX 13 13 6 0
BITMAP
FE00
FFE0
0030
0018
0018
0018
FFF8
FFF8
0018
0018
0030
FFF0
FFC0
ENDCHAR
STARTCHAR 220D
ENCODING 8717
SWIDTH 520 0
DWIDTH 13 0
BBX 11 11 2 0
BITMAP
FF00
01C0
0040
0060
0060
FFE0
0060
0040
00C0
0380
FF00
ENDCHAR
STARTCHAR 220F
ENCODING 8719
SWIDTH 1000 0
DWIDTH 25 0
BBX 19 24 3 -6
BITMAP
FFFFE0
FFFFE0
380300
380300
380300
380300
380300
380300
380300
380300
380300
380300
380300
380300
380300
380300
380300
380300
380300
380300
380300
380300
7E0FC0
7E0FC0
ENDCHAR
STARTCHAR 2211
ENCODING 8721
SWIDTH 1000 0
DWIDTH 25 0
BBX 12 21 6 -3
BITMAP
FFF0
C030
E030
6030
7030
3800
1800
1C00
0C00
0E00
0600
0C00
0800
1800
3000
3000
6030
6030
C030
FFF0
FFF0
ENDCHAR
STARTCHAR 2212
ENCODING 8722
SWIDTH 600 0
DWIDTH 15 0
BBX 13 2 1 5
BITMAP
FFF8
FFF8
ENDCHAR
STARTCHAR 2213
ENCODING 8723
SWIDTH 1000 0
DWIDTH 25 0
BBX 12 16 6 0
BITMAP
FFF0
FFF0
0000
0000
0200
0200
0200
0200
0200
FFF0
FFF0
0200
0200
0200
0200
0200
ENDCHAR
STARTCHAR 2215
ENCODING 8725
SWIDTH 280 0
DWIDTH 7 0
BBX 12 18 -3 0
BITMAP
0010
0030
0020
0040
00C0
0080
0180
0100
0200
0600
0400
0C00
1800
1000
3000
2000
4000
C000
ENDCHAR
STARTCHAR 2217
ENCODING 8727
SWIDTH 1000 0
DWIDTH 25 0
BBX 7 7 9 3
BITMAP
30
10
D6
7C
7C
D6
10
ENDCHAR
STARTCHAR 2219
ENCODING 8729
SWIDTH 280 0
DWIDTH 7 0
BBX 2 3 3 5
BITMAP
C0
C0
C0
ENDCHAR
STARTCHAR 221A
ENCODING 8730
SWIDTH 440 0
DWIDTH 11 0
BBX 13 23 -1 -1
BITMAP
0008
0010
0010
0010
0010
0010
0010
0010
0020
0020
1020
7820
9820
0820
0C40
0440
0640
0240
0340
0140
0180
0080
0080
ENDCHAR
STARTCHAR 221D
ENCODING 8733
SWIDTH 1000 0
DWIDTH 25 0
BBX 12 7 5 3
BITMAP
7C70
C6C0
8380
8380
C6C0
7C70
0010
ENDCHAR
STARTCHAR 221E
ENCODING 8734
SWIDTH 720 0
DWIDTH 18 0
BBX 16 7 1 3
BITMAP
781E
CE73
83C1
8181
83C1
CE73
781C
ENDCHAR
STARTCHAR 221F
ENCODING 8735
SWIDTH 960 0
DWIDTH 24 0
BBX 22 22 1 0
BITMAP
C00000
C00000
C00000
C00000
C00000
C00000
C00000
C00000
C00000
C00000
C00000
C00000
C00000
C00000
C00000
C00000
C00000
C00000
C00000
C00000
FFFFFC
FFFFFC
ENDCHAR
STARTCHAR 2220
ENCODING 8736
SWIDTH 1000 0
DWIDTH 25 0
BBX 14 10 6 0
BITMAP
0060
00C0
0180
0300
0600
0C00
1800
2000
4000
FFFC
ENDCHAR
STARTCHAR 2223
ENCODING 8739
SWIDTH 720 0
DWIDTH 18 0
BBX 2 24 8 -6
BITMAP
C0
C0
C0
C0
C0
C0
C0
C0
C0
C0
C0
C0
C0
C0
C0
C0
C0
C0
C0
C0
C0
C0
C0
C0
ENDCHAR
STARTCHAR 2225
ENCODING 8741
SWIDTH 720 0
DWIDTH 18 0
BBX 6 28 6 -6
BITMAP
CC
CC
CC
CC
CC
CC
CC
CC
CC
CC
CC
CC
CC
CC
CC
CC
CC
CC
CC
CC
CC
CC
CC
CC
CC
CC
CC
CC
ENDCHAR
STARTCHAR 2227
ENCODING 8743
SWIDTH 1000 0
DWIDTH 25 0
BBX 13 13 6 0
BITMAP
0200
0700
0700
0D80
0D80
18C0
18C0
3060
3060
3060
6030
6030
C018
ENDCHAR
STARTCHAR 2228
ENCODING 8744
SWIDTH 1000 0
DWIDTH 25 0
BBX 13 13 6 0
BITMAP
C018
6030
6030
3060
3060
3060
18C0
18C0
0D80
0D80
0700
0700
0700
ENDCHAR
STARTCHAR 2229
ENCODING 8745
SWIDTH 720 0
DWIDTH 18 0
BBX 12 15 3 1
BITMAP
1FC0
70E0
6060
C030
C030
C030
C030
C030
C030
C030
C030
C030
C030
C030
C030
ENDCHAR
STARTCHAR 222A
ENCODING 8746
SWIDTH 720 0
DWIDTH 18 0
BBX 12 15 3 0
BITMAP
C030
C030
C030
C030
C030
C030
C030
C030
C030
C030
C030
C030
6060
3FC0
1F00
ENDCHAR
STARTCHAR 222B
ENCODING 8747
SWIDTH 280 0
DWIDTH 7 0
BBX 7 26 0 -3
BITMAP
0E
0E
10
10
10
10
18
18
18
18
18
18
18
18
18
18
18
18
18
18
18
18
10
50
F0
60
ENDCHAR
STARTCHAR 222E
ENCODING 8750
SWIDTH 1000 0
DWIDTH 25 0
BBX 11 31 7 -7
BITMAP
0380
05C0
05C0
0800
0800
0C00
0C00
0C00
0C00
0C00
0C00
3F80
4EC0
8E40
8E40
8E20
8E40
CE40
4EC0
3F80
0E00
0600
0600
0600
0600
0600
0600
0400
6400
6800
3000
ENDCHAR
STARTCHAR 2234
ENCODING 8756
SWIDTH 1000 0
DWIDTH 25 0
BBX 15 16 5 0
BITMAP
0380
0380
0380
0000
0000
0000
0000
0000
0000
0000
0000
0000
0000
E00E
E00E
C00E
ENDCHAR
STARTCHAR 2235
ENCODING 8757
SWIDTH 1000 0
DWIDTH 25 0
BBX 15 16 5 0
BITMAP
E00E
E00E
E00E
0000
0000
0000
0000
0000
0000
0000
0000
0000
0000
0380
0380
0380
ENDCHAR
STARTCHAR 2237
ENCODING 8759
SWIDTH 1000 0
DWIDTH 25 0
BBX 15 16 5 0
BITMAP
E00E
E00E
E00E
0000
0000
0000
0000
0000
0000
0000
0000
0000
0000
E00E
E00E
E00E
ENDCHAR
STARTCHAR 2245
ENCODING 8773
SWIDTH 1000 0
DWIDTH 25 0
BBX 12 8 6 3
BITMAP
0010
3F30
63E0
0000
FFF0
0000
0000
FFF0
ENDCHAR
STARTCHAR 2248
ENCODING 8776
SWIDTH 560 0
DWIDTH 14 0
BBX 12 8 1 2
BITMAP
3800
7E30
C7E0
81C0
3800
7E30
C7E0
81C0
ENDCHAR
STARTCHAR 2260
ENCODING 8800
SWIDTH 560 0
DWIDTH 14 0
BBX 12 12 1 0
BITMAP
0080
0180
0100
FFF0
FFF0
0600
0C00
FFF0
FFF0
1000
3000
2000
ENDCHAR
STARTCHAR 2261
ENCODING 8801
SWIDTH 600 0
DWIDTH 15 0
BBX 12 11 1 0
BITMAP
FFF0
FFF0
0000
0000
FFF0
FFF0
0000
0000
0000
FFF0
FFF0
ENDCHAR
STARTCHAR 2262
ENCODING 8802
SWIDTH 1000 0
DWIDTH 25 0
BBX 12 14 6 0
BITMAP
0040
00C0
FFF0
FFF0
0100
0300
FFF0
FFF0
0C00
0800
FFF0
FFF0
3000
2000
ENDCHAR
STARTCHAR 2264
ENCODING 8804
SWIDTH 560 0
DWIDTH 14 0
BBX 12 16 1 0
BITMAP
0030
00F0
07C0
1F00
7800
E000
F000
3C00
0F80
03E0
0070
0010
0000
0000
FFF0
FFF0
ENDCHAR
STARTCHAR 2265
ENCODING 8805
SWIDTH 560 0
DWIDTH 14 0
BBX 12 16 1 0
BITMAP
8000
F000
3C00
0F80
03E0
0070
00F0
07C0
1F00
7800
E000
0000
0000
0000
FFF0
FFF0
ENDCHAR
STARTCHAR 226A
ENCODING 8810
SWIDTH 1000 0
DWIDTH 25 0
BBX 17 16 4 -1
BITMAP
000080
000380
000F00
003C00
01F180
078780
1E1E00
78F800
F1E000
3C7C00
0F0F00
03E380
007880
001E00
000780
000180
ENDCHAR
STARTCHAR 226B
ENCODING 8811
SWIDTH 1000 0
DWIDTH 25 0
BBX 17 15 4 0
BITMAP
E00000
780000
1E0000
C78000
F1F000
3C3C00
0F0F00
07C780
1E1E00
787800
E3C000
8F0000
3C0000
F00000
C00000
ENDCHAR
STARTCHAR 2282
ENCODING 8834
SWIDTH 1000 0
DWIDTH 25 0
BBX 13 13 6 0
BITMAP
03F8
3FF8
6000
C000
C000
C000
C000
C000
C000
C000
6000
7FF8
1FF8
ENDCHAR
STARTCHAR 2283
ENCODING 8835
SWIDTH 1000 0
DWIDTH 25 0
BBX 13 13 6 0
BITMAP
FE00
FFE0
0030
0018
0018
0018
0018
0018
0018
0018
0030
FFF0
FFC0
ENDCHAR
STARTCHAR 2284
ENCODING 8836
SWIDTH 1000 0
DWIDTH 25 0
BBX 13 15 6 -2
BITMAP
0010
03F8
3FF8
6060
C040
C080
C080
C100
C300
C200
C600
6400
7FF8
1FF8
1000
ENDCHAR
STARTCHAR 2285
ENCODING 8837
SWIDTH 1000 0
DWIDTH 25 0
BBX 13 15 6 -2
BITMAP
4000
FE00
FFE0
3030
1018
1818
0818
0418
0618
0218
0318
0130
FFF0
FFC0
0040
ENDCHAR
STARTCHAR 2286
ENCODING 8838
SWIDTH 1000 0
DWIDTH 25 0
BBX 13 15 6 0
BITMAP
1FF8
3FF8
6000
C000
C000
C000
C000
C000
C000
C000
7000
3FF8
07F8
0000
FFF8
ENDCHAR
STARTCHAR 2287
ENCODING 8839
SWIDTH 1000 0
DWIDTH 25 0
BBX 13 15 6 0
BITMAP
FFC0
FFF0
0030
0018
0018
0018
0018
0018
0018
0018
0030
FFE0
FF00
0000
FFF8
ENDCHAR
STARTCHAR 2295
ENCODING 8853
SWIDTH 1000 0
DWIDTH 25 0
BBX 17 18 4 0
BITMAP
07F000
1C9C00
308600
608300
408100
C08180
808080
808080
FFFF80
808080
808080
808080
C08180
608100
608300
388E00
0FB800
03E000
ENDCHAR
STARTCHAR 2296
ENCODING 8854
SWIDTH 1000 0
DWIDTH 25 0
BBX 18 17 3 0
BITMAP
03FC00
0E0E00
180300
300180
200080
6000C0
400040
400040
FFFFC0
C00040
400040
6000C0
6000C0
300180
180300
0E0E00
07FC00
ENDCHAR
STARTCHAR 2297
ENCODING 8855
SWIDTH 1000 0
DWIDTH 25 0
BBX 17 18 4 0
BITMAP
03F000
0FF800
380E00
700700
580F00
CC1980
863080
836080
81C080
81C080
836080
863080
CC1980
780D00
700700
380E00
0F7800
07E000
ENDCHAR
STARTCHAR 2298
ENCODING 8856
SWIDTH 1000 0
DWIDTH 25 0
BBX 18 18 3 0
BITMAP
01F000
07FC00
1C0700
300380
200780
600CC0
401840
403040
406040
C0C040
418040
430040
6600C0
2C0180
380100
1C0700
0FBC00
03F000
ENDCHAR
STARTCHAR 2299
ENCODING 8857
SWIDTH 1000 0
DWIDTH 25 0
BBX 18 18 3 -1
BITMAP
03FC00
0E0E00
180300
300180
6000C0
6000C0
400040
40E040
C0E040
C0E040
400040
6000C0
6000C0
300180
180300
0E0E00
07FC00
004000
ENDCHAR
STARTCHAR 22A2
ENCODING 8866
SWIDTH 1000 0
DWIDTH 25 0
BBX 15 14 5 0
BITMAP
8000
8000
8000
8000
8000
8000
FFFE
FFFE
8000
8000
8000
8000
8000
8000
ENDCHAR
STARTCHAR 22A3
ENCODING 8867
SWIDTH 1000 0
DWIDTH 25 0
BBX 15 14 5 0
BITMAP
0002
0002
0002
0002
0002
0002
FFFE
FFFE
0002
0002
0002
0002
0002
0002
ENDCHAR
STARTCHAR 22A4
ENCODING 8868
SWIDTH 1000 0
DWIDTH 25 0
BBX 13 16 6 0
BITMAP
FFF8
FFF8
0200
0200
0200
0200
0200
0200
0200
0200
0200
0200
0200
0200
0200
0200
ENDCHAR
STARTCHAR 22A5
ENCODING 8869
SWIDTH 1000 0
DWIDTH 25 0
BBX 15 15 5 0
BITMAP
0100
0100
0100
0100
0100
0100
0100
0100
0100
0100
0100
0100
0100
FFFE
FFFE
ENDCHAR
STARTCHAR 22BB
ENCODING 8891
SWIDTH 1000 0
DWIDTH 25 0
BBX 14 19 5 -4
BITMAP
C004
600C
600C
2018
3018
3030
1830
1820
0C60
0C60
04C0
06C0
0780
0380
0300
0000
0000
FFFC
FFFC
ENDCHAR
STARTCHAR 2302
ENCODING 8962
SWIDTH 600 0
DWIDTH 15 0
BBX 13 18 1 0
BITMAP
0200
0700
0580
0880
1840
3060
6030
4018
8008
8008
8008
8008
8008
8008
8008
8008
8008
FFF8
ENDCHAR
STARTCHAR 2310
ENCODING 8976
SWIDTH 600 0
DWIDTH 15 0
BBX 13 7 1 2
BITMAP
FFF8
FFF8
C000
C000
C000
C000
C000
ENDCHAR
STARTCHAR 2320
ENCODING 8992
SWIDTH 600 0
DWIDTH 15 0
BBX 4 28 7 -5
BITMAP
70
F0
A0
80
80
80
80
80
80
80
80
80
80
80
80
80
80
80
80
80
80
80
80
80
80
80
80
80
ENDCHAR
STARTCHAR 2321
ENCODING 8993
SWIDTH 600 0
DWIDTH 15 0
BBX 4 28 4 -5
BITMAP
10
10
10
10
10
10
10
10
10
10
10
10
10
10
10
10
10
10
10
10
10
10
10
10
10
50
F0
E0
ENDCHAR
STARTCHAR 2329
ENCODING 9001
SWIDTH 320 0
DWIDTH 8 0
BBX 5 18 2 -3
BITMAP
08
10
10
30
20
60
40
C0
C0
C0
C0
40
60
20
30
10
10
08
ENDCHAR
STARTCHAR 232A
ENCODING 9002
SWIDTH 320 0
DWIDTH 8 0
BBX 6 18 1 -3
BITMAP
80
40
60
20
30
30
18
18
0C
0C
18
18
30
30
20
60
40
40
ENDCHAR
STARTCHAR 2500
ENCODING 9472
SWIDTH 1000 0
DWIDTH 25 0
BBX 25 2 0 5
BITMAP
FFFFFF80
FFFFFF80
ENDCHAR
STARTCHAR 2502
ENCODING 9474
SWIDTH 1000 0
DWIDTH 25 0
BBX 1 24 12 -6
BITMAP
80
80
80
80
80
80
80
80
80
80
80
80
80
80
80
80
80
80
80
80
80
80
80
80
ENDCHAR
STARTCHAR 250C
ENCODING 9484
SWIDTH 1000 0
DWIDTH 25 0
BBX 13 13 12 -6
BITMAP
FFF8
FFF8
8000
8000
8000
8000
8000
8000
8000
8000
8000
8000
8000
ENDCHAR
STARTCHAR 2510
ENCODING 9488
SWIDTH 1000 0
DWIDTH 25 0
BBX 13 13 0 -6
BITMAP
FFF8
FFF8
0008
0008
0008
0008
0008
0008
0008
0008
0008
0008
0008
ENDCHAR
STARTCHAR 2514
ENCODING 9492
SWIDTH 1000 0
DWIDTH 25 0
BBX 13 13 12 5
BITMAP
8000
8000
8000
8000
8000
8000
8000
8000
8000
8000
8000
FFF8
FFF8
ENDCHAR
STARTCHAR 2518
ENCODING 9496
SWIDTH 1000 0
DWIDTH 25 0
BBX 13 13 0 5
BITMAP
0008
0008
0008
0008
0008
0008
0008
0008
0008
0008
0008
FFF8
FFF8
ENDCHAR
STARTCHAR 251C
ENCODING 9500
SWIDTH 1000 0
DWIDTH 25 0
BBX 13 24 12 -6
BITMAP
8000
8000
8000
8000
8000
8000
8000
8000
8000
8000
8000
FFF8
FFF8
8000
8000
8000
8000
8000
8000
8000
8000
8000
8000
8000
ENDCHAR
STARTCHAR 2524
ENCODING 9508
SWIDTH 1000 0
DWIDTH 25 0
BBX 13 24 0 -6
BITMAP
0008
0008
0008
0008
0008
0008
0008
0008
0008
0008
0008
FFF8
FFF8
0008
0008
0008
0008
0008
0008
0008
0008
0008
0008
0008
ENDCHAR
STARTCHAR 252C
ENCODING 9516
SWIDTH 1000 0
DWIDTH 25 0
BBX 25 13 0 -6
BITMAP
FFFFFF80
FFFFFF80
00080000
00080000
00080000
00080000
00080000
00080000
00080000
00080000
00080000
00080000
00080000
ENDCHAR
STARTCHAR 2534
ENCODING 9524
SWIDTH 1000 0
DWIDTH 25 0
BBX 25 13 0 5
BITMAP
00080000
00080000
00080000
00080000
00080000
00080000
00080000
00080000
00080000
00080000
00080000
FFFFFF80
FFFFFF80
ENDCHAR
STARTCHAR 253C
ENCODING 9532
SWIDTH 1000 0
DWIDTH 25 0
BBX 25 24 0 -6
BITMAP
00080000
00080000
00080000
00080000
00080000
00080000
00080000
00080000
00080000
00080000
00080000
FFFFFF80
FFFFFF80
00080000
00080000
00080000
00080000
00080000
00080000
00080000
00080000
00080000
00080000
00080000
ENDCHAR
STARTCHAR 2550
ENCODING 9552
SWIDTH 1000 0
DWIDTH 25 0
BBX 25 5 0 4
BITMAP
FFFFFF80
FFFFFF80
00000000
FFFFFF80
FFFFFF80
ENDCHAR
STARTCHAR 2551
ENCODING 9553
SWIDTH 1000 0
DWIDTH 25 0
BBX 5 24 10 -6
BITMAP
D8
D8
D8
D8
D8
D8
D8
D8
D8
D8
D8
D8
D8
D8
D8
D8
D8
D8
D8
D8
D8
D8
D8
D8
ENDCHAR
STARTCHAR 2552
ENCODING 9554
SWIDTH 1000 0
DWIDTH 25 0
BBX 13 15 12 -6
BITMAP
FFF8
FFF8
8000
FFF8
FFF8
8000
8000
8000
8000
8000
8000
8000
8000
8000
8000
ENDCHAR
STARTCHAR 2553
ENCODING 9555
SWIDTH 1000 0
DWIDTH 25 0
BBX 15 13 10 -6
BITMAP
FFFE
FFFE
D800
D800
D800
D800
D800
D800
D800
D800
D800
D800
D800
ENDCHAR
STARTCHAR 2554
ENCODING 9556
SWIDTH 1000 0
DWIDTH 25 0
BBX 15 15 10 -6
BITMAP
FFFE
FFFE
C000
DFFE
DFFE
D800
D800
D800
D800
D800
D800
D800
D800
D800
D800
ENDCHAR
STARTCHAR 2555
ENCODING 9557
SWIDTH 1000 0
DWIDTH 25 0
BBX 13 15 0 -6
BITMAP
FFF8
FFF8
0008
FFF8
FFF8
0008
0008
0008
0008
0008
0008
0008
0008
0008
0008
ENDCHAR
STARTCHAR 2556
ENCODING 9558
SWIDTH 1000 0
DWIDTH 25 0
BBX 15 13 0 -6
BITMAP
FFFE
FFFE
0036
0036
0036
0036
0036
0036
0036
0036
0036
0036
0036
ENDCHAR
STARTCHAR 2557
ENCODING 9559
SWIDTH 1000 0
DWIDTH 25 0
BBX 15 15 0 -6
BITMAP
FFFE
FFFE
0006
FFF6
FFF6
0036
0036
0036
0036
0036
0036
0036
0036
0036
0036
ENDCHAR
STARTCHAR 2558
ENCODING 9560
SWIDTH 1000 0
DWIDTH 25 0
BBX 13 14 12 4
BITMAP
8000
8000
8000
8000
8000
8000
8000
8000
8000
FFF8
FFF8
8000
FFF8
FFF8
ENDCHAR
STARTCHAR 2559
ENCODING 9561
SWIDTH 1000 0
DWIDTH 25 0
BBX 15 13 10 5
BITMAP
D800
D800
D800
D800
D800
D800
D800
D800
D800
D800
D800
FFFE
FFFE
ENDCHAR
STARTCHAR 255A
ENCODING 9562
SWIDTH 1000 0
DWIDTH 25 0
BBX 15 14 10 4
BITMAP
D800
D800
D800
D800
D800
D800
D800
D800
D800
DFFE
DFFE
C000
FFFE
FFFE
ENDCHAR
STARTCHAR 255B
ENCODING 9563
SWIDTH 1000 0
DWIDTH 25 0
BBX 13 14 0 4
BITMAP
0008
0008
0008
0008
0008
0008
0008
0008
0008
FFF8
FFF8
0008
FFF8
FFF8
ENDCHAR
STARTCHAR 255C
ENCODING 9564
SWIDTH 1000 0
DWIDTH 25 0
BBX 15 13 0 5
BITMAP
0036
0036
0036
0036
0036
0036
0036
0036
0036
0036
0036
FFFE
FFFE
ENDCHAR
STARTCHAR 255D
ENCODING 9565
SWIDTH 1000 0
DWIDTH 25 0
BBX 15 14 0 4
BITMAP
0036
0036
0036
0036
0036
0036
0036
0036
0036
FFF6
FFF6
0006
FFFE
FFFE
ENDCHAR
STARTCHAR 255E
ENCODING 9566
SWIDTH 1000 0
DWIDTH 25 0
BBX 13 24 12 -6
BITMAP
8000
8000
8000
8000
8000
8000
8000
8000
8000
FFF8
FFF8
8000
FFF8
FFF8
8000
8000
8000
8000
8000
8000
8000
8000
8000
8000
ENDCHAR
STARTCHAR 255F
ENCODING 9567
SWIDTH 1000 0
DWIDTH 25 0
BBX 15 24 10 -6
BITMAP
D800
D800
D800
D800
D800
D800
D800
D800
D800
D800
D800
DFFE
DFFE
D800
D800
D800
D800
D800
D800
D800
D800
D800
D800
D800
ENDCHAR
STARTCHAR 2560
ENCODING 9568
SWIDTH 1000 0
DWIDTH 25 0
BBX 15 24 10 -6
BITMAP
D800
D800
D800
D800
D800
D800
D800
D800
D800
DFFE
DFFE
C000
DFFE
DFFE
D800
D800
D800
D800
D800
D800
D800
D800
D800
D800
ENDCHAR
STARTCHAR 2561
ENCODING 9569
SWIDTH 1000 0
DWIDTH 25 0
BBX 13 24 0 -6
BITMAP
0008
0008
0008
0008
0008
0008
0008
0008
0008
FFF8
FFF8
0008
FFF8
FFF8
0008
0008
0008
0008
0008
0008
0008
0008
0008
0008
ENDCHAR
STARTCHAR 2562
ENCODING 9570
SWIDTH 1000 0
DWIDTH 25 0
BBX 15 24 0 -6
BITMAP
0036
0036
0036
0036
0036
0036
0036
0036
0036
0036
0036
FFF6
FFF6
0036
0036
0036
0036
0036
0036
0036
0036
0036
0036
0036
ENDCHAR
STARTCHAR 2563
ENCODING 9571
SWIDTH 1000 0
DWIDTH 25 0
BBX 15 24 0 -6
BITMAP
0036
0036
0036
0036
0036
0036
0036
0036
0036
FFF6
FFF6
0006
FFF6
FFF6
0036
0036
0036
0036
0036
0036
0036
0036
0036
0036
ENDCHAR
STARTCHAR 2564
ENCODING 9572
SWIDTH 1000 0
DWIDTH 25 0
BBX 25 15 0 -6
BITMAP
FFFFFF80
FFFFFF80
00000000
FFFFFF80
FFFFFF80
00080000
00080000
00080000
00080000
00080000
00080000
00080000
00080000
00080000
00080000
ENDCHAR
STARTCHAR 2565
ENCODING 9573
SWIDTH 1000 0
DWIDTH 25 0
BBX 25 13 0 -6
BITMAP
FFFFFF80
FFFFFF80
00360000
00360000
00360000
00360000
00360000
00360000
00360000
00360000
00360000
00360000
00360000
ENDCHAR
STARTCHAR 2566
ENCODING 9574
SWIDTH 1000 0
DWIDTH 25 0
BBX 25 15 0 -6
BITMAP
FFFFFF80
FFFFFF80
00000000
FFF7FF80
FFF7FF80
00360000
00360000
00360000
00360000
00360000
00360000
00360000
00360000
00360000
00360000
ENDCHAR
STARTCHAR 2567
ENCODING 9575
SWIDTH 1000 0
DWIDTH 25 0
BBX 25 14 0 4
BITMAP
00080000
00080000
00080000
00080000
00080000
00080000
00080000
00080000
00080000
FFFFFF80
FFFFFF80
00000000
FFFFFF80
FFFFFF80
ENDCHAR
STARTCHAR 2568
ENCODING 9576
SWIDTH 1000 0
DWIDTH 25 0
BBX 25 13 0 5
BITMAP
00360000
00360000
00360000
00360000
00360000
00360000
00360000
00360000
00360000
00360000
00360000
FFFFFF80
FFFFFF80
ENDCHAR
STARTCHAR 2569
ENCODING 9577
SWIDTH 1000 0
DWIDTH 25 0
BBX 25 14 0 4
BITMAP
00360000
00360000
00360000
00360000
00360000
00360000
00360000
00360000
00360000
FFF7FF80
FFF7FF80
00000000
FFFFFF80
FFFFFF80
ENDCHAR
STARTCHAR 256A
ENCODING 9578
SWIDTH 1000 0
DWIDTH 25 0
BBX 25 24 0 -6
BITMAP
00080000
00080000
00080000
00080000
00080000
00080000
00080000
00080000
00080000
FFFFFF80
FFFFFF80
00080000
FFFFFF80
FFFFFF80
00080000
00080000
00080000
00080000
00080000
00080000
00080000
00080000
00080000
00080000
ENDCHAR
STARTCHAR 256B
ENCODING 9579
SWIDTH 1000 0
DWIDTH 25 0
BBX 25 24 0 -6
BITMAP
00360000
00360000
00360000
00360000
00360000
00360000
00360000
00360000
00360000
00360000
00360000
FFFFFF80
FFFFFF80
00360000
00360000
00360000
00360000
00360000
00360000
00360000
00360000
00360000
00360000
00360000
ENDCHAR
STARTCHAR 256C
ENCODING 9580
SWIDTH 1000 0
DWIDTH 25 0
BBX 25 24 0 -6
BITMAP
00360000
00360000
00360000
00360000
00360000
00360000
00360000
00360000
00360000
FFF7FF80
FFF7FF80
00000000
FFF7FF80
FFF7FF80
00360000
00360000
00360000
00360000
00360000
00360000
00360000
00360000
00360000
00360000
ENDCHAR
STARTCHAR 256D
ENCODING 9581
SWIDTH 1000 0
DWIDTH 25 0
BBX 13 13 12 -6
BITMAP
01F8
07F8
1C00
3000
6000
6000
C000
C000
8000
8000
8000
8000
8000
ENDCHAR
STARTCHAR 256E
ENCODING 9582
SWIDTH 1000 0
DWIDTH 25 0
BBX 13 13 0 -6
BITMAP
FC00
FF00
01C0
00E0
0030
0030
0018
0018
0018
0008
0008
0008
0008
ENDCHAR
STARTCHAR 256F
ENCODING 9583
SWIDTH 1000 0
DWIDTH 25 0
BBX 13 13 0 5
BITMAP
0008
0008
0008
0008
0018
0018
0010
0030
0060
00C0
0380
FF00
C000
ENDCHAR
STARTCHAR 2570
ENCODING 9584
SWIDTH 1000 0
DWIDTH 25 0
BBX 13 13 12 5
BITMAP
8000
8000
8000
8000
C000
C000
C000
6000
7000
3800
1F00
07F8
0038
ENDCHAR
STARTCHAR 2580
ENCODING 9600
SWIDTH 1000 0
DWIDTH 25 0
BBX 25 12 0 6
BITMAP
FFFFFF80
FFFFFF80
FFFFFF80
FFFFFF80
FFFFFF80
FFFFFF80
FFFFFF80
FFFFFF80
FFFFFF80
FFFFFF80
FFFFFF80
FFFFFF80
ENDCHAR
STARTCHAR 2584
ENCODING 9604
SWIDTH 1000 0
DWIDTH 25 0
BBX 25 12 0 -6
BITMAP
FFFFFF80
FFFFFF80
FFFFFF80
FFFFFF80
FFFFFF80
FFFFFF80
FFFFFF80
FFFFFF80
FFFFFF80
FFFFFF80
FFFFFF80
FFFFFF80
ENDCHAR
STARTCHAR 2588
ENCODING 9608
SWIDTH 1000 0
DWIDTH 25 0
BBX 25 24 0 -6
BITMAP
FFFFFF80
FFFFFF80
FFFFFF80
FFFFFF80
FFFFFF80
FFFFFF80
FFFFFF80
FFFFFF80
FFFFFF80
FFFFFF80
FFFFFF80
FFFFFF80
FFFFFF80
FFFFFF80
FFFFFF80
FFFFFF80
FFFFFF80
FFFFFF80
FFFFFF80
FFFFFF80
FFFFFF80
FFFFFF80
FFFFFF80
FFFFFF80
ENDCHAR
STARTCHAR 258C
ENCODING 9612
SWIDTH 1000 0
DWIDTH 25 0
BBX 12 24 0 -6
BITMAP
FFF0
FFF0
FFF0
FFF0
FFF0
FFF0
FFF0
FFF0
FFF0
FFF0
FFF0
FFF0
FFF0
FFF0
FFF0
FFF0
FFF0
FFF0
FFF0
FFF0
FFF0
FFF0
FFF0
FFF0
ENDCHAR
STARTCHAR 2590
ENCODING 9616
SWIDTH 1000 0
DWIDTH 25 0
BBX 13 24 12 -6
BITMAP
FFF8
FFF8
FFF8
FFF8
FFF8
FFF8
FFF8
FFF8
FFF8
FFF8
FFF8
FFF8
FFF8
FFF8
FFF8
FFF8
FFF8
FFF8
FFF8
FFF8
FFF8
FFF8
FFF8
FFF8
ENDCHAR
STARTCHAR 2591
ENCODING 9617
SWIDTH 1000 0
DWIDTH 25 0
BBX 21 21 1 -2
BITMAP
F0F0F8
F0F0F8
F0F0F8
F0F0F8
000000
000000
000000
000000
000000
F0F0F8
F0F0F8
F0F0F8
F0F0F8
000000
000000
000000
000000
F0F0F8
F0F0F8
F0F0F8
F0F0F8
ENDCHAR
STARTCHAR 2592
ENCODING 9618
SWIDTH 1000 0
DWIDTH 25 0
BBX 25 24 0 -6
BITMAP
F0F07800
F0F07800
F0F07800
F0F07800
0F0F8780
0F0F8780
0F0F8780
0F0F8780
F0F07800
F0F07800
F0F07800
F0F07800
0F0F8780
0F0F8780
0F0F8780
0F0F8780
F0F07800
F0F07800
F0F07800
F0F07800
0F0F8780
0F0F8780
0F0F8780
0F0F8780
ENDCHAR
STARTCHAR 2593
ENCODING 9619
SWIDTH 1000 0
DWIDTH 25 0
BBX 25 25 0 -6
BITMAP
FFFFFF80
FFFFFF80
FFFFFF80
FFFFFF80
F0F07800
F0F07800
F0F07800
F0F07800
F0F07800
FFFFFF80
FFFFFF80
FFFFFF80
FFFFFF80
F0F07800
F0F07800
F0F07800
F0F07800
FFFFFF80
FFFFFF80
FFFFFF80
FFFFFF80
F0F07800
F0F07800
F0F07800
F0F07800
ENDCHAR
STARTCHAR 25A0
ENCODING 9632
SWIDTH 600 0
DWIDTH 15 0
BBX 19 18 -2 0
BITMAP
FFFFE0
FFFFE0
FFFFE0
FFFFE0
FFFFE0
FFFFE0
FFFFE0
FFFFE0
FFFFE0
FFFFE0
FFFFE0
FFFFE0
FFFFE0
FFFFE0
FFFFE0
FFFFE0
FFFFE0
FFFFE0
ENDCHAR
STARTCHAR 25A1
ENCODING 9633
SWIDTH 600 0
DWIDTH 15 0
BBX 13 13 1 0
BITMAP
FFF8
8008
8008
8008
8008
8008
8008
8008
8008
8008
8008
8008
FFF8
ENDCHAR
STARTCHAR 25AA
ENCODING 9642
SWIDTH 360 0
DWIDTH 9 0
BBX 7 6 1 3
BITMAP
FE
FE
FE
FE
FE
FE
ENDCHAR
STARTCHAR 25AB
ENCODING 9643
SWIDTH 360 0
DWIDTH 9 0
BBX 7 7 1 3
BITMAP
FE
C6
C6
C6
C6
C6
FE
ENDCHAR
STARTCHAR 25AC
ENCODING 9644
SWIDTH 1000 0
DWIDTH 25 0
BBX 19 9 3 0
BITMAP
FFFFE0
FFFFE0
FFFFE0
FFFFE0
FFFFE0
FFFFE0
FFFFE0
FFFFE0
FFFFE0
ENDCHAR
STARTCHAR 25B2
ENCODING 9650
SWIDTH 1000 0
DWIDTH 25 0
BBX 14 13 5 3
BITMAP
0100
0380
0380
07C0
07C0
0FE0
0FE0
1FF0
3FF0
3FF8
7FF8
7FFC
FFFC
ENDCHAR
STARTCHAR 25B5
ENCODING 9653
SWIDTH 720 0
DWIDTH 18 0
BBX 12 11 3 2
BITMAP
0600
0600
0F00
0900
1980
1080
30C0
20C0
6060
4060
FFF0
ENDCHAR
STARTCHAR 25B9
ENCODING 9657
SWIDTH 720 0
DWIDTH 18 0
BBX 11 12 3 1
BITMAP
8000
E000
F800
DE00
C780
C1C0
C0E0
C380
CE00
F800
F000
C000
ENDCHAR
STARTCHAR 25BA
ENCODING 9658
SWIDTH 1000 0
DWIDTH 25 0
BBX 13 10 6 3
BITMAP
8000
F000
FE00
FFC0
FFF8
FFF8
FFC0
FE00
F000
8000
ENDCHAR
STARTCHAR 25BC
ENCODING 9660
SWIDTH 1000 0
DWIDTH 25 0
BBX 15 14 5 1
BITMAP
FFFE
7FFC
7FFC
3FF8
3FF0
1FF0
1FE0
0FE0
0FC0
07C0
0780
0380
0100
0100
ENDCHAR
STARTCHAR 25BF
ENCODING 9663
SWIDTH 720 0
DWIDTH 18 0
BBX 10 11 4 1
BITMAP
FFC0
C0C0
4080
6180
2100
3300
1200
1E00
0C00
0C00
0800
ENDCHAR
STARTCHAR 25C3
ENCODING 9667
SWIDTH 720 0
DWIDTH 18 0
BBX 11 12 4 1
BITMAP
0020
00E0
03E0
0F60
3C60
7060
E060
3860
0E60
03E0
01E0
0060
ENDCHAR
STARTCHAR 25C4
ENCODING 9668
SWIDTH 1000 0
DWIDTH 25 0
BBX 14 10 5 3
BITMAP
0004
003C
01FC
0FFC
7FFC
FFFC
0FFC
01FC
003C
0004
ENDCHAR
STARTCHAR 25C6
ENCODING 9670
SWIDTH 1000 0
DWIDTH 25 0
BBX 13 15 6 1
BITMAP
0200
0200
0700
0F80
1FC0
3FE0
7FF0
FFF8
7FF8
3FF0
1FE0
1FC0
0F80
0700
0200
ENDCHAR
STARTCHAR 25C7
ENCODING 9671
SWIDTH 1000 0
DWIDTH 25 0
BBX 15 17 5 0
BITMAP
0100
0280
0440
0820
1010
3018
600C
4004
8002
4004
2008
3010
1830
0820
0440
0280
0100
ENDCHAR
STARTCHAR 25CA
ENCODING 9674
SWIDTH 480 0
DWIDTH 12 0
BBX 11 18 0 0
BITMAP
0E00
0F00
1900
1180
3080
20C0
6040
4060
C020
4060
6040
20C0
3080
1180
1900
0B00
0E00
0600
ENDCHAR
STARTCHAR 25CB
ENCODING 9675
SWIDTH 600 0
DWIDTH 15 0
BBX 14 14 1 2
BITMAP
0F80
38E0
6030
4018
8008
8008
800C
800C
8008
8008
4018
6030
38E0
0F80
ENDCHAR
STARTCHAR 25CF
ENCODING 9679
SWIDTH 600 0
DWIDTH 15 0
BBX 13 13 1 0
BITMAP
0F80
1FE0
3FF0
7FF0
FFF8
FFF8
FFF8
FFF8
FFF8
7FF0
7FF0
3FE0
0F80
ENDCHAR
STARTCHAR 25D8
ENCODING 9688
SWIDTH 600 0
DWIDTH 15 0
BBX 15 16 0 0
BITMAP
FFFE
FFFE
FFFE
FFFE
FFFE
FC7E
F83E
F01E
F01E
F83E
F83E
FFFE
FFFE
FFFE
FFFE
FFFE
ENDCHAR
STARTCHAR 25D9
ENCODING 9689
SWIDTH 600 0
DWIDTH 15 0
BBX 19 18 -2 0
BITMAP
FFFFE0
FFFFE0
FE0FE0
F9F3E0
F3F9E0
E7FCE0
EFFEE0
EFFEE0
EFFE60
EFFEE0
EFFEE0
E7FEE0
F7FDE0
FBF9E0
FC03E0
FF1FE0
FFFFE0
FFFFE0
ENDCHAR
STARTCHAR 25E6
ENCODING 9702
SWIDTH 480 0
DWIDTH 12 0
BBX 10 9 1 2
BITMAP
3F00
6180
40C0
40C0
C0C0
40C0
6080
3B80
1E00
ENDCHAR
STARTCHAR 263A
ENCODING 9786
SWIDTH 1040 0
DWIDTH 26 0
BBX 18 18 4 0
BITMAP
03F000
0E1C00
300600
200300
400180
C61080
8638C0
800040
800240
900440
9804C0
8C0C80
47F880
63E180
200300
180600
0E1C00
03F000
ENDCHAR
STARTCHAR 263B
ENCODING 9787
SWIDTH 1040 0
DWIDTH 26 0
BBX 18 18 4 0
BITMAP
03F000
0FFC00
1FFE00
3FFF00
7FFF80
7DE7C0
F8E7C0
F9E7C0
FFFFC0
EFFFC0
FFFDC0
F7FBC0
78E3C0
7C0780
3FFF00
1FFF00
0FFC00
03F000
ENDCHAR
STARTCHAR 263C
ENCODING 9788
SWIDTH 920 0
DWIDTH 23 0
BBX 19 19 2 0
BITMAP
004000
004000
004100
31F380
1FFF00
0E0E00
0C0600
180300
180300
F803E0
180300
180300
0C0600
0E0E00
1FFF00
31F380
004100
004000
004000
ENDCHAR
STARTCHAR 2640
ENCODING 9792
SWIDTH 760 0
DWIDTH 19 0
BBX 9 17 5 1
BITMAP
3C00
7700
C100
8180
8080
8080
C180
6300
3E00
0800
0800
0800
FF80
0800
0800
0800
0800
ENDCHAR
STARTCHAR 2642
ENCODING 9794
SWIDTH 760 0
DWIDTH 19 0
BBX 13 14 3 4
BITMAP
01F8
0078
0038
0058
0088
3D08
6300
C100
8180
8080
8180
8100
6300
3C00
ENDCHAR
STARTCHAR 2660
ENCODING 9824
SWIDTH 520 0
DWIDTH 13 0
BBX 15 19 0 0
BITMAP
0100
0100
0180
0380
07C0
0FE0
1FF0
3FF8
7FFC
7FFE
FFFE
FFFE
FEFE
7D7C
3938
0100
0380
07C0
7FFC
ENDCHAR
STARTCHAR 2663
ENCODING 9827
SWIDTH 640 0
DWIDTH 16 0
BBX 18 18 -1 0
BITMAP
01E000
03F000
07F800
07F800
07F800
07F800
3FF780
7FFFC0
FFFFC0
FFFFC0
FFFFC0
FFBFC0
7F5F80
3C4F00
00C000
00E000
03F000
1FFE00
ENDCHAR
STARTCHAR 2665
ENCODING 9829
SWIDTH 600 0
DWIDTH 15 0
BBX 16 19 -1 -1
BITMAP
3C1E
7E3F
7F7F
FF7F
FFFF
7FFF
7FFF
3FFE
3FFE
1FFC
0FF8
0FF8
07F0
03E0
03C0
01C0
0080
0080
0080
ENDCHAR
STARTCHAR 2666
ENCODING 9830
SWIDTH 520 0
DWIDTH 13 0
BBX 13 18 0 0
BITMAP
0300
0700
0780
0FC0
1FC0
3FE0
3FF0
7FF8
FFF8
FFF8
7FF0
3FF0
1FE0
1FC0
0F80
0780
0700
0200
ENDCHAR
STARTCHAR 266A
ENCODING 9834
SWIDTH 520 0
DWIDTH 13 0
BBX 10 18 1 0
BITMAP
0400
0400
0600
0700
0700
0780
04C0
04C0
0440
0440
0440
0440
0440
3C80
7C00
FC00
F800
6000
ENDCHAR
STARTCHAR 266B
ENCODING 9835
SWIDTH 760 0
DWIDTH 19 0
BBX 14 17 2 -1
BITMAP
0F80
0FFC
0DFC
0C04
0C04
0C04
0C04
0C04
0C04
0C04
0C04
7C04
F814
F87C
F07C
00F8
0060
ENDCHAR
STARTCHAR 301A
ENCODING 12314
SWIDTH 720 0
DWIDTH 18 0
BBX 8 24 5 -4
BITMAP
FF
C8
C8
C8
C8
C8
C8
C8
C8
C8
C8
C8
C8
C8
C8
C8
C8
C8
C8
C8
C8
C8
C8
FF
ENDCHAR
STARTCHAR 301B
ENCODING 12315
SWIDTH 720 0
DWIDTH 18 0
BBX 8 24 5 -4
BITMAP
FF
13
13
13
13
13
13
13
13
13
13
13
13
13
13
13
13
13
13
13
13
13
13
FF
ENDCHAR
STARTCHAR EFBF
ENCODING 61375
SWIDTH 720 0
DWIDTH 18 0
BBX 23 21 -4 0
BITMAP
000004
00000E
00000C
000018
000038
000070
000060
0000C0
0C01C0
3C0180
EC0300
060600
060E00
060C00
061800
033800
037000
036000
01C000
01C000
018000
ENDCHAR
STARTCHAR EFC0
ENCODING 61376
SWIDTH 720 0
DWIDTH 18 0
BBX 12 27 0 -5
BITMAP
0330
0330
0330
0330
0330
0330
0330
0330
0330
0330
0330
0330
0330
0330
0330
0330
0330
0330
0330
0330
0330
0330
0330
0330
0330
FFF0
FFF0
ENDCHAR
STARTCHAR EFC1
ENCODING 61377
SWIDTH 720 0
DWIDTH 18 0
BBX 12 27 0 -5
BITMAP
FFF0
FFF0
0330
0330
0330
0330
0330
0330
0330
0330
0330
0330
0330
0330
0330
0330
0330
0330
0330
0330
0330
0330
0330
0330
0330
0330
0330
ENDCHAR
STARTCHAR EFC2
ENCODING 61378
SWIDTH 720 0
DWIDTH 18 0
BBX 18 24 0 -6
BITMAP
FFFFC0
600180
600180
600180
600180
600180
600180
600180
600180
600180
600180
600180
600180
600180
600180
600180
600180
600180
600180
600180
600180
600180
600180
600180
ENDCHAR
STARTCHAR EFC3
ENCODING 61379
SWIDTH 720 0
DWIDTH 18 0
BBX 18 24 0 -6
BITMAP
600180
600180
600180
600180
600180
600180
600180
600180
600180
600180
600180
600180
600180
600180
600180
600180
600180
600180
600180
600180
600180
600180
FFFFC0
FFFFC0
ENDCHAR
STARTCHAR EFC4
ENCODING 61380
SWIDTH 720 0
DWIDTH 18 0
BBX 12 27 6 -5
BITMAP
CC00
CC00
CC00
CC00
CC00
CC00
CC00
CC00
CC00
CC00
CC00
CC00
CC00
CC00
CC00
CC00
CC00
CC00
CC00
CC00
CC00
CC00
CC00
CC00
CC00
FFF0
FFF0
ENDCHAR
STARTCHAR EFC5
ENCODING 61381
SWIDTH 720 0
DWIDTH 18 0
BBX 12 27 6 -5
BITMAP
FFF0
FFF0
CC00
CC00
CC00
CC00
CC00
CC00
CC00
CC00
CC00
CC00
CC00
CC00
CC00
CC00
CC00
CC00
CC00
CC00
CC00
CC00
CC00
CC00
CC00
CC00
CC00
ENDCHAR
STARTCHAR EFC6
ENCODING 61382
SWIDTH 720 0
DWIDTH 18 0
BBX 16 25 1 -6
BITMAP
03C0
0FF8
381C
700E
6006
4003
C003
C003
C003
C003
C003
C003
C003
C003
C003
C003
C003
C003
C003
C003
C003
C003
C003
C003
C003
ENDCHAR
STARTCHAR EFC7
ENCODING 61383
SWIDTH 720 0
DWIDTH 18 0
BBX 16 24 1 -6
BITMAP
C003
C003
C003
C003
C003
C003
C003
C003
C003
C003
C003
C003
C003
C003
C003
C003
C003
C003
C003
6002
6006
380C
1FF8
07E0
ENDCHAR
STARTCHAR EFC8
ENCODING 61384
SWIDTH 720 0
DWIDTH 18 0
BBX 16 24 1 -6
BITMAP
C003
C003
C003
C003
C003
C003
C003
C003
C003
C003
C003
C003
C003
C003
C003
C003
C003
C003
C003
C003
C003
C003
C003
C003
ENDCHAR
STARTCHAR EFC9
ENCODING 61385
SWIDTH 720 0
DWIDTH 18 0
BBX 6 27 6 -5
BITMAP
CC
CC
CC
CC
CC
CC
CC
CC
CC
CC
CC
CC
CC
CC
CC
CC
CC
CC
CC
CC
CC
CC
CC
CC
CC
CC
CC
ENDCHAR
STARTCHAR EFCA
ENCODING 61386
SWIDTH 720 0
DWIDTH 18 0
BBX 12 15 3 -2
BITMAP
0400
0600
0600
0F00
0900
1980
1080
30C0
2040
6060
7FE0
0000
0000
0000
FFF0
ENDCHAR
STARTCHAR EFCB
ENCODING 61387
SWIDTH 720 0
DWIDTH 18 0
BBX 18 5 0 5
BITMAP
FFFFC0
FFFFC0
000000
FFFFC0
FFFFC0
ENDCHAR
STARTCHAR EFCC
ENCODING 61388
SWIDTH 720 0
DWIDTH 18 0
BBX 11 27 8 -5
BITMAP
0040
00E0
00C0
0180
0380
0700
0600
0C00
1C00
1800
3000
6000
E000
C000
6000
7000
3000
1800
0C00
0E00
0600
0300
0380
01C0
00C0
0060
0040
ENDCHAR
STARTCHAR EFCD
ENCODING 61389
SWIDTH 720 0
DWIDTH 18 0
BBX 19 27 0 -5
BITMAP
800000
C00000
E00000
600000
300000
380000
180000
0C0000
0E0000
070000
030000
018000
01C000
00C000
006000
003000
003800
001800
000C00
000E00
000700
000300
000180
0001C0
0000C0
000060
000040
ENDCHAR
STARTCHAR EFCE
ENCODING 61390
SWIDTH 720 0
DWIDTH 18 0
BBX 17 9 0 -5
BITMAP
000180
000300
000300
000700
000700
000F00
003F00
FFFE00
FFFE00
ENDCHAR
STARTCHAR EFCF
ENCODING 61391
SWIDTH 720 0
DWIDTH 18 0
BBX 11 27 -1 -5
BITMAP
4000
E000
6000
3000
3800
1C00
0C00
0600
0700
0300
0180
00C0
00E0
0060
00C0
01C0
0180
0300
0600
0E00
0C00
1800
3800
3000
6000
C000
4000
ENDCHAR
STARTCHAR EFD0
ENCODING 61392
SWIDTH 720 0
DWIDTH 18 0
BBX 16 9 0 13
BITMAP
FFFC
FFFE
007E
001E
000E
0006
0007
0003
0003
ENDCHAR
STARTCHAR EFD1
ENCODING 61393
SWIDTH 720 0
DWIDTH 18 0
BBX 20 27 -1 -5
BITMAP
000020
000070
000060
0000C0
0001C0
000180
000300
000600
000E00
000C00
001800
003800
007000
006000
00C000
01C000
018000
030000
060000
0E0000
0C0000
180000
380000
300000
600000
C00000
400000
ENDCHAR
STARTCHAR EFD2
ENCODING 61394
SWIDTH 720 0
DWIDTH 18 0
BBX 19 27 0 -5
BITMAP
000040
000060
0000C0
000180
000380
000300
000600
000C00
001C00
001800
003000
007000
006000
00C000
018000
038000
030000
060000
0C0000
0C0000
180000
300000
700000
600000
C00000
FFFFC0
FFFFC0
ENDCHAR
STARTCHAR EFD3
ENCODING 61395
SWIDTH 720 0
DWIDTH 18 0
BBX 19 27 0 -5
BITMAP
FFFFC0
FFFFC0
C00000
600000
700000
300000
180000
0C0000
0E0000
060000
030000
038000
018000
00C000
006000
007000
003000
001800
001C00
000E00
000600
000300
000380
000180
0000C0
000060
000040
ENDCHAR
STARTCHAR EFD4
ENCODING 61396
SWIDTH 720 0
DWIDTH 18 0
BBX 12 24 3 -6
BITMAP
0600
0600
0600
0600
0600
0600
0F00
36C0
6620
4630
8610
8610
8610
4610
4620
2660
1FC0
0600
0600
0600
0600
0600
0600
0600
ENDCHAR
STARTCHAR EFD5
ENCODING 61397
SWIDTH 560 0
DWIDTH 14 0
BBX 13 18 1 -5
BITMAP
07F8
0820
0800
1800
1000
3000
3000
3F80
3380
6000
6000
6000
6000
6000
C000
C000
C000
C000
ENDCHAR
STARTCHAR EFD6
ENCODING 61398
SWIDTH 1000 0
DWIDTH 25 0
BBX 18 10 3 7
BITMAP
FEE1C0
FEE3C0
30F3C0
30F2C0
30D2C0
30D6C0
30DCC0
30CCC0
30CCC0
30CCC0
ENDCHAR
STARTCHAR EFD7
ENCODING 61399
SWIDTH 1000 0
DWIDTH 25 0
BBX 19 19 3 -1
BITMAP
03F800
0C0E00
100300
200080
406040
41F840
831C20
860020
860020
860020
860020
830820
C3F840
40F040
200080
300180
180300
060C00
01F000
ENDCHAR
STARTCHAR EFD8
ENCODING 61400
SWIDTH 1000 0
DWIDTH 25 0
BBX 19 19 3 -1
BITMAP
03F800
0C0600
100100
200080
43E040
43F840
831820
830820
83F820
83F020
833020
831020
831840
431840
600080
300180
180300
0E0C00
01F000
ENDCHAR
STARTCHAR EFD9
ENCODING 61401
SWIDTH 1000 0
DWIDTH 25 0
BBX 23 10 1 7
BITMAP
FFBC1E
D99E1C
98962C
98962C
18134C
18134C
1813CC
18098C
18098C
3E3DBE
ENDCHAR
STARTCHAR EFDA
ENCODING 61402
SWIDTH 1000 0
DWIDTH 25 0
BBX 19 19 3 -1
BITMAP
03F800
0C0E00
180300
200080
6078C0
419840
830860
870820
860020
860020
870020
830820
819020
40E040
6000C0
200080
180300
0E0E00
01F000
ENDCHAR
STARTCHAR EFDB
ENCODING 61403
SWIDTH 1000 0
DWIDTH 25 0
BBX 19 19 3 -1
BITMAP
03F800
0C0E00
100300
200080
47F040
439840
818C20
818C20
81B820
81F020
819020
819A20
819A40
47CC40
6000C0
200080
180300
0E0E00
01F000
ENDCHAR
STARTCHAR EFDC
ENCODING 61404
SWIDTH 720 0
DWIDTH 18 0
BBX 8 27 2 -5
BITMAP
03
03
03
03
03
03
03
03
03
03
03
03
03
03
03
03
03
03
03
E3
33
33
1B
0F
0F
07
03
ENDCHAR
STARTCHAR EFDD
ENCODING 61405
SWIDTH 720 0
DWIDTH 18 0
BBX 2 28 8 -6
BITMAP
C0
C0
C0
C0
C0
C0
C0
C0
C0
C0
C0
C0
C0
C0
C0
C0
C0
C0
C0
C0
C0
C0
C0
C0
C0
C0
C0
C0
ENDCHAR
STARTCHAR EFDE
ENCODING 61406
SWIDTH 720 0
DWIDTH 18 0
BBX 6 24 4 -6
BITMAP
0C
0C
0C
0C
0C
0C
0C
0C
0C
0C
0C
0C
0C
0C
0C
0C
0C
0C
0C
0C
1C
1C
38
E0
ENDCHAR
STARTCHAR EFDF
ENCODING 61407
SWIDTH 720 0
DWIDTH 18 0
BBX 7 24 8 -6
BITMAP
E0
E0
E0
E0
E0
E0
E0
E0
E0
60
38
0E
0E
30
60
E0
E0
E0
E0
E0
E0
E0
E0
E0
ENDCHAR
STARTCHAR EFE0
ENCODING 61408
SWIDTH 720 0
DWIDTH 18 0
BBX 6 25 4 -6
BITMAP
C0
70
18
1C
0C
0C
0C
0C
0C
0C
0C
0C
0C
0C
0C
0C
0C
0C
0C
0C
0C
0C
0C
0C
0C
ENDCHAR
STARTCHAR EFE1
ENCODING 61409
SWIDTH 720 0
DWIDTH 18 0
BBX 6 24 8 -6
BITMAP
C0
C0
C0
C0
C0
C0
C0
C0
C0
C0
C0
C0
C0
C0
C0
C0
C0
C0
E0
E0
E0
60
70
1C
ENDCHAR
STARTCHAR EFE2
ENCODING 61410
SWIDTH 720 0
DWIDTH 18 0
BBX 7 24 3 -6
BITMAP
06
06
06
06
06
06
06
06
06
0C
18
E0
E0
18
0C
06
06
06
06
06
06
06
06
06
ENDCHAR
STARTCHAR EFE3
ENCODING 61411
SWIDTH 720 0
DWIDTH 18 0
BBX 6 24 8 -6
BITMAP
1C
70
60
E0
E0
E0
E0
E0
E0
E0
E0
E0
E0
E0
E0
E0
E0
E0
E0
E0
E0
E0
E0
E0
ENDCHAR
STARTCHAR EFE4
ENCODING 61412
SWIDTH 720 0
DWIDTH 18 0
BBX 10 27 0 -5
BITMAP
00C0
00C0
00C0
00C0
00C0
00C0
00C0
00C0
00C0
00C0
00C0
00C0
00C0
00C0
00C0
00C0
00C0
00C0
00C0
00C0
00C0
00C0
00C0
00C0
00C0
FFC0
FFC0
ENDCHAR
STARTCHAR EFE5
ENCODING 61413
SWIDTH 720 0
DWIDTH 18 0
BBX 10 27 0 -5
BITMAP
FFC0
FFC0
00C0
00C0
00C0
00C0
00C0
00C0
00C0
00C0
00C0
00C0
00C0
00C0
00C0
00C0
00C0
00C0
00C0
00C0
00C0
00C0
00C0
00C0
00C0
00C0
00C0
ENDCHAR
STARTCHAR EFE6
ENCODING 61414
SWIDTH 720 0
DWIDTH 18 0
BBX 10 27 8 -5
BITMAP
C000
C000
C000
C000
C000
C000
C000
C000
C000
C000
C000
C000
C000
C000
C000
C000
C000
C000
C000
C000
C000
C000
C000
C000
C000
FFC0
FFC0
ENDCHAR
STARTCHAR EFE7
ENCODING 61415
SWIDTH 720 0
DWIDTH 18 0
BBX 10 27 8 -5
BITMAP
FFC0
FFC0
C000
C000
C000
C000
C000
C000
C000
C000
C000
C000
C000
C000
C000
C000
C000
C000
C000
C000
C000
C000
C000
C000
C000
C000
C000
ENDCHAR
STARTCHAR EFE8
ENCODING 61416
SWIDTH 720 0
DWIDTH 18 0
BBX 18 1 0 7
BITMAP
FFFFC0
ENDCHAR
STARTCHAR EFE9
ENCODING 61417
SWIDTH 720 0
DWIDTH 18 0
BBX 18 4 0 20
BITMAP
000800
000600
FFFFC0
FFFFC0
ENDCHAR
STARTCHAR EFEA
ENCODING 61418
SWIDTH 720 0
DWIDTH 18 0
BBX 18 2 0 20
BITMAP
FFFFC0
FFFFC0
ENDCHAR
STARTCHAR EFEB
ENCODING 61419
SWIDTH 720 0
DWIDTH 18 0
BBX 18 2 0 -5
BITMAP
FFFFC0
FFFFC0
ENDCHAR
STARTCHAR EFEC
ENCODING 61420
SWIDTH 520 0
DWIDTH 13 0
BBX 12 13 1 0
BITMAP
0FC0
1FE0
3870
3070
3800
1F00
7F00
E000
E000
E060
E0E0
7FC0
1F00
ENDCHAR
STARTCHAR EFFA
ENCODING 61434
SWIDTH 1000 0
DWIDTH 25 0
BBX 17 18 4 0
BITMAP
03E000
0FF800
1FFC00
3FFE00
7FFF00
FFFF80
FFFF80
FFFF80
FFFF80
FFFF80
FFFF80
FFFF80
FFFF80
7FFF00
7FFF00
3FFE00
1FF800
03E000
ENDCHAR
STARTCHAR EFFB
ENCODING 61435
SWIDTH 1000 0
DWIDTH 25 0
BBX 17 18 4 0
BITMAP
FFFF80
FFFF80
FFFF80
FFFF80
FFFF80
FFFF80
FFFF80
FFFF80
FFFF80
FFFF80
FFFF80
FFFF80
FFFF80
FFFF80
FFFF80
FFFF80
FFFF80
FFFF80
ENDCHAR
STARTCHAR EFFC
ENCODING 61436
SWIDTH 1000 0
DWIDTH 25 0
BBX 17 18 4 0
BITMAP
FFFF80
800080
800080
800080
800080
800080
800080
800080
800080
800080
800080
800080
800080
800080
800080
800080
800080
FFFF80
ENDCHAR
STARTCHAR EFFD
ENCODING 61437
SWIDTH 1000 0
DWIDTH 25 0
BBX 17 18 4 0
BITMAP
03F000
0C1C00
300600
200300
400100
800080
800080
800080
800080
800080
800080
800080
800080
400100
600300
300600
0C1800
03E000
ENDCHAR
STARTCHAR EFFE
ENCODING 61438
SWIDTH 760 0
DWIDTH 19 0
BBX 17 17 1 0
BITMAP
01FC00
078F00
0D8700
198380
338380
738380
63C380
63C700
E1CE00
E1F800
E0E000
E0E000
60E000
60E000
30C000
39C000
0F0000
ENDCHAR
STARTCHAR EFFF
ENCODING 61439
SWIDTH 480 0
DWIDTH 12 0
BBX 12 11 0 7
BITMAP
0F80
3040
49A0
5990
9590
9590
9690
5690
4020
3040
0F80
ENDCHAR
STARTCHAR FB00
ENCODING 64256
SWIDTH 560 0
DWIDTH 14 0
BBX 13 18 0 0
BITMAP
1C38
1C78
3060
3060
3060
FDF8
FDF8
3060
3060
3060
3060
3060
3060
3060
3060
3060
3060
3060
ENDCHAR
STARTCHAR FB01
ENCODING 64257
SWIDTH 520 0
DWIDTH 13 0
BBX 11 18 0 0
BITMAP
1C60
3C60
3060
3000
3000
FC60
FC60
3060
3060
3060
3060
3060
3060
3060
3060
3060
3060
3060
ENDCHAR
STARTCHAR FB02
ENCODING 64258
SWIDTH 520 0
DWIDTH 13 0
BBX 11 18 0 0
BITMAP
1C60
1C60
3060
3060
3060
FC60
FC60
3060
3060
3060
3060
3060
3060
3060
3060
3060
3060
3060
ENDCHAR
STARTCHAR FB03
ENCODING 64259
SWIDTH 760 0
DWIDTH 19 0
BBX 18 18 0 0
BITMAP
1C38C0
1C78C0
3060C0
306000
306000
FDF8C0
FDF8C0
3060C0
3060C0
3060C0
3060C0
3060C0
3060C0
3060C0
3060C0
3060C0
3060C0
3060C0
ENDCHAR
STARTCHAR FB04
ENCODING 64260
SWIDTH 760 0
DWIDTH 19 0
BBX 18 18 0 0
BITMAP
1C38C0
1C78C0
3060C0
3060C0
3060C0
FDF8C0
FDF8C0
3060C0
3060C0
3060C0
3060C0
3060C0
3060C0
3060C0
3060C0
3060C0
3060C0
3060C0
ENDCHAR
ENDFONT
